<svg width="796" height="103" viewBox="0 0 796 103" fill="none" xmlns="http://www.w3.org/2000/svg">
<mask id="path-1-outside-1_2104_2301" maskUnits="userSpaceOnUse" x="0.0126953" y="0.581703" width="796" height="102" fill="black">
<rect fill="white" x="0.0126953" y="0.581703" width="796" height="102"/>
<path d="M346.013 78V8.82432H373.305C378.551 8.82432 383.021 9.82637 386.714 11.8305C390.407 13.8121 393.222 16.5706 395.159 20.1059C397.118 23.6187 398.097 27.672 398.097 32.2657C398.097 36.8594 397.106 40.9126 395.125 44.4255C393.143 47.9383 390.272 50.6743 386.512 52.6333C382.774 54.5924 378.247 55.5719 372.933 55.5719H355.538V43.8513H370.569C373.383 43.8513 375.703 43.3671 377.527 42.3988C379.373 41.408 380.747 40.0457 381.648 38.3118C382.571 36.5554 383.033 34.54 383.033 32.2657C383.033 29.9688 382.571 27.9647 381.648 26.2533C380.747 24.5194 379.373 23.1796 377.527 22.2339C375.68 21.2656 373.338 20.7814 370.501 20.7814H360.638V78H346.013Z"/>
<path d="M407.327 78V26.1182H421.277V35.1705H421.817C422.763 31.9504 424.35 29.5185 426.58 27.8747C428.809 26.2083 431.376 25.3751 434.281 25.3751C435.002 25.3751 435.778 25.4202 436.612 25.5102C437.445 25.6003 438.177 25.7242 438.807 25.8818V38.6496C438.132 38.4469 437.197 38.2668 436.004 38.1091C434.81 37.9515 433.718 37.8727 432.727 37.8727C430.61 37.8727 428.719 38.3343 427.053 39.2576C425.409 40.1583 424.103 41.4193 423.134 43.0406C422.189 44.6619 421.716 46.5309 421.716 48.6476V78H407.327Z"/>
<path d="M467.273 79.0133C462.026 79.0133 457.489 77.8987 453.661 75.6694C449.855 73.4176 446.916 70.2875 444.845 66.2793C442.773 62.2486 441.737 57.5761 441.737 52.2618C441.737 46.9025 442.773 42.2187 444.845 38.2105C446.916 34.1797 449.855 31.0497 453.661 28.8204C457.489 26.5686 462.026 25.4427 467.273 25.4427C472.52 25.4427 477.046 26.5686 480.851 28.8204C484.679 31.0497 487.629 34.1797 489.701 38.2105C491.773 42.2187 492.808 46.9025 492.808 52.2618C492.808 57.5761 491.773 62.2486 489.701 66.2793C487.629 70.2875 484.679 73.4176 480.851 75.6694C477.046 77.8987 472.52 79.0133 467.273 79.0133ZM467.34 67.8668C469.727 67.8668 471.72 67.1913 473.319 65.8402C474.918 64.4666 476.122 62.5976 476.933 60.2332C477.766 57.8688 478.183 55.1779 478.183 52.1604C478.183 49.143 477.766 46.4521 476.933 44.0877C476.122 41.7233 474.918 39.8543 473.319 38.4807C471.72 37.1071 469.727 36.4203 467.34 36.4203C464.931 36.4203 462.904 37.1071 461.26 38.4807C459.639 39.8543 458.412 41.7233 457.579 44.0877C456.768 46.4521 456.363 49.143 456.363 52.1604C456.363 55.1779 456.768 57.8688 457.579 60.2332C458.412 62.5976 459.639 64.4666 461.26 65.8402C462.904 67.1913 464.931 67.8668 467.34 67.8668Z"/>
<path d="M530.065 26.1182V36.9269H498.044V26.1182H530.065ZM505.373 78V22.369C505.373 18.6084 506.105 15.4897 507.569 13.0127C509.055 10.5357 511.082 8.67795 513.649 7.43945C516.216 6.20095 519.132 5.5817 522.397 5.5817C524.604 5.5817 526.619 5.75059 528.443 6.08837C530.29 6.42614 531.663 6.73013 532.564 7.00035L529.997 17.809C529.434 17.6289 528.736 17.46 527.903 17.3024C527.092 17.1448 526.259 17.066 525.403 17.066C523.287 17.066 521.812 17.5614 520.979 18.5521C520.145 19.5204 519.729 20.8828 519.729 22.6392V78H505.373Z"/>
<path d="M560.641 79.0133C555.305 79.0133 550.711 77.9324 546.86 75.7707C543.032 73.5864 540.082 70.5015 538.011 66.5158C535.939 62.5075 534.903 57.7675 534.903 52.2956C534.903 46.9588 535.939 42.275 538.011 38.2442C540.082 34.2135 542.998 31.0722 546.759 28.8204C550.542 26.5686 554.978 25.4427 560.067 25.4427C563.49 25.4427 566.676 25.9944 569.626 27.0978C572.598 28.1786 575.188 29.8112 577.395 31.9955C579.624 34.1797 581.358 36.9269 582.597 40.2371C583.835 43.5247 584.454 47.3753 584.454 51.7889V55.7408H540.645V46.8237H570.91C570.91 44.752 570.459 42.9168 569.559 41.318C568.658 39.7192 567.408 38.4694 565.809 37.5687C564.233 36.6455 562.398 36.1838 560.304 36.1838C558.119 36.1838 556.183 36.6905 554.494 37.7038C552.828 38.6946 551.522 40.0344 550.576 41.7233C549.63 43.3896 549.146 45.2474 549.123 47.2965V55.7746C549.123 58.3417 549.596 60.5597 550.542 62.4287C551.51 64.2977 552.873 65.7389 554.629 66.7522C556.385 67.7655 558.468 68.2722 560.878 68.2722C562.477 68.2722 563.94 68.047 565.269 67.5966C566.597 67.1463 567.735 66.4707 568.68 65.57C569.626 64.6693 570.347 63.5659 570.842 62.2598L584.15 63.138C583.475 66.3356 582.09 69.1279 579.996 71.5148C577.924 73.8792 575.244 75.7257 571.957 77.0542C568.692 78.3603 564.92 79.0133 560.641 79.0133Z"/>
<path d="M637.012 40.9126L623.839 41.7233C623.613 40.5974 623.129 39.5841 622.386 38.6833C621.643 37.7601 620.663 37.0283 619.448 36.4878C618.254 35.9249 616.824 35.6434 615.158 35.6434C612.928 35.6434 611.048 36.1163 609.517 37.062C607.986 37.9853 607.22 39.2238 607.22 40.7775C607.22 42.016 607.716 43.0631 608.706 43.9188C609.697 44.7745 611.397 45.4613 613.807 45.9792L623.197 47.8707C628.241 48.9066 632.001 50.5729 634.478 52.8698C636.955 55.1666 638.194 58.184 638.194 61.9221C638.194 65.3223 637.192 68.3059 635.188 70.873C633.206 73.4401 630.481 75.4442 627.014 76.8854C623.568 78.304 619.594 79.0133 615.09 79.0133C608.222 79.0133 602.75 77.5834 598.674 74.7236C594.621 71.8413 592.246 67.9231 591.548 62.9692L605.7 62.2261C606.128 64.3202 607.164 65.919 608.808 67.0224C610.452 68.1033 612.557 68.6437 615.124 68.6437C617.646 68.6437 619.673 68.1596 621.204 67.1913C622.758 66.2005 623.546 64.9282 623.568 63.3745C623.546 62.0684 622.994 60.9988 621.913 60.1656C620.832 59.31 619.166 58.6569 616.914 58.2066L607.929 56.4164C602.863 55.4031 599.091 53.6466 596.614 51.1471C594.16 48.6476 592.932 45.4613 592.932 41.5882C592.932 38.2555 593.833 35.3844 595.635 32.975C597.459 30.5656 600.014 28.7078 603.302 27.4018C606.612 26.0957 610.485 25.4427 614.921 25.4427C621.474 25.4427 626.631 26.8276 630.391 29.5973C634.174 32.367 636.381 36.1388 637.012 40.9126Z"/>
<path d="M690.422 40.9126L677.249 41.7233C677.024 40.5974 676.539 39.5841 675.796 38.6833C675.053 37.7601 674.074 37.0283 672.858 36.4878C671.664 35.9249 670.234 35.6434 668.568 35.6434C666.339 35.6434 664.458 36.1163 662.927 37.062C661.396 37.9853 660.63 39.2238 660.63 40.7775C660.63 42.016 661.126 43.0631 662.117 43.9188C663.107 44.7745 664.807 45.4613 667.217 45.9792L676.607 47.8707C681.651 48.9066 685.412 50.5729 687.889 52.8698C690.366 55.1666 691.604 58.184 691.604 61.9221C691.604 65.3223 690.602 68.3059 688.598 70.873C686.616 73.4401 683.892 75.4442 680.424 76.8854C676.978 78.304 673.004 79.0133 668.5 79.0133C661.632 79.0133 656.16 77.5834 652.085 74.7236C648.031 71.8413 645.656 67.9231 644.958 62.9692L659.11 62.2261C659.538 64.3202 660.574 65.919 662.218 67.0224C663.862 68.1033 665.967 68.6437 668.534 68.6437C671.056 68.6437 673.083 68.1596 674.614 67.1913C676.168 66.2005 676.956 64.9282 676.979 63.3745C676.956 62.0684 676.404 60.9988 675.323 60.1656C674.243 59.31 672.576 58.6569 670.324 58.2066L661.34 56.4164C656.273 55.4031 652.501 53.6466 650.024 51.1471C647.57 48.6476 646.343 45.4613 646.343 41.5882C646.343 38.2555 647.243 35.3844 649.045 32.975C650.869 30.5656 653.425 28.7078 656.712 27.4018C660.022 26.0957 663.895 25.4427 668.332 25.4427C674.884 25.4427 680.041 26.8276 683.801 29.5973C687.584 32.367 689.791 36.1388 690.422 40.9126Z"/>
<path d="M724.106 79.0133C718.859 79.0133 714.322 77.8987 710.494 75.6694C706.688 73.4176 703.75 70.2875 701.678 66.2793C699.606 62.2486 698.571 57.5761 698.571 52.2618C698.571 46.9025 699.606 42.2187 701.678 38.2105C703.75 34.1797 706.688 31.0497 710.494 28.8204C714.322 26.5686 718.859 25.4427 724.106 25.4427C729.353 25.4427 733.879 26.5686 737.685 28.8204C741.513 31.0497 744.462 34.1797 746.534 38.2105C748.606 42.2187 749.642 46.9025 749.642 52.2618C749.642 57.5761 748.606 62.2486 746.534 66.2793C744.462 70.2875 741.513 73.4176 737.685 75.6694C733.879 77.8987 729.353 79.0133 724.106 79.0133ZM724.174 67.8668C726.561 67.8668 728.553 67.1913 730.152 65.8402C731.751 64.4666 732.956 62.5976 733.766 60.2332C734.6 57.8688 735.016 55.1779 735.016 52.1604C735.016 49.143 734.6 46.4521 733.766 44.0877C732.956 41.7233 731.751 39.8543 730.152 38.4807C728.553 37.1071 726.561 36.4203 724.174 36.4203C721.764 36.4203 719.738 37.1071 718.094 38.4807C716.472 39.8543 715.245 41.7233 714.412 44.0877C713.601 46.4521 713.196 49.143 713.196 52.1604C713.196 55.1779 713.601 57.8688 714.412 60.2332C715.245 62.5976 716.472 64.4666 718.094 65.8402C719.738 67.1913 721.764 67.8668 724.174 67.8668Z"/>
<path d="M758.998 78V26.1182H772.948V35.1705H773.488C774.434 31.9504 776.022 29.5185 778.251 27.8747C780.48 26.2083 783.047 25.3751 785.952 25.3751C786.673 25.3751 787.45 25.4202 788.283 25.5102C789.116 25.6003 789.848 25.7242 790.478 25.8818V38.6496C789.803 38.4469 788.868 38.2668 787.675 38.1091C786.481 37.9515 785.389 37.8727 784.398 37.8727C782.282 37.8727 780.39 38.3343 778.724 39.2576C777.08 40.1583 775.774 41.4193 774.806 43.0406C773.86 44.6619 773.387 46.5309 773.387 48.6476V78H758.998Z"/>
<path d="M5.0127 74.8589V5.68321H32.3047C37.5289 5.68321 41.9875 6.61771 45.6804 8.48672C49.3959 10.3332 52.2219 12.9566 54.1585 16.3568C56.1176 19.7345 57.0971 23.709 57.0971 28.2801C57.0971 32.8738 56.1063 36.8258 54.1247 40.1359C52.1431 43.4236 49.2721 45.9456 45.5115 47.702C41.7735 49.4584 37.2474 50.3367 31.9331 50.3367H13.6597V38.5822H29.5687C32.361 38.5822 34.6803 38.1994 36.5268 37.4338C38.3733 36.6682 39.7469 35.5197 40.6476 33.9885C41.5709 32.4573 42.0325 30.5545 42.0325 28.2801C42.0325 25.9833 41.5709 24.0467 40.6476 22.4705C39.7469 20.8942 38.362 19.7007 36.493 18.8901C34.6466 18.0569 32.3159 17.6403 29.5012 17.6403H19.6382V74.8589H5.0127ZM42.3703 43.3786L59.5629 74.8589H43.4174L26.5963 43.3786H42.3703Z"/>
<path d="M81.9571 75.8384C78.647 75.8384 75.6971 75.2642 73.1075 74.1158C70.5179 72.9449 68.4688 71.2222 66.9601 68.9479C65.4739 66.651 64.7308 63.7912 64.7308 60.3685C64.7308 57.4862 65.2599 55.0655 66.3183 53.1064C67.3766 51.1473 68.8178 49.571 70.6418 48.3776C72.4657 47.1841 74.5374 46.2834 76.8568 45.6754C79.1987 45.0674 81.6531 44.6396 84.2202 44.3919C87.2376 44.0766 89.6696 43.7839 91.5161 43.5137C93.3626 43.2209 94.7024 42.7931 95.5356 42.2301C96.3687 41.6672 96.7853 40.834 96.7853 39.7306V39.528C96.7853 37.3887 96.1098 35.7337 94.7587 34.5627C93.4301 33.3918 91.5386 32.8063 89.0841 32.8063C86.4945 32.8063 84.4341 33.3805 82.9029 34.5289C81.3717 35.6548 80.3583 37.0735 79.8629 38.7849L66.5547 37.704C67.2303 34.5514 68.5588 31.8268 70.5404 29.5299C72.522 27.2105 75.0778 25.4316 78.2079 24.1931C81.3604 22.9321 85.0083 22.3016 89.1517 22.3016C92.034 22.3016 94.7925 22.6394 97.4271 23.3149C100.084 23.9904 102.437 25.0375 104.487 26.4562C106.558 27.8748 108.191 29.6988 109.384 31.9281C110.578 34.1349 111.174 36.7807 111.174 39.8657V74.8589H97.5284V67.6644H97.1231C96.2899 69.2857 95.1753 70.7156 93.7791 71.9541C92.383 73.17 90.7054 74.1271 88.7463 74.8251C86.7873 75.5007 84.5242 75.8384 81.9571 75.8384ZM86.0779 65.9079C88.1947 65.9079 90.0637 65.4914 91.685 64.6582C93.3063 63.8025 94.5785 62.6541 95.5018 61.2129C96.425 59.7717 96.8867 58.1392 96.8867 56.3152V50.8095C96.4363 51.1023 95.817 51.3725 95.0289 51.6202C94.2633 51.8454 93.3963 52.0593 92.4281 52.262C91.4598 52.4421 90.4915 52.611 89.5232 52.7686C88.5549 52.9037 87.6767 53.0276 86.8886 53.1402C85.1997 53.3879 83.7248 53.7819 82.4638 54.3224C81.2028 54.8628 80.2232 55.5946 79.5252 56.5179C78.8271 57.4186 78.4781 58.5445 78.4781 59.8956C78.4781 61.8547 79.1874 63.3521 80.606 64.388C82.0472 65.4013 83.8712 65.9079 86.0779 65.9079Z"/>
<path d="M149.934 22.9771V33.7858H118.69V22.9771H149.934ZM125.783 10.5471H140.172V58.9161C140.172 60.2446 140.375 61.2805 140.78 62.0236C141.185 62.7441 141.748 63.2508 142.469 63.5435C143.212 63.8363 144.068 63.9826 145.036 63.9826C145.712 63.9826 146.387 63.9263 147.063 63.8138C147.738 63.6786 148.256 63.5773 148.616 63.5098L150.879 74.2171C150.159 74.4423 149.146 74.7013 147.84 74.994C146.533 75.3093 144.946 75.5007 143.077 75.5682C139.609 75.7033 136.569 75.2417 133.957 74.1833C131.368 73.125 129.352 71.4812 127.911 69.2519C126.47 67.0226 125.761 64.2078 125.783 60.8076V10.5471Z"/>
<path d="M182.394 75.8722C177.057 75.8722 172.463 74.7913 168.613 72.6296C164.784 70.4453 161.835 67.3604 159.763 63.3746C157.691 59.3664 156.655 54.6264 156.655 49.1544C156.655 43.8177 157.691 39.1339 159.763 35.1031C161.835 31.0724 164.751 27.9311 168.511 25.6793C172.294 23.4275 176.73 22.3016 181.819 22.3016C185.242 22.3016 188.428 22.8533 191.378 23.9567C194.351 25.0375 196.94 26.6701 199.147 28.8544C201.376 31.0386 203.11 33.7858 204.349 37.096C205.587 40.3836 206.207 44.2342 206.207 48.6478V52.5997H162.397V43.6825H192.662C192.662 41.6109 192.212 39.7757 191.311 38.1769C190.41 36.5781 189.16 35.3283 187.561 34.4276C185.985 33.5044 184.15 33.0427 182.056 33.0427C179.872 33.0427 177.935 33.5494 176.246 34.5627C174.58 35.5535 173.274 36.8933 172.328 38.5822C171.382 40.2485 170.898 42.1063 170.876 44.1554V52.6335C170.876 55.2006 171.348 57.4186 172.294 59.2876C173.262 61.1566 174.625 62.5978 176.381 63.6111C178.138 64.6244 180.221 65.1311 182.63 65.1311C184.229 65.1311 185.693 64.9059 187.021 64.4555C188.35 64.0052 189.487 63.3296 190.433 62.4289C191.378 61.5282 192.099 60.4248 192.594 59.1187L205.903 59.9969C205.227 63.1945 203.842 65.9868 201.748 68.3737C199.676 70.7381 196.997 72.5846 193.709 73.9131C190.444 75.2192 186.672 75.8722 182.394 75.8722Z"/>
<path d="M210.013 8.82432H228.05L247.1 55.3017H247.911L266.961 8.82432H284.998V78H270.812V32.975H270.237L252.336 77.6622H242.675L224.773 32.8061H224.199V78H210.013V8.82432Z"/>
<path d="M305.661 97.4557C303.837 97.4557 302.126 97.3093 300.527 97.0166C298.951 96.7463 297.645 96.3973 296.609 95.9695L299.852 85.2283C301.54 85.7462 303.06 86.0277 304.411 86.0727C305.785 86.1178 306.967 85.8025 307.958 85.127C308.971 84.4514 309.793 83.303 310.424 81.6817L311.268 79.4862L292.657 26.1182H307.789L318.53 64.2189H319.071L329.913 26.1182H345.147L324.982 83.607C324.014 86.3993 322.696 88.8312 321.03 90.9029C319.386 92.9971 317.303 94.6071 314.781 95.733C312.259 96.8814 309.219 97.4557 305.661 97.4557Z"/>
</mask>
<path d="M346.013 78V8.82432H373.305C378.551 8.82432 383.021 9.82637 386.714 11.8305C390.407 13.8121 393.222 16.5706 395.159 20.1059C397.118 23.6187 398.097 27.672 398.097 32.2657C398.097 36.8594 397.106 40.9126 395.125 44.4255C393.143 47.9383 390.272 50.6743 386.512 52.6333C382.774 54.5924 378.247 55.5719 372.933 55.5719H355.538V43.8513H370.569C373.383 43.8513 375.703 43.3671 377.527 42.3988C379.373 41.408 380.747 40.0457 381.648 38.3118C382.571 36.5554 383.033 34.54 383.033 32.2657C383.033 29.9688 382.571 27.9647 381.648 26.2533C380.747 24.5194 379.373 23.1796 377.527 22.2339C375.68 21.2656 373.338 20.7814 370.501 20.7814H360.638V78H346.013Z" fill="#00B3DB"/>
<path d="M407.327 78V26.1182H421.277V35.1705H421.817C422.763 31.9504 424.35 29.5185 426.58 27.8747C428.809 26.2083 431.376 25.3751 434.281 25.3751C435.002 25.3751 435.778 25.4202 436.612 25.5102C437.445 25.6003 438.177 25.7242 438.807 25.8818V38.6496C438.132 38.4469 437.197 38.2668 436.004 38.1091C434.81 37.9515 433.718 37.8727 432.727 37.8727C430.61 37.8727 428.719 38.3343 427.053 39.2576C425.409 40.1583 424.103 41.4193 423.134 43.0406C422.189 44.6619 421.716 46.5309 421.716 48.6476V78H407.327Z" fill="#00B3DB"/>
<path d="M467.273 79.0133C462.026 79.0133 457.489 77.8987 453.661 75.6694C449.855 73.4176 446.916 70.2875 444.845 66.2793C442.773 62.2486 441.737 57.5761 441.737 52.2618C441.737 46.9025 442.773 42.2187 444.845 38.2105C446.916 34.1797 449.855 31.0497 453.661 28.8204C457.489 26.5686 462.026 25.4427 467.273 25.4427C472.52 25.4427 477.046 26.5686 480.851 28.8204C484.679 31.0497 487.629 34.1797 489.701 38.2105C491.773 42.2187 492.808 46.9025 492.808 52.2618C492.808 57.5761 491.773 62.2486 489.701 66.2793C487.629 70.2875 484.679 73.4176 480.851 75.6694C477.046 77.8987 472.52 79.0133 467.273 79.0133ZM467.34 67.8668C469.727 67.8668 471.72 67.1913 473.319 65.8402C474.918 64.4666 476.122 62.5976 476.933 60.2332C477.766 57.8688 478.183 55.1779 478.183 52.1604C478.183 49.143 477.766 46.4521 476.933 44.0877C476.122 41.7233 474.918 39.8543 473.319 38.4807C471.72 37.1071 469.727 36.4203 467.34 36.4203C464.931 36.4203 462.904 37.1071 461.26 38.4807C459.639 39.8543 458.412 41.7233 457.579 44.0877C456.768 46.4521 456.363 49.143 456.363 52.1604C456.363 55.1779 456.768 57.8688 457.579 60.2332C458.412 62.5976 459.639 64.4666 461.26 65.8402C462.904 67.1913 464.931 67.8668 467.34 67.8668Z" fill="#00B3DB"/>
<path d="M530.065 26.1182V36.9269H498.044V26.1182H530.065ZM505.373 78V22.369C505.373 18.6084 506.105 15.4897 507.569 13.0127C509.055 10.5357 511.082 8.67795 513.649 7.43945C516.216 6.20095 519.132 5.5817 522.397 5.5817C524.604 5.5817 526.619 5.75059 528.443 6.08837C530.29 6.42614 531.663 6.73013 532.564 7.00035L529.997 17.809C529.434 17.6289 528.736 17.46 527.903 17.3024C527.092 17.1448 526.259 17.066 525.403 17.066C523.287 17.066 521.812 17.5614 520.979 18.5521C520.145 19.5204 519.729 20.8828 519.729 22.6392V78H505.373Z" fill="#00B3DB"/>
<path d="M560.641 79.0133C555.305 79.0133 550.711 77.9324 546.86 75.7707C543.032 73.5864 540.082 70.5015 538.011 66.5158C535.939 62.5075 534.903 57.7675 534.903 52.2956C534.903 46.9588 535.939 42.275 538.011 38.2442C540.082 34.2135 542.998 31.0722 546.759 28.8204C550.542 26.5686 554.978 25.4427 560.067 25.4427C563.49 25.4427 566.676 25.9944 569.626 27.0978C572.598 28.1786 575.188 29.8112 577.395 31.9955C579.624 34.1797 581.358 36.9269 582.597 40.2371C583.835 43.5247 584.454 47.3753 584.454 51.7889V55.7408H540.645V46.8237H570.91C570.91 44.752 570.459 42.9168 569.559 41.318C568.658 39.7192 567.408 38.4694 565.809 37.5687C564.233 36.6455 562.398 36.1838 560.304 36.1838C558.119 36.1838 556.183 36.6905 554.494 37.7038C552.828 38.6946 551.522 40.0344 550.576 41.7233C549.63 43.3896 549.146 45.2474 549.123 47.2965V55.7746C549.123 58.3417 549.596 60.5597 550.542 62.4287C551.51 64.2977 552.873 65.7389 554.629 66.7522C556.385 67.7655 558.468 68.2722 560.878 68.2722C562.477 68.2722 563.94 68.047 565.269 67.5966C566.597 67.1463 567.735 66.4707 568.68 65.57C569.626 64.6693 570.347 63.5659 570.842 62.2598L584.15 63.138C583.475 66.3356 582.09 69.1279 579.996 71.5148C577.924 73.8792 575.244 75.7257 571.957 77.0542C568.692 78.3603 564.92 79.0133 560.641 79.0133Z" fill="#00B3DB"/>
<path d="M637.012 40.9126L623.839 41.7233C623.613 40.5974 623.129 39.5841 622.386 38.6833C621.643 37.7601 620.663 37.0283 619.448 36.4878C618.254 35.9249 616.824 35.6434 615.158 35.6434C612.928 35.6434 611.048 36.1163 609.517 37.062C607.986 37.9853 607.22 39.2238 607.22 40.7775C607.22 42.016 607.716 43.0631 608.706 43.9188C609.697 44.7745 611.397 45.4613 613.807 45.9792L623.197 47.8707C628.241 48.9066 632.001 50.5729 634.478 52.8698C636.955 55.1666 638.194 58.184 638.194 61.9221C638.194 65.3223 637.192 68.3059 635.188 70.873C633.206 73.4401 630.481 75.4442 627.014 76.8854C623.568 78.304 619.594 79.0133 615.09 79.0133C608.222 79.0133 602.75 77.5834 598.674 74.7236C594.621 71.8413 592.246 67.9231 591.548 62.9692L605.7 62.2261C606.128 64.3202 607.164 65.919 608.808 67.0224C610.452 68.1033 612.557 68.6437 615.124 68.6437C617.646 68.6437 619.673 68.1596 621.204 67.1913C622.758 66.2005 623.546 64.9282 623.568 63.3745C623.546 62.0684 622.994 60.9988 621.913 60.1656C620.832 59.31 619.166 58.6569 616.914 58.2066L607.929 56.4164C602.863 55.4031 599.091 53.6466 596.614 51.1471C594.16 48.6476 592.932 45.4613 592.932 41.5882C592.932 38.2555 593.833 35.3844 595.635 32.975C597.459 30.5656 600.014 28.7078 603.302 27.4018C606.612 26.0957 610.485 25.4427 614.921 25.4427C621.474 25.4427 626.631 26.8276 630.391 29.5973C634.174 32.367 636.381 36.1388 637.012 40.9126Z" fill="#00B3DB"/>
<path d="M690.422 40.9126L677.249 41.7233C677.024 40.5974 676.539 39.5841 675.796 38.6833C675.053 37.7601 674.074 37.0283 672.858 36.4878C671.664 35.9249 670.234 35.6434 668.568 35.6434C666.339 35.6434 664.458 36.1163 662.927 37.062C661.396 37.9853 660.63 39.2238 660.63 40.7775C660.63 42.016 661.126 43.0631 662.117 43.9188C663.107 44.7745 664.807 45.4613 667.217 45.9792L676.607 47.8707C681.651 48.9066 685.412 50.5729 687.889 52.8698C690.366 55.1666 691.604 58.184 691.604 61.9221C691.604 65.3223 690.602 68.3059 688.598 70.873C686.616 73.4401 683.892 75.4442 680.424 76.8854C676.978 78.304 673.004 79.0133 668.5 79.0133C661.632 79.0133 656.16 77.5834 652.085 74.7236C648.031 71.8413 645.656 67.9231 644.958 62.9692L659.11 62.2261C659.538 64.3202 660.574 65.919 662.218 67.0224C663.862 68.1033 665.967 68.6437 668.534 68.6437C671.056 68.6437 673.083 68.1596 674.614 67.1913C676.168 66.2005 676.956 64.9282 676.979 63.3745C676.956 62.0684 676.404 60.9988 675.323 60.1656C674.243 59.31 672.576 58.6569 670.324 58.2066L661.34 56.4164C656.273 55.4031 652.501 53.6466 650.024 51.1471C647.57 48.6476 646.343 45.4613 646.343 41.5882C646.343 38.2555 647.243 35.3844 649.045 32.975C650.869 30.5656 653.425 28.7078 656.712 27.4018C660.022 26.0957 663.895 25.4427 668.332 25.4427C674.884 25.4427 680.041 26.8276 683.801 29.5973C687.584 32.367 689.791 36.1388 690.422 40.9126Z" fill="#00B3DB"/>
<path d="M724.106 79.0133C718.859 79.0133 714.322 77.8987 710.494 75.6694C706.688 73.4176 703.75 70.2875 701.678 66.2793C699.606 62.2486 698.571 57.5761 698.571 52.2618C698.571 46.9025 699.606 42.2187 701.678 38.2105C703.75 34.1797 706.688 31.0497 710.494 28.8204C714.322 26.5686 718.859 25.4427 724.106 25.4427C729.353 25.4427 733.879 26.5686 737.685 28.8204C741.513 31.0497 744.462 34.1797 746.534 38.2105C748.606 42.2187 749.642 46.9025 749.642 52.2618C749.642 57.5761 748.606 62.2486 746.534 66.2793C744.462 70.2875 741.513 73.4176 737.685 75.6694C733.879 77.8987 729.353 79.0133 724.106 79.0133ZM724.174 67.8668C726.561 67.8668 728.553 67.1913 730.152 65.8402C731.751 64.4666 732.956 62.5976 733.766 60.2332C734.6 57.8688 735.016 55.1779 735.016 52.1604C735.016 49.143 734.6 46.4521 733.766 44.0877C732.956 41.7233 731.751 39.8543 730.152 38.4807C728.553 37.1071 726.561 36.4203 724.174 36.4203C721.764 36.4203 719.738 37.1071 718.094 38.4807C716.472 39.8543 715.245 41.7233 714.412 44.0877C713.601 46.4521 713.196 49.143 713.196 52.1604C713.196 55.1779 713.601 57.8688 714.412 60.2332C715.245 62.5976 716.472 64.4666 718.094 65.8402C719.738 67.1913 721.764 67.8668 724.174 67.8668Z" fill="#00B3DB"/>
<path d="M758.998 78V26.1182H772.948V35.1705H773.488C774.434 31.9504 776.022 29.5185 778.251 27.8747C780.48 26.2083 783.047 25.3751 785.952 25.3751C786.673 25.3751 787.45 25.4202 788.283 25.5102C789.116 25.6003 789.848 25.7242 790.478 25.8818V38.6496C789.803 38.4469 788.868 38.2668 787.675 38.1091C786.481 37.9515 785.389 37.8727 784.398 37.8727C782.282 37.8727 780.39 38.3343 778.724 39.2576C777.08 40.1583 775.774 41.4193 774.806 43.0406C773.86 44.6619 773.387 46.5309 773.387 48.6476V78H758.998Z" fill="#00B3DB"/>
<path d="M5.0127 74.8589V5.68321H32.3047C37.5289 5.68321 41.9875 6.61771 45.6804 8.48672C49.3959 10.3332 52.2219 12.9566 54.1585 16.3568C56.1176 19.7345 57.0971 23.709 57.0971 28.2801C57.0971 32.8738 56.1063 36.8258 54.1247 40.1359C52.1431 43.4236 49.2721 45.9456 45.5115 47.702C41.7735 49.4584 37.2474 50.3367 31.9331 50.3367H13.6597V38.5822H29.5687C32.361 38.5822 34.6803 38.1994 36.5268 37.4338C38.3733 36.6682 39.7469 35.5197 40.6476 33.9885C41.5709 32.4573 42.0325 30.5545 42.0325 28.2801C42.0325 25.9833 41.5709 24.0467 40.6476 22.4705C39.7469 20.8942 38.362 19.7007 36.493 18.8901C34.6466 18.0569 32.3159 17.6403 29.5012 17.6403H19.6382V74.8589H5.0127ZM42.3703 43.3786L59.5629 74.8589H43.4174L26.5963 43.3786H42.3703Z" fill="#8000FF"/>
<path d="M81.9571 75.8384C78.647 75.8384 75.6971 75.2642 73.1075 74.1158C70.5179 72.9449 68.4688 71.2222 66.9601 68.9479C65.4739 66.651 64.7308 63.7912 64.7308 60.3685C64.7308 57.4862 65.2599 55.0655 66.3183 53.1064C67.3766 51.1473 68.8178 49.571 70.6418 48.3776C72.4657 47.1841 74.5374 46.2834 76.8568 45.6754C79.1987 45.0674 81.6531 44.6396 84.2202 44.3919C87.2376 44.0766 89.6696 43.7839 91.5161 43.5137C93.3626 43.2209 94.7024 42.7931 95.5356 42.2301C96.3687 41.6672 96.7853 40.834 96.7853 39.7306V39.528C96.7853 37.3887 96.1098 35.7337 94.7587 34.5627C93.4301 33.3918 91.5386 32.8063 89.0841 32.8063C86.4945 32.8063 84.4341 33.3805 82.9029 34.5289C81.3717 35.6548 80.3583 37.0735 79.8629 38.7849L66.5547 37.704C67.2303 34.5514 68.5588 31.8268 70.5404 29.5299C72.522 27.2105 75.0778 25.4316 78.2079 24.1931C81.3604 22.9321 85.0083 22.3016 89.1517 22.3016C92.034 22.3016 94.7925 22.6394 97.4271 23.3149C100.084 23.9904 102.437 25.0375 104.487 26.4562C106.558 27.8748 108.191 29.6988 109.384 31.9281C110.578 34.1349 111.174 36.7807 111.174 39.8657V74.8589H97.5284V67.6644H97.1231C96.2899 69.2857 95.1753 70.7156 93.7791 71.9541C92.383 73.17 90.7054 74.1271 88.7463 74.8251C86.7873 75.5007 84.5242 75.8384 81.9571 75.8384ZM86.0779 65.9079C88.1947 65.9079 90.0637 65.4914 91.685 64.6582C93.3063 63.8025 94.5785 62.6541 95.5018 61.2129C96.425 59.7717 96.8867 58.1392 96.8867 56.3152V50.8095C96.4363 51.1023 95.817 51.3725 95.0289 51.6202C94.2633 51.8454 93.3963 52.0593 92.4281 52.262C91.4598 52.4421 90.4915 52.611 89.5232 52.7686C88.5549 52.9037 87.6767 53.0276 86.8886 53.1402C85.1997 53.3879 83.7248 53.7819 82.4638 54.3224C81.2028 54.8628 80.2232 55.5946 79.5252 56.5179C78.8271 57.4186 78.4781 58.5445 78.4781 59.8956C78.4781 61.8547 79.1874 63.3521 80.606 64.388C82.0472 65.4013 83.8712 65.9079 86.0779 65.9079Z" fill="#8000FF"/>
<path d="M149.934 22.9771V33.7858H118.69V22.9771H149.934ZM125.783 10.5471H140.172V58.9161C140.172 60.2446 140.375 61.2805 140.78 62.0236C141.185 62.7441 141.748 63.2508 142.469 63.5435C143.212 63.8363 144.068 63.9826 145.036 63.9826C145.712 63.9826 146.387 63.9263 147.063 63.8138C147.738 63.6786 148.256 63.5773 148.616 63.5098L150.879 74.2171C150.159 74.4423 149.146 74.7013 147.84 74.994C146.533 75.3093 144.946 75.5007 143.077 75.5682C139.609 75.7033 136.569 75.2417 133.957 74.1833C131.368 73.125 129.352 71.4812 127.911 69.2519C126.47 67.0226 125.761 64.2078 125.783 60.8076V10.5471Z" fill="#8000FF"/>
<path d="M182.394 75.8722C177.057 75.8722 172.463 74.7913 168.613 72.6296C164.784 70.4453 161.835 67.3604 159.763 63.3746C157.691 59.3664 156.655 54.6264 156.655 49.1544C156.655 43.8177 157.691 39.1339 159.763 35.1031C161.835 31.0724 164.751 27.9311 168.511 25.6793C172.294 23.4275 176.73 22.3016 181.819 22.3016C185.242 22.3016 188.428 22.8533 191.378 23.9567C194.351 25.0375 196.94 26.6701 199.147 28.8544C201.376 31.0386 203.11 33.7858 204.349 37.096C205.587 40.3836 206.207 44.2342 206.207 48.6478V52.5997H162.397V43.6825H192.662C192.662 41.6109 192.212 39.7757 191.311 38.1769C190.41 36.5781 189.16 35.3283 187.561 34.4276C185.985 33.5044 184.15 33.0427 182.056 33.0427C179.872 33.0427 177.935 33.5494 176.246 34.5627C174.58 35.5535 173.274 36.8933 172.328 38.5822C171.382 40.2485 170.898 42.1063 170.876 44.1554V52.6335C170.876 55.2006 171.348 57.4186 172.294 59.2876C173.262 61.1566 174.625 62.5978 176.381 63.6111C178.138 64.6244 180.221 65.1311 182.63 65.1311C184.229 65.1311 185.693 64.9059 187.021 64.4555C188.35 64.0052 189.487 63.3296 190.433 62.4289C191.378 61.5282 192.099 60.4248 192.594 59.1187L205.903 59.9969C205.227 63.1945 203.842 65.9868 201.748 68.3737C199.676 70.7381 196.997 72.5846 193.709 73.9131C190.444 75.2192 186.672 75.8722 182.394 75.8722Z" fill="#8000FF"/>
<path d="M210.013 8.82432H228.05L247.1 55.3017H247.911L266.961 8.82432H284.998V78H270.812V32.975H270.237L252.336 77.6622H242.675L224.773 32.8061H224.199V78H210.013V8.82432Z" fill="#3C3C3C"/>
<path d="M305.661 97.4557C303.837 97.4557 302.126 97.3093 300.527 97.0166C298.951 96.7463 297.645 96.3973 296.609 95.9695L299.852 85.2283C301.54 85.7462 303.06 86.0277 304.411 86.0727C305.785 86.1178 306.967 85.8025 307.958 85.127C308.971 84.4514 309.793 83.303 310.424 81.6817L311.268 79.4862L292.657 26.1182H307.789L318.53 64.2189H319.071L329.913 26.1182H345.147L324.982 83.607C324.014 86.3993 322.696 88.8312 321.03 90.9029C319.386 92.9971 317.303 94.6071 314.781 95.733C312.259 96.8814 309.219 97.4557 305.661 97.4557Z" fill="#3C3C3C"/>
<path d="M346.013 78H341.013L346.013 83V78ZM346.013 8.82432V3.82432L341.013 8.82432H346.013ZM386.714 11.8305L384.329 16.2251L384.35 16.2363L386.714 11.8305ZM395.159 20.1059L390.773 22.508L390.792 22.5412L395.159 20.1059ZM386.512 52.6333L384.201 48.199L384.191 48.2047L386.512 52.6333ZM355.538 55.5719H350.538L355.538 60.5719V55.5719ZM355.538 43.8513V38.8513L350.538 43.8513H355.538ZM377.527 42.3988L379.871 46.8151L379.891 46.8046L377.527 42.3988ZM381.648 38.3118L377.222 35.9854L377.211 36.0069L381.648 38.3118ZM381.648 26.2533L377.211 28.5583L377.247 28.6273L381.648 26.2533ZM377.527 22.2339L375.205 26.662L375.247 26.6841L377.527 22.2339ZM360.638 20.7814V15.7814L355.638 20.7814H360.638ZM360.638 78V83L365.638 78H360.638ZM407.327 78H402.327L407.327 83V78ZM407.327 26.1182V21.1182L402.327 26.1182H407.327ZM421.277 26.1182H426.277L421.277 21.1182V26.1182ZM421.277 35.1705H416.277L421.277 40.1705V35.1705ZM421.817 35.1705V40.1705L426.615 36.5795L421.817 35.1705ZM426.58 27.8747L429.547 31.8989L429.573 31.8795L426.58 27.8747ZM436.612 25.5102L437.149 20.5392L437.149 20.5392L436.612 25.5102ZM438.807 25.8818H443.807L440.02 21.0311L438.807 25.8818ZM438.807 38.6496L437.37 43.4387L443.807 38.6496H438.807ZM427.053 39.2576L429.455 43.6424L429.476 43.6311L427.053 39.2576ZM423.134 43.0406L418.842 40.4769L418.816 40.5213L423.134 43.0406ZM421.716 78V83L426.716 78H421.716ZM453.661 75.6694L451.114 79.9725L451.144 79.9901L453.661 75.6694ZM444.845 66.2793L440.398 68.5649L440.403 68.5751L444.845 66.2793ZM444.845 38.2105L449.287 40.5062L449.292 40.4961L444.845 38.2105ZM453.661 28.8204L456.188 33.1347L456.196 33.1301L453.661 28.8204ZM480.851 28.8204L478.305 33.1235L478.335 33.1411L480.851 28.8204ZM489.701 38.2105L485.254 40.4961L485.259 40.5062L489.701 38.2105ZM489.701 66.2793L494.143 68.5751L494.148 68.5649L489.701 66.2793ZM480.851 75.6694L483.379 79.9836L483.386 79.979L480.851 75.6694ZM473.319 65.8402L476.546 69.6592L476.577 69.6327L473.319 65.8402ZM476.933 60.2332L472.217 58.5714L472.203 58.6116L476.933 60.2332ZM476.933 44.0877L472.203 45.7093L472.217 45.7495L476.933 44.0877ZM461.26 38.4807L458.054 34.6439L458.028 34.6658L461.26 38.4807ZM457.579 44.0877L452.863 42.426L452.849 42.4661L457.579 44.0877ZM457.579 60.2332L452.849 61.8548L452.863 61.8949L457.579 60.2332ZM461.26 65.8402L458.028 69.6551L458.086 69.7029L461.26 65.8402ZM530.065 26.1182H535.065L530.065 21.1182V26.1182ZM530.065 36.9269V41.9269L535.065 36.9269H530.065ZM498.044 36.9269H493.044L498.044 41.9269V36.9269ZM498.044 26.1182V21.1182L493.044 26.1182H498.044ZM505.373 78H500.373L505.373 83V78ZM507.569 13.0127L503.282 10.4402L503.264 10.469L507.569 13.0127ZM513.649 7.43945L511.476 2.93616L511.476 2.93616L513.649 7.43945ZM528.443 6.08837L527.533 11.0048L527.544 11.0068L528.443 6.08837ZM532.564 7.00035L537.429 8.15572L534.001 2.21122L532.564 7.00035ZM529.997 17.809L528.473 22.5712L534.862 18.9644L529.997 17.809ZM527.903 17.3024L526.948 22.2105L526.973 22.2152L527.903 17.3024ZM520.979 18.5521L524.769 21.8134L524.805 21.7701L520.979 18.5521ZM519.729 78V83L524.729 78H519.729ZM546.86 75.7707L544.382 80.1135L544.413 80.1306L546.86 75.7707ZM538.011 66.5158L533.569 68.8115L533.574 68.8217L538.011 66.5158ZM538.011 38.2442L533.564 35.9586L533.564 35.9586L538.011 38.2442ZM546.759 28.8204L544.202 24.5239L544.19 24.5307L546.759 28.8204ZM569.626 27.0978L567.874 31.7809L567.917 31.7967L569.626 27.0978ZM577.395 31.9955L573.878 35.5491L573.896 35.5669L577.395 31.9955ZM582.597 40.2371L577.914 41.9892L577.918 41.9997L582.597 40.2371ZM584.454 55.7408V60.7408L589.454 55.7408H584.454ZM540.645 55.7408H535.645L540.645 60.7408V55.7408ZM540.645 46.8237V41.8237L535.645 46.8237H540.645ZM570.91 46.8237V51.8237L575.91 46.8237H570.91ZM569.559 41.318L565.202 43.7722L565.202 43.7722L569.559 41.318ZM565.809 37.5687L563.282 41.8831L563.355 41.9249L565.809 37.5687ZM554.494 37.7038L557.049 42.0015L557.066 41.9913L554.494 37.7038ZM550.576 41.7233L554.924 44.1913L554.938 44.1663L550.576 41.7233ZM549.123 47.2965L544.124 47.2416L544.123 47.2965H549.123ZM550.542 62.4287L546.081 64.6863L546.102 64.7287L550.542 62.4287ZM565.269 67.5966L563.664 62.8613L563.664 62.8613L565.269 67.5966ZM568.68 65.57L565.232 61.9493L565.232 61.9493L568.68 65.57ZM570.842 62.2598L571.171 57.2707L566.167 60.4866L570.842 62.2598ZM584.15 63.138L589.042 64.1716L584.48 58.1489L584.15 63.138ZM579.996 71.5148L576.237 68.2172L576.235 68.2197L579.996 71.5148ZM571.957 77.0542L573.814 81.6966L573.83 81.69L571.957 77.0542ZM637.012 40.9126L637.319 45.9032L641.969 40.258L637.012 40.9126ZM623.839 41.7233L618.936 42.7039L624.146 46.7139L623.839 41.7233ZM622.386 38.6833L618.491 41.8184L618.529 41.8653L622.386 38.6833ZM619.448 36.4878L617.314 41.01L617.417 41.0569L619.448 36.4878ZM609.517 37.062L612.099 41.3439L612.144 41.316L609.517 37.062ZM608.706 43.9188L605.438 47.7029L605.438 47.7029L608.706 43.9188ZM613.807 45.9792L612.756 50.8676L612.819 50.8808L613.807 45.9792ZM623.197 47.8707L624.203 42.973L624.184 42.9692L623.197 47.8707ZM634.478 52.8698L631.079 56.5361L631.079 56.5361L634.478 52.8698ZM635.188 70.873L631.247 67.7961L631.23 67.8178L635.188 70.873ZM627.014 76.8854L628.917 81.5087L628.932 81.5025L627.014 76.8854ZM598.674 74.7236L595.777 78.7984L595.803 78.8166L598.674 74.7236ZM591.548 62.9692L591.285 57.976L586.596 63.6668L591.548 62.9692ZM605.7 62.2261L610.599 61.2252L605.438 57.2329L605.7 62.2261ZM608.808 67.0224L606.021 71.1739L606.061 71.2002L608.808 67.0224ZM621.204 67.1913L623.876 71.4173L623.892 71.4071L621.204 67.1913ZM623.568 63.3745L628.568 63.4469L628.568 63.2883L623.568 63.3745ZM621.913 60.1656L618.81 64.0859L618.861 64.1257L621.913 60.1656ZM616.914 58.2066L617.895 53.3037L617.891 53.303L616.914 58.2066ZM607.929 56.4164L606.949 61.3193L606.952 61.32L607.929 56.4164ZM596.614 51.1471L593.047 54.6504L593.063 54.6666L596.614 51.1471ZM595.635 32.975L591.648 29.9572L591.63 29.981L595.635 32.975ZM603.302 27.4018L601.467 22.7507L601.456 22.755L603.302 27.4018ZM630.391 29.5973L627.426 33.6232L627.438 33.6316L630.391 29.5973ZM690.422 40.9126L690.729 45.9032L695.379 40.258L690.422 40.9126ZM677.249 41.7233L672.346 42.7039L677.556 46.7139L677.249 41.7233ZM675.796 38.6833L671.901 41.8184L671.939 41.8653L675.796 38.6833ZM672.858 36.4878L670.725 41.01L670.827 41.0569L672.858 36.4878ZM662.927 37.062L665.509 41.3439L665.555 41.316L662.927 37.062ZM662.117 43.9188L658.848 47.7029L658.848 47.7029L662.117 43.9188ZM667.217 45.9792L666.166 50.8676L666.229 50.8808L667.217 45.9792ZM676.607 47.8707L677.613 42.973L677.594 42.9692L676.607 47.8707ZM687.889 52.8698L684.489 56.5361L684.489 56.5361L687.889 52.8698ZM688.598 70.873L684.657 67.7961L684.64 67.8178L688.598 70.873ZM680.424 76.8854L682.328 81.5087L682.343 81.5025L680.424 76.8854ZM652.085 74.7236L649.187 78.7984L649.213 78.8166L652.085 74.7236ZM644.958 62.9692L644.696 57.976L640.007 63.6668L644.958 62.9692ZM659.11 62.2261L664.009 61.2252L658.848 57.2329L659.11 62.2261ZM662.218 67.0224L659.431 71.1739L659.471 71.2002L662.218 67.0224ZM674.614 67.1913L677.286 71.4173L677.302 71.4071L674.614 67.1913ZM676.979 63.3745L681.978 63.4469L681.978 63.2883L676.979 63.3745ZM675.323 60.1656L672.22 64.0859L672.271 64.1257L675.323 60.1656ZM670.324 58.2066L671.305 53.3037L671.301 53.303L670.324 58.2066ZM661.34 56.4164L660.359 61.3193L660.363 61.32L661.34 56.4164ZM650.024 51.1471L646.457 54.6504L646.473 54.6666L650.024 51.1471ZM649.045 32.975L645.058 29.9572L645.04 29.981L649.045 32.975ZM656.712 27.4018L654.877 22.7507L654.866 22.755L656.712 27.4018ZM683.801 29.5973L680.836 33.6232L680.848 33.6316L683.801 29.5973ZM710.494 75.6694L707.948 79.9725L707.978 79.9901L710.494 75.6694ZM701.678 66.2793L697.231 68.5649L697.236 68.5751L701.678 66.2793ZM701.678 38.2105L706.12 40.5062L706.125 40.4961L701.678 38.2105ZM710.494 28.8204L713.021 33.1347L713.029 33.1301L710.494 28.8204ZM737.685 28.8204L735.138 33.1235L735.168 33.1411L737.685 28.8204ZM746.534 38.2105L742.087 40.4961L742.092 40.5062L746.534 38.2105ZM746.534 66.2793L750.976 68.5751L750.981 68.5649L746.534 66.2793ZM737.685 75.6694L740.212 79.9836L740.22 79.979L737.685 75.6694ZM730.152 65.8402L733.38 69.6592L733.411 69.6327L730.152 65.8402ZM733.766 60.2332L729.051 58.5714L729.037 58.6116L733.766 60.2332ZM733.766 44.0877L729.037 45.7093L729.051 45.7495L733.766 44.0877ZM718.094 38.4807L714.888 34.6439L714.862 34.6658L718.094 38.4807ZM714.412 44.0877L709.696 42.426L709.682 42.4661L714.412 44.0877ZM714.412 60.2332L709.682 61.8548L709.696 61.8949L714.412 60.2332ZM718.094 65.8402L714.862 69.6551L714.919 69.7029L718.094 65.8402ZM758.998 78H753.998L758.998 83V78ZM758.998 26.1182V21.1182L753.998 26.1182H758.998ZM772.948 26.1182H777.948L772.948 21.1182V26.1182ZM772.948 35.1705H767.948L772.948 40.1705V35.1705ZM773.488 35.1705V40.1705L778.286 36.5795L773.488 35.1705ZM778.251 27.8747L781.218 31.8989L781.244 31.8795L778.251 27.8747ZM788.283 25.5102L788.82 20.5392L788.82 20.5392L788.283 25.5102ZM790.478 25.8818H795.478L791.691 21.0311L790.478 25.8818ZM790.478 38.6496L789.042 43.4387L795.478 38.6496H790.478ZM778.724 39.2576L781.126 43.6424L781.147 43.6311L778.724 39.2576ZM774.806 43.0406L770.513 40.4769L770.487 40.5213L774.806 43.0406ZM773.387 78V83L778.387 78H773.387ZM5.0127 74.8589H0.0126953L5.0127 79.8589V74.8589ZM5.0127 5.68321V0.68321L0.0126953 5.68321H5.0127ZM45.6804 8.48672L43.4226 12.9479L43.4552 12.9643L45.6804 8.48672ZM54.1585 16.3568L49.8138 18.8313L49.8334 18.8654L54.1585 16.3568ZM54.1247 40.1359L58.407 42.717L58.4148 42.7041L54.1247 40.1359ZM45.5115 47.702L43.3956 43.1718L43.3852 43.1767L45.5115 47.702ZM13.6597 50.3367H8.65966L13.6597 55.3367V50.3367ZM13.6597 38.5822V33.5822L8.65966 38.5822H13.6597ZM36.5268 37.4338L38.4419 42.0525L38.4419 42.0525L36.5268 37.4338ZM40.6476 33.9885L36.3657 31.4068L36.338 31.4534L40.6476 33.9885ZM40.6476 22.4705L36.3064 24.9512L36.3332 24.9975L40.6476 22.4705ZM36.493 18.8901L34.4366 23.4476L34.5035 23.4772L36.493 18.8901ZM19.6382 17.6403V12.6403L14.6382 17.6403H19.6382ZM19.6382 74.8589V79.8589L24.6382 74.8589H19.6382ZM42.3703 43.3786L46.7585 40.982L42.3703 38.3786V43.3786ZM59.5629 74.8589V79.8589L63.9511 72.4623L59.5629 74.8589ZM43.4174 74.8589L39.0074 77.2153L43.4174 79.8589V74.8589ZM26.5963 43.3786V38.3786L22.1864 45.7349L26.5963 43.3786ZM73.1075 74.1158L71.0474 78.6717L71.0805 78.6865L73.1075 74.1158ZM66.9601 68.9479L62.7622 71.6641L62.7935 71.7119L66.9601 68.9479ZM66.3183 53.1064L61.9192 50.7299L61.9192 50.7299L66.3183 53.1064ZM70.6418 48.3776L67.9041 44.1936L67.9041 44.1936L70.6418 48.3776ZM76.8568 45.6754L75.6003 40.8358L75.5889 40.8388L76.8568 45.6754ZM84.2202 44.3919L84.7004 49.3688L84.7398 49.3648L84.2202 44.3919ZM91.5161 43.5137L92.2401 48.461L92.299 48.452L91.5161 43.5137ZM95.5356 42.2301L92.7363 38.0872L92.7363 38.0872L95.5356 42.2301ZM94.7587 34.5627L91.4527 38.3137L91.484 38.3412L94.7587 34.5627ZM82.9029 34.5289L85.8648 38.5572L85.9029 38.5289L82.9029 34.5289ZM79.8629 38.7849L79.4582 43.7684L84.6658 40.1751L79.8629 38.7849ZM66.5547 37.704L61.6657 36.6563L66.15 42.6876L66.5547 37.704ZM70.5404 29.5299L74.3262 32.7961L74.3419 32.7778L70.5404 29.5299ZM78.2079 24.1931L80.0475 28.8424L80.0648 28.8355L78.2079 24.1931ZM97.4271 23.3149L96.1852 28.1582L96.1951 28.1607L97.4271 23.3149ZM104.487 26.4562L101.64 30.5671L101.661 30.5816L104.487 26.4562ZM109.384 31.9281L104.976 34.288L104.986 34.3066L109.384 31.9281ZM111.174 74.8589V79.8589L116.174 74.8589H111.174ZM97.5284 74.8589H92.5284L97.5284 79.8589V74.8589ZM97.5284 67.6644H102.528L97.5284 62.6644V67.6644ZM97.1231 67.6644V62.6644L92.6759 65.379L97.1231 67.6644ZM93.7791 71.9541L97.063 75.7245L97.0972 75.6944L93.7791 71.9541ZM88.7463 74.8251L90.3763 79.552L90.4246 79.5351L88.7463 74.8251ZM91.685 64.6582L93.9703 69.1053L94.0188 69.0801L91.685 64.6582ZM95.5018 61.2129L91.2916 58.5158L91.2916 58.5158L95.5018 61.2129ZM96.8867 50.8095H101.887L94.1617 46.6173L96.8867 50.8095ZM95.0289 51.6202L96.4397 56.417L96.528 56.3902L95.0289 51.6202ZM92.4281 52.262L93.3426 57.1776L93.4524 57.1559L92.4281 52.262ZM89.5232 52.7686L90.2142 57.7206L90.3266 57.7036L89.5232 52.7686ZM86.8886 53.1402L86.1815 48.1904L86.163 48.1931L86.8886 53.1402ZM82.4638 54.3224L84.4334 58.9181L84.4334 58.9181L82.4638 54.3224ZM79.5252 56.5179L83.4772 59.5807L83.5135 59.5334L79.5252 56.5179ZM80.606 64.388L77.6576 68.4261L77.7302 68.4781L80.606 64.388ZM149.934 22.9771H154.934L149.934 17.9771V22.9771ZM149.934 33.7858V38.7858L154.934 33.7858H149.934ZM118.69 33.7858H113.69L118.69 38.7858V33.7858ZM118.69 22.9771V17.9771L113.69 22.9771H118.69ZM125.783 10.5471V5.54713L120.783 10.5471H125.783ZM140.172 10.5471H145.172L140.172 5.54713V10.5471ZM140.78 62.0236L136.391 64.4178L136.422 64.4749L140.78 62.0236ZM142.469 63.5435L140.587 68.1759L140.636 68.1956L142.469 63.5435ZM147.063 63.8138L147.885 68.7457L148.043 68.7167L147.063 63.8138ZM148.616 63.5098L153.508 62.4758L147.695 58.5954L148.616 63.5098ZM150.879 74.2171L152.371 78.9895L155.771 73.1832L150.879 74.2171ZM147.84 74.994L146.746 70.1151L146.666 70.1336L147.84 74.994ZM143.077 75.5682L142.896 70.5715L142.882 70.572L143.077 75.5682ZM133.957 74.1833L132.066 78.8117L132.08 78.8174L133.957 74.1833ZM127.911 69.2519L132.11 66.5374L132.11 66.5374L127.911 69.2519ZM125.783 60.8076L130.783 60.8407L130.783 60.8076H125.783ZM168.613 72.6296L166.135 76.9724L166.165 76.9895L168.613 72.6296ZM159.763 63.3746L155.321 65.6704L155.326 65.6806L159.763 63.3746ZM159.763 35.1031L155.316 32.8175L155.316 32.8175L159.763 35.1031ZM168.511 25.6793L165.954 21.3828L165.942 21.3896L168.511 25.6793ZM191.378 23.9567L189.627 28.6398L189.67 28.6556L191.378 23.9567ZM199.147 28.8544L195.63 32.408L195.648 32.4258L199.147 28.8544ZM204.349 37.096L199.666 38.8481L199.67 38.8586L204.349 37.096ZM206.207 52.5997V57.5997L211.207 52.5997H206.207ZM162.397 52.5997H157.397L162.397 57.5997V52.5997ZM162.397 43.6825V38.6825L157.397 43.6825H162.397ZM192.662 43.6825V48.6825L197.662 43.6825H192.662ZM191.311 38.1769L186.955 40.6311L186.955 40.6311L191.311 38.1769ZM187.561 34.4276L185.034 38.742L185.107 38.7838L187.561 34.4276ZM176.246 34.5627L178.802 38.8604L178.819 38.8502L176.246 34.5627ZM172.328 38.5822L176.676 41.0502L176.691 41.0252L172.328 38.5822ZM170.876 44.1554L165.876 44.1005L165.876 44.1554H170.876ZM172.294 59.2876L167.833 61.5452L167.855 61.5876L172.294 59.2876ZM187.021 64.4555L185.416 59.7202L185.416 59.7202L187.021 64.4555ZM190.433 62.4289L186.984 58.8082L186.984 58.8082L190.433 62.4289ZM192.594 59.1187L192.924 54.1296L187.919 57.3455L192.594 59.1187ZM205.903 59.9969L210.795 61.0305L206.232 55.0078L205.903 59.9969ZM201.748 68.3737L197.989 65.0761L197.987 65.0786L201.748 68.3737ZM193.709 73.9131L195.566 78.5555L195.582 78.5489L193.709 73.9131ZM210.013 8.82432V3.82432L205.013 8.82432H210.013ZM228.05 8.82432L232.676 6.92801L228.05 3.82432V8.82432ZM247.1 55.3017L242.474 57.198L247.1 60.3017V55.3017ZM247.911 55.3017V60.3017L252.537 57.198L247.911 55.3017ZM266.961 8.82432V3.82432L262.335 6.92801L266.961 8.82432ZM284.998 8.82432H289.998L284.998 3.82432V8.82432ZM284.998 78V83L289.998 78H284.998ZM270.812 78H265.812L270.812 83V78ZM270.812 32.975H275.812L270.812 27.975V32.975ZM270.237 32.975V27.975L265.596 31.1156L270.237 32.975ZM252.336 77.6622V82.6622L256.977 79.5216L252.336 77.6622ZM242.675 77.6622L238.031 79.5156L242.675 82.6622V77.6622ZM224.773 32.8061L229.417 30.9528L224.773 27.8061V32.8061ZM224.199 32.8061V27.8061L219.199 32.8061H224.199ZM224.199 78V83L229.199 78H224.199ZM210.013 78H205.013L210.013 83V78ZM300.527 97.0166L301.428 92.0983L301.372 92.0884L300.527 97.0166ZM296.609 95.9695L291.822 94.5244L294.7 100.591L296.609 95.9695ZM299.852 85.2283L301.318 80.448L295.065 83.7833L299.852 85.2283ZM304.411 86.0727L304.245 91.07L304.248 91.0701L304.411 86.0727ZM307.958 85.127L305.185 80.9667L305.141 80.9958L307.958 85.127ZM310.424 81.6817L315.084 83.4939L315.091 83.4766L310.424 81.6817ZM311.268 79.4862L315.935 81.2811L315.989 77.8398L311.268 79.4862ZM292.657 26.1182V21.1182L287.936 27.7647L292.657 26.1182ZM307.789 26.1182L312.602 24.7615L307.789 21.1182V26.1182ZM318.53 64.2189L313.718 65.5756L318.53 69.2189V64.2189ZM319.071 64.2189V69.2189L323.88 65.5874L319.071 64.2189ZM329.913 26.1182V21.1182L325.104 24.7497L329.913 26.1182ZM345.147 26.1182L349.865 27.7732L345.147 21.1182V26.1182ZM324.982 83.607L320.264 81.952L320.258 81.9688L324.982 83.607ZM321.03 90.9029L317.134 87.7691L317.097 87.8156L321.03 90.9029ZM314.781 95.733L312.743 91.1673L312.709 91.1826L314.781 95.733ZM351.013 78V8.82432H341.013V78H351.013ZM346.013 13.8243H373.305V3.82432H346.013V13.8243ZM373.305 13.8243C377.922 13.8243 381.529 14.7053 384.329 16.2251L389.099 7.4359C384.514 4.9475 379.181 3.82432 373.305 3.82432V13.8243ZM384.35 16.2363C387.225 17.7791 389.321 19.8571 390.773 22.508L399.544 17.7038C397.123 13.284 393.589 9.84511 389.078 7.42469L384.35 16.2363ZM390.792 22.5412C392.28 25.2092 393.097 28.4018 393.097 32.2657H403.097C403.097 26.9422 401.956 22.0282 399.525 17.6706L390.792 22.5412ZM393.097 32.2657C393.097 36.12 392.273 39.3048 390.77 41.9689L399.48 46.8821C401.94 42.5205 403.097 37.5987 403.097 32.2657H393.097ZM390.77 41.9689C389.289 44.594 387.15 46.6631 384.201 48.199L388.822 57.0677C393.395 54.6854 396.997 51.2826 399.48 46.8821L390.77 41.9689ZM384.191 48.2047C381.33 49.7036 377.644 50.5719 372.933 50.5719V60.5719C378.851 60.5719 384.217 59.4812 388.833 57.062L384.191 48.2047ZM372.933 50.5719H355.538V60.5719H372.933V50.5719ZM360.538 55.5719V43.8513H350.538V55.5719H360.538ZM355.538 48.8513H370.569V38.8513H355.538V48.8513ZM370.569 48.8513C373.918 48.8513 377.111 48.2804 379.871 46.8151L375.182 37.9826C374.295 38.4539 372.849 38.8513 370.569 38.8513V48.8513ZM379.891 46.8046C382.556 45.3744 384.686 43.3093 386.085 40.6167L377.211 36.0069C376.808 36.7821 376.19 37.4417 375.163 37.993L379.891 46.8046ZM386.073 40.6382C387.426 38.0656 388.033 35.2312 388.033 32.2657H378.033C378.033 33.8488 377.716 35.0451 377.222 35.9854L386.073 40.6382ZM388.033 32.2657C388.033 29.2903 387.431 26.4418 386.048 23.8794L377.247 28.6273C377.711 29.4876 378.033 30.6474 378.033 32.2657H388.033ZM386.085 23.9484C384.675 21.2341 382.517 19.172 379.806 17.7836L375.247 26.6841C376.23 27.1872 376.819 27.8048 377.211 28.5583L386.085 23.9484ZM379.849 17.8058C377.075 16.351 373.869 15.7814 370.501 15.7814V25.7814C372.808 25.7814 374.286 26.1801 375.205 26.662L379.849 17.8058ZM370.501 15.7814H360.638V25.7814H370.501V15.7814ZM355.638 20.7814V78H365.638V20.7814H355.638ZM360.638 73H346.013V83H360.638V73ZM412.327 78V26.1182H402.327V78H412.327ZM407.327 31.1182H421.277V21.1182H407.327V31.1182ZM416.277 26.1182V35.1705H426.277V26.1182H416.277ZM421.277 40.1705H421.817V30.1705H421.277V40.1705ZM426.615 36.5795C427.319 34.1799 428.371 32.7663 429.547 31.8989L423.612 23.8504C420.33 26.2707 418.207 29.721 417.02 33.7615L426.615 36.5795ZM429.573 31.8795C430.899 30.8888 432.405 30.3751 434.281 30.3751V20.3751C430.347 20.3751 426.719 21.5278 423.586 23.8698L429.573 31.8795ZM434.281 30.3751C434.796 30.3751 435.392 30.4075 436.074 30.4813L437.149 20.5392C436.165 20.4329 435.207 20.3751 434.281 20.3751V30.3751ZM436.074 30.4813C436.741 30.5534 437.239 30.6436 437.594 30.7325L440.02 21.0311C439.114 20.8047 438.148 20.6473 437.149 20.5392L436.074 30.4813ZM433.807 25.8818V38.6496H443.807V25.8818H433.807ZM440.244 33.8604C439.196 33.546 437.959 33.324 436.658 33.1522L435.349 43.0661C436.435 43.2095 437.067 43.3478 437.37 43.4387L440.244 33.8604ZM436.658 33.1522C435.292 32.9717 433.977 32.8727 432.727 32.8727V42.8727C433.458 42.8727 434.328 42.9313 435.349 43.0661L436.658 33.1522ZM432.727 32.8727C429.859 32.8727 427.117 33.5057 424.629 34.884L429.476 43.6311C430.321 43.163 431.362 42.8727 432.727 42.8727V32.8727ZM424.65 34.8727C422.219 36.2047 420.263 38.0971 418.842 40.4769L427.427 45.6043C427.942 44.7415 428.599 44.1119 429.455 43.6424L424.65 34.8727ZM418.816 40.5213C417.369 43.0011 416.716 45.7611 416.716 48.6476H426.716C426.716 47.3008 427.008 46.3227 427.453 45.56L418.816 40.5213ZM416.716 48.6476V78H426.716V48.6476H416.716ZM421.716 73H407.327V83H421.716V73ZM467.273 74.0133C462.746 74.0133 459.111 73.0572 456.177 71.3486L451.144 79.9901C455.867 82.7401 461.306 84.0133 467.273 84.0133V74.0133ZM456.207 71.3663C453.226 69.6026 450.937 67.176 449.287 63.9836L440.403 68.5751C442.896 73.3991 446.484 77.2325 451.114 79.9725L456.207 71.3663ZM449.292 63.9937C447.641 60.7826 446.737 56.9181 446.737 52.2618H436.737C436.737 58.234 437.905 63.7145 440.398 68.5649L449.292 63.9937ZM446.737 52.2618C446.737 47.552 447.645 43.6831 449.287 40.5062L440.403 35.9147C437.902 40.7543 436.737 46.2529 436.737 52.2618H446.737ZM449.292 40.4961C450.942 37.2856 453.225 34.8701 456.188 33.1347L451.133 24.5062C446.485 27.2294 442.891 31.0738 440.398 35.9249L449.292 40.4961ZM456.196 33.1301C459.126 31.4063 462.755 30.4427 467.273 30.4427V20.4427C461.297 20.4427 455.851 21.7309 451.126 24.5107L456.196 33.1301ZM467.273 30.4427C471.792 30.4427 475.403 31.4066 478.305 33.1235L483.397 24.5173C478.688 21.7306 473.247 20.4427 467.273 20.4427V30.4427ZM478.335 33.1411C481.319 34.8787 483.608 37.2934 485.254 40.4961L494.148 35.9249C491.651 31.0661 488.04 27.2208 483.367 24.4997L478.335 33.1411ZM485.259 40.5062C486.901 43.683 487.808 47.552 487.808 52.2618H497.808C497.808 46.2529 496.644 40.7544 494.143 35.9147L485.259 40.5062ZM487.808 52.2618C487.808 56.9181 486.904 60.7826 485.254 63.9937L494.148 68.5649C496.641 63.7145 497.808 58.234 497.808 52.2618H487.808ZM485.259 63.9836C483.613 67.1682 481.318 69.594 478.316 71.3597L483.386 79.979C488.041 77.2412 491.645 73.4069 494.143 68.5751L485.259 63.9836ZM478.324 71.3551C475.419 73.0569 471.8 74.0133 467.273 74.0133V84.0133C473.239 84.0133 478.672 82.7404 483.379 79.9836L478.324 71.3551ZM467.34 72.8668C470.733 72.8668 473.919 71.8792 476.546 69.6592L470.092 62.0212C469.521 62.5034 468.722 62.8668 467.34 62.8668V72.8668ZM476.577 69.6327C478.967 67.5797 480.618 64.9035 481.663 61.8548L472.203 58.6116C471.627 60.2917 470.869 61.3535 470.061 62.0477L476.577 69.6327ZM481.649 61.8949C482.704 58.9006 483.183 55.6321 483.183 52.1604H473.183C473.183 54.7237 472.828 56.837 472.217 58.5714L481.649 61.8949ZM483.183 52.1604C483.183 48.6888 482.704 45.4203 481.649 42.426L472.217 45.7495C472.828 47.4839 473.183 49.5972 473.183 52.1604H483.183ZM481.663 42.4661C480.618 39.4174 478.967 36.7412 476.577 34.6882L470.061 42.2732C470.869 42.9674 471.627 44.0292 472.203 45.7093L481.663 42.4661ZM476.577 34.6882C473.951 32.4322 470.754 31.4203 467.34 31.4203V41.4203C468.7 41.4203 469.489 41.782 470.061 42.2732L476.577 34.6882ZM467.34 31.4203C463.914 31.4203 460.71 32.4248 458.054 34.6439L464.467 42.3175C465.099 41.7894 465.947 41.4203 467.34 41.4203V31.4203ZM458.028 34.6658C455.617 36.7084 453.938 39.3764 452.863 42.426L462.295 45.7495C462.886 44.0702 463.661 43.0002 464.493 42.2956L458.028 34.6658ZM452.849 42.4661C451.827 45.4477 451.363 48.7019 451.363 52.1604H461.363C461.363 49.5841 461.709 47.4565 462.308 45.7093L452.849 42.4661ZM451.363 52.1604C451.363 55.619 451.827 58.8732 452.849 61.8548L462.308 58.6116C461.709 56.8644 461.363 54.7368 461.363 52.1604H451.363ZM452.863 61.8949C453.938 64.9445 455.617 67.6125 458.028 69.6551L464.493 62.0253C463.661 61.3207 462.886 60.2507 462.295 58.5714L452.863 61.8949ZM458.086 69.7029C460.742 71.8862 463.935 72.8668 467.34 72.8668V62.8668C465.927 62.8668 465.067 62.4964 464.435 61.9775L458.086 69.7029ZM525.065 26.1182V36.9269H535.065V26.1182H525.065ZM530.065 31.9269H498.044V41.9269H530.065V31.9269ZM503.044 36.9269V26.1182H493.044V36.9269H503.044ZM498.044 31.1182H530.065V21.1182H498.044V31.1182ZM510.373 78V22.369H500.373V78H510.373ZM510.373 22.369C510.373 19.2352 510.984 17.061 511.874 15.5563L503.264 10.469C501.226 13.9184 500.373 17.9816 500.373 22.369H510.373ZM511.856 15.5852C512.848 13.9322 514.145 12.7516 515.822 11.9427L511.476 2.93616C508.019 4.60434 505.262 7.13917 503.282 10.4402L511.856 15.5852ZM515.822 11.9427C517.619 11.0757 519.775 10.5817 522.397 10.5817V0.581703C518.489 0.581703 514.813 1.32621 511.476 2.93616L515.822 11.9427ZM522.397 10.5817C524.354 10.5817 526.059 10.7319 527.533 11.0048L529.354 1.17196C527.179 0.769297 524.854 0.581703 522.397 0.581703V10.5817ZM527.544 11.0068C529.35 11.3371 530.501 11.6016 531.127 11.7895L534.001 2.21122C532.826 1.85864 531.23 1.51514 529.343 1.16998L527.544 11.0068ZM527.699 5.84498L525.132 16.6537L534.862 18.9644L537.429 8.15572L527.699 5.84498ZM531.521 13.0469C530.7 12.7841 529.788 12.5704 528.832 12.3895L526.973 22.2152C527.684 22.3497 528.169 22.4737 528.473 22.5712L531.521 13.0469ZM528.857 12.3943C527.721 12.1734 526.568 12.066 525.403 12.066V22.066C525.95 22.066 526.463 22.1161 526.948 22.2105L528.857 12.3943ZM525.403 12.066C522.729 12.066 519.399 12.6613 517.152 15.3342L524.805 21.7701C524.673 21.9277 524.537 22.0372 524.431 22.1058C524.328 22.1716 524.274 22.1866 524.302 22.1773C524.331 22.1674 524.43 22.1381 524.619 22.1119C524.808 22.0859 525.066 22.066 525.403 22.066V12.066ZM517.188 15.2909C515.325 17.4568 514.729 20.1346 514.729 22.6392H524.729C524.729 22.1459 524.788 21.8743 524.823 21.7622C524.852 21.6664 524.853 21.7154 524.769 21.8134L517.188 15.2909ZM514.729 22.6392V78H524.729V22.6392H514.729ZM519.729 73H505.373V83H519.729V73ZM560.641 74.0133C555.984 74.0133 552.27 73.0735 549.308 71.4108L544.413 80.1306C549.152 82.7914 554.625 84.0133 560.641 84.0133V74.0133ZM549.338 71.4279C546.362 69.7298 544.084 67.3597 542.447 64.2098L533.574 68.8217C536.08 73.6432 539.702 77.4431 544.382 80.1135L549.338 71.4279ZM542.452 64.22C540.818 61.0571 539.903 57.1367 539.903 52.2956H529.903C529.903 58.3982 531.06 63.958 533.569 68.8115L542.452 64.22ZM539.903 52.2956C539.903 47.6129 540.809 43.7381 542.458 40.5299L533.564 35.9586C531.069 40.8119 529.903 46.3046 529.903 52.2956H539.903ZM542.458 40.5299C544.118 37.2998 546.396 34.8655 549.328 33.1101L544.19 24.5307C539.601 27.2789 536.047 31.1272 533.564 35.9586L542.458 40.5299ZM549.316 33.1169C552.212 31.3934 555.736 30.4427 560.067 30.4427V20.4427C554.22 20.4427 548.872 21.7438 544.202 24.5239L549.316 33.1169ZM560.067 30.4427C562.944 30.4427 565.532 30.9045 567.874 31.7809L571.378 22.4147C567.821 21.0842 564.036 20.4427 560.067 20.4427V30.4427ZM567.917 31.7967C570.224 32.6356 572.194 33.8824 573.878 35.5491L580.912 28.4418C578.183 25.74 574.973 23.7217 571.335 22.3988L567.917 31.7967ZM573.896 35.5669C575.537 37.1748 576.898 39.2738 577.914 41.9892L587.28 38.485C585.819 34.5801 583.712 31.1847 580.894 28.424L573.896 35.5669ZM577.918 41.9997C578.897 44.6003 579.454 47.8293 579.454 51.7889H589.454C589.454 46.9214 588.773 42.4492 587.276 38.4745L577.918 41.9997ZM579.454 51.7889V55.7408H589.454V51.7889H579.454ZM584.454 50.7408H540.645V60.7408H584.454V50.7408ZM545.645 55.7408V46.8237H535.645V55.7408H545.645ZM540.645 51.8237H570.91V41.8237H540.645V51.8237ZM575.91 46.8237C575.91 44.005 575.29 41.3042 573.915 38.8638L565.202 43.7722C565.629 44.5293 565.91 45.499 565.91 46.8237H575.91ZM573.915 38.8638C572.566 36.4691 570.658 34.5616 568.264 33.2125L563.355 41.9249C564.158 42.3773 564.75 42.9692 565.202 43.7722L573.915 38.8638ZM568.336 33.2543C565.887 31.8197 563.154 31.1838 560.304 31.1838V41.1838C561.642 41.1838 562.579 41.4712 563.282 41.8831L568.336 33.2543ZM560.304 31.1838C557.315 31.1838 554.47 31.8871 551.921 33.4163L557.066 41.9913C557.895 41.4939 558.924 41.1838 560.304 41.1838V31.1838ZM551.939 33.4061C549.519 34.845 547.589 36.824 546.213 39.2803L554.938 44.1663C555.454 43.2449 556.137 42.5442 557.049 42.0015L551.939 33.4061ZM546.227 39.2553C544.835 41.7089 544.155 44.4066 544.124 47.2416L554.123 47.3515C554.137 46.0882 554.425 45.0704 554.924 44.1913L546.227 39.2553ZM544.123 47.2965V55.7746H554.123V47.2965H544.123ZM544.123 55.7746C544.123 58.952 544.71 61.9771 546.081 64.6863L555.003 60.1712C554.483 59.1424 554.123 57.7314 554.123 55.7746H544.123ZM546.102 64.7287C547.493 67.4123 549.514 69.5734 552.13 71.0831L557.128 62.4213C556.232 61.9043 555.528 61.1832 554.982 60.1287L546.102 64.7287ZM552.13 71.0831C554.778 72.6108 557.757 73.2722 560.878 73.2722V63.2722C559.18 63.2722 557.993 62.9203 557.128 62.4213L552.13 71.0831ZM560.878 73.2722C562.947 73.2722 564.962 72.9802 566.874 72.332L563.664 62.8613C562.919 63.1138 562.006 63.2722 560.878 63.2722V73.2722ZM566.874 72.332C568.839 71.6659 570.619 70.6289 572.129 69.1907L565.232 61.9493C564.851 62.3126 564.356 62.6266 563.664 62.8613L566.874 72.332ZM572.129 69.1907C573.654 67.7383 574.775 65.9894 575.517 64.0331L566.167 60.4866C565.918 61.1424 565.599 61.6002 565.232 61.9493L572.129 69.1907ZM570.513 67.249L583.821 68.1272L584.48 58.1489L571.171 57.2707L570.513 67.249ZM579.258 62.1045C578.755 64.4882 577.749 66.4946 576.237 68.2172L583.754 74.8123C586.431 71.7611 588.195 68.183 589.042 64.1716L579.258 62.1045ZM576.235 68.2197C574.742 69.9242 572.739 71.3451 570.083 72.4185L573.83 81.69C577.749 80.1062 581.106 77.8342 583.756 74.8098L576.235 68.2197ZM570.1 72.4119C567.538 73.4365 564.418 74.0133 560.641 74.0133V84.0133C565.422 84.0133 569.845 83.284 573.814 81.6966L570.1 72.4119ZM636.704 35.9221L623.531 36.7327L624.146 46.7139L637.319 45.9032L636.704 35.9221ZM628.741 40.7427C628.352 38.7939 627.502 37.0272 626.243 35.5014L618.529 41.8653C618.757 42.1409 618.875 42.4009 618.936 42.7039L628.741 40.7427ZM626.281 35.5483C624.981 33.933 623.331 32.7421 621.478 31.9188L617.417 41.0569C617.996 41.3145 618.305 41.5872 618.491 41.8184L626.281 35.5483ZM621.581 31.9657C619.569 31.0167 617.374 30.6434 615.158 30.6434V40.6434C616.275 40.6434 616.939 40.8331 617.314 41.01L621.581 31.9657ZM615.158 30.6434C612.221 30.6434 609.379 31.2703 606.89 32.8081L612.144 41.316C612.717 40.9623 613.636 40.6434 615.158 40.6434V30.6434ZM606.935 32.7801C604.172 34.4464 602.22 37.1791 602.22 40.7775H612.22C612.22 40.8032 612.216 40.8814 612.186 40.9935C612.154 41.1077 612.106 41.2182 612.047 41.3124C611.928 41.506 611.861 41.4874 612.099 41.3439L606.935 32.7801ZM602.22 40.7775C602.22 43.5609 603.419 45.9591 605.438 47.7029L611.974 40.1347C611.938 40.103 612.025 40.17 612.111 40.3534C612.202 40.5439 612.22 40.7094 612.22 40.7775H602.22ZM605.438 47.7029C607.408 49.4042 610.132 50.3035 612.756 50.8676L614.857 41.0909C613.845 40.8731 613.108 40.6461 612.597 40.4397C612.068 40.226 611.925 40.0921 611.974 40.1347L605.438 47.7029ZM612.819 50.8808L622.209 52.7723L624.184 42.9692L614.794 41.0777L612.819 50.8808ZM622.191 52.7685C626.773 53.7096 629.536 55.1054 631.079 56.5361L637.878 49.2034C634.467 46.0404 629.708 44.1036 624.203 42.973L622.191 52.7685ZM631.079 56.5361C632.42 57.7804 633.194 59.411 633.194 61.9221H643.194C643.194 56.9571 641.49 52.5529 637.878 49.2034L631.079 56.5361ZM633.194 61.9221C633.194 64.2602 632.533 66.1487 631.247 67.7961L639.129 73.9499C641.851 70.4632 643.194 66.3844 643.194 61.9221H633.194ZM631.23 67.8178C629.859 69.5931 627.887 71.1078 625.095 72.2682L628.932 81.5025C633.076 79.7806 636.553 77.287 639.146 73.9283L631.23 67.8178ZM625.11 72.262C622.38 73.3859 619.074 74.0133 615.09 74.0133V84.0133C620.114 84.0133 624.756 83.2221 628.917 81.5087L625.11 72.262ZM615.09 74.0133C608.87 74.0133 604.516 72.7142 601.546 70.6306L595.803 78.8166C600.985 82.4526 607.574 84.0133 615.09 84.0133V74.0133ZM601.572 70.6488C598.646 68.5677 597.006 65.8747 596.499 62.2715L586.596 63.6668C587.485 69.9716 590.597 75.1148 595.777 78.7984L601.572 70.6488ZM591.81 67.9623L605.962 67.2192L605.438 57.2329L591.285 57.976L591.81 67.9623ZM600.801 63.2269C601.469 66.495 603.195 69.2767 606.021 71.1739L611.594 62.8709C611.133 62.5614 610.787 62.1455 610.599 61.2252L600.801 63.2269ZM606.061 71.2002C608.735 72.9587 611.874 73.6437 615.124 73.6437V63.6437C613.24 63.6437 612.168 63.2479 611.555 62.8446L606.061 71.2002ZM615.124 73.6437C618.236 73.6437 621.29 73.0527 623.876 71.4173L618.532 62.9653C618.055 63.2665 617.056 63.6437 615.124 63.6437V73.6437ZM623.892 71.4071C626.56 69.7062 628.516 67.0146 628.568 63.4469L618.569 63.302C618.569 63.2736 618.574 63.2036 618.602 63.1084C618.629 63.012 618.669 62.9264 618.71 62.861C618.792 62.7286 618.803 62.7923 618.516 62.9755L623.892 71.4071ZM628.568 63.2883C628.517 60.3851 627.188 57.9188 624.966 56.2056L618.861 64.1257C618.899 64.155 618.796 64.0833 618.694 63.8848C618.588 63.6798 618.57 63.5091 618.569 63.4607L628.568 63.2883ZM625.017 56.2454C623.034 54.6755 620.468 53.8184 617.895 53.3037L615.934 63.1095C617.864 63.4955 618.631 63.9445 618.81 64.0859L625.017 56.2454ZM617.891 53.303L608.906 51.5128L606.952 61.32L615.937 63.1102L617.891 53.303ZM608.91 51.5135C604.386 50.6087 601.686 49.1614 600.166 47.6276L593.063 54.6666C596.497 58.1319 601.339 60.1974 606.949 61.3193L608.91 51.5135ZM600.182 47.6439C598.746 46.182 597.932 44.3023 597.932 41.5882H587.932C587.932 46.6203 589.573 51.1132 593.047 54.6504L600.182 47.6439ZM597.932 41.5882C597.932 39.2123 598.554 37.4209 599.639 35.969L591.63 29.981C589.113 33.348 587.932 37.2987 587.932 41.5882H597.932ZM599.621 35.9929C600.806 34.4281 602.563 33.0756 605.148 32.0485L601.456 22.755C597.466 24.34 594.111 26.703 591.648 29.9572L599.621 35.9929ZM605.137 32.0528C607.738 31.0265 610.964 30.4427 614.921 30.4427V20.4427C610.006 20.4427 605.486 21.165 601.467 22.7507L605.137 32.0528ZM614.921 30.4427C620.825 30.4427 624.81 31.696 627.426 33.6232L633.356 25.5714C628.452 21.9591 622.123 20.4427 614.921 20.4427V30.4427ZM627.438 33.6316C630.087 35.5711 631.597 38.1049 632.055 41.5673L641.969 40.258C641.165 34.1727 638.262 29.163 633.345 25.563L627.438 33.6316ZM690.115 35.9221L676.942 36.7327L677.556 46.7139L690.729 45.9032L690.115 35.9221ZM682.152 40.7427C681.762 38.7937 680.912 37.0271 679.653 35.5014L671.939 41.8653C672.167 42.1411 672.285 42.4011 672.346 42.7039L682.152 40.7427ZM679.691 35.5483C678.391 33.933 676.741 32.7421 674.888 31.9188L670.827 41.0569C671.407 41.3145 671.715 41.5872 671.901 41.8184L679.691 35.5483ZM674.991 31.9657C672.979 31.0167 670.784 30.6434 668.568 30.6434V40.6434C669.685 40.6434 670.35 40.8331 670.725 41.01L674.991 31.9657ZM668.568 30.6434C665.631 30.6434 662.789 31.2703 660.3 32.8081L665.555 41.316C666.127 40.9623 667.046 40.6434 668.568 40.6434V30.6434ZM660.345 32.7801C657.582 34.4464 655.63 37.179 655.63 40.7775H665.63C665.63 40.8032 665.627 40.8814 665.596 40.9935C665.565 41.1078 665.516 41.2183 665.457 41.3125C665.338 41.5061 665.271 41.4874 665.509 41.3439L660.345 32.7801ZM655.63 40.7775C655.63 43.5609 656.829 45.9591 658.848 47.7029L665.385 40.1347C665.348 40.103 665.435 40.17 665.522 40.3534C665.612 40.5439 665.63 40.7094 665.63 40.7775H655.63ZM658.848 47.7029C660.818 49.4042 663.542 50.3035 666.166 50.8676L668.268 41.0909C667.255 40.8731 666.518 40.6461 666.008 40.4397C665.479 40.226 665.335 40.0921 665.385 40.1347L658.848 47.7029ZM666.229 50.8808L675.62 52.7723L677.594 42.9692L668.204 41.0777L666.229 50.8808ZM675.601 52.7685C680.184 53.7096 682.946 55.1054 684.489 56.5361L691.288 49.2034C687.877 46.0404 683.118 44.1036 677.613 42.973L675.601 52.7685ZM684.489 56.5361C685.831 57.7803 686.604 59.4109 686.604 61.9221H696.604C696.604 56.9572 694.9 52.5529 691.288 49.2034L684.489 56.5361ZM686.604 61.9221C686.604 64.2602 685.943 66.1487 684.657 67.7961L692.539 73.9499C695.261 70.4632 696.604 66.3844 696.604 61.9221H686.604ZM684.64 67.8178C683.269 69.5932 681.297 71.1078 678.505 72.2682L682.343 81.5025C686.486 79.7806 689.963 77.287 692.556 73.9283L684.64 67.8178ZM678.52 72.262C675.791 73.3859 672.484 74.0133 668.5 74.0133V84.0133C673.524 84.0133 678.166 83.2221 682.328 81.5087L678.52 72.262ZM668.5 74.0133C662.281 74.0133 657.926 72.7142 654.957 70.6306L649.213 78.8166C654.395 82.4526 660.984 84.0133 668.5 84.0133V74.0133ZM654.982 70.6488C652.056 68.5677 650.417 65.8746 649.909 62.2715L640.007 63.6668C640.895 69.9717 644.007 75.1149 649.187 78.7984L654.982 70.6488ZM645.22 67.9623L659.373 67.2192L658.848 57.2329L644.696 57.976L645.22 67.9623ZM654.212 63.2269C654.879 66.495 656.605 69.2767 659.431 71.1739L665.004 62.8709C664.543 62.5614 664.197 62.1455 664.009 61.2252L654.212 63.2269ZM659.471 71.2002C662.145 72.9587 665.284 73.6437 668.534 73.6437V63.6437C666.65 63.6437 665.578 63.2479 664.965 62.8446L659.471 71.2002ZM668.534 73.6437C671.646 73.6437 674.7 73.0527 677.286 71.4173L671.942 62.9653C671.466 63.2665 670.466 63.6437 668.534 63.6437V73.6437ZM677.302 71.4071C679.97 69.7063 681.926 67.0147 681.978 63.4469L671.979 63.302C671.979 63.2736 671.985 63.2036 672.012 63.1083C672.04 63.0119 672.079 62.9263 672.12 62.8609C672.202 62.7286 672.213 62.7923 671.926 62.9755L677.302 71.4071ZM681.978 63.2883C681.928 60.3851 680.599 57.9188 678.376 56.2056L672.271 64.1257C672.309 64.155 672.207 64.0833 672.104 63.8848C671.998 63.6798 671.98 63.5091 671.979 63.4607L681.978 63.2883ZM678.427 56.2454C676.444 54.6755 673.879 53.8184 671.305 53.3037L669.344 63.1095C671.274 63.4955 672.041 63.9445 672.22 64.0859L678.427 56.2454ZM671.301 53.303L662.317 51.5128L660.363 61.32L669.347 63.1102L671.301 53.303ZM662.32 51.5135C657.797 50.6087 655.096 49.1614 653.576 47.6276L646.473 54.6666C649.907 58.1319 654.75 60.1974 660.359 61.3193L662.32 51.5135ZM653.592 47.6439C652.156 46.182 651.343 44.3024 651.343 41.5882H641.343C641.343 46.6202 642.983 51.1132 646.457 54.6504L653.592 47.6439ZM651.343 41.5882C651.343 39.2123 651.964 37.4208 653.049 35.969L645.04 29.981C642.523 33.3481 641.343 37.2987 641.343 41.5882H651.343ZM653.031 35.9929C654.216 34.4281 655.973 33.0756 658.558 32.0485L654.866 22.755C650.876 24.34 647.522 26.703 645.058 29.9572L653.031 35.9929ZM658.547 32.0528C661.149 31.0265 664.374 30.4427 668.332 30.4427V20.4427C663.417 20.4427 658.896 21.165 654.877 22.7507L658.547 32.0528ZM668.332 30.4427C674.236 30.4427 678.22 31.696 680.836 33.6232L686.767 25.5714C681.862 21.9591 675.533 20.4427 668.332 20.4427V30.4427ZM680.848 33.6316C683.497 35.5711 685.008 38.105 685.465 41.5673L695.379 40.258C694.575 34.1726 691.672 29.1629 686.755 25.563L680.848 33.6316ZM724.106 74.0133C719.579 74.0133 715.944 73.0572 713.01 71.3486L707.978 79.9901C712.7 82.7401 718.139 84.0133 724.106 84.0133V74.0133ZM713.04 71.3663C710.059 69.6026 707.77 67.176 706.12 63.9836L697.236 68.5751C699.73 73.3991 703.317 77.2325 707.948 79.9725L713.04 71.3663ZM706.125 63.9937C704.475 60.7826 703.571 56.9181 703.571 52.2618H693.571C693.571 58.234 694.738 63.7145 697.231 68.5649L706.125 63.9937ZM703.571 52.2618C703.571 47.552 704.478 43.683 706.12 40.5062L697.236 35.9147C694.735 40.7544 693.571 46.2529 693.571 52.2618H703.571ZM706.125 40.4961C707.775 37.2856 710.059 34.8701 713.021 33.1347L707.967 24.5062C703.318 27.2294 699.724 31.0738 697.231 35.9249L706.125 40.4961ZM713.029 33.1301C715.96 31.4063 719.588 30.4427 724.106 30.4427V20.4427C718.131 20.4427 712.684 21.7309 707.959 24.5107L713.029 33.1301ZM724.106 30.4427C728.625 30.4427 732.237 31.4066 735.138 33.1235L740.231 24.5173C735.521 21.7306 730.08 20.4427 724.106 20.4427V30.4427ZM735.168 33.1411C738.152 34.8786 740.441 37.2934 742.087 40.4961L750.981 35.9249C748.484 31.0661 744.873 27.2208 740.201 24.4997L735.168 33.1411ZM742.092 40.5062C743.734 43.6831 744.642 47.552 744.642 52.2618H754.642C754.642 46.2529 753.477 40.7543 750.976 35.9147L742.092 40.5062ZM744.642 52.2618C744.642 56.9181 743.738 60.7826 742.087 63.9937L750.981 68.5649C753.474 63.7145 754.642 58.234 754.642 52.2618H744.642ZM742.092 63.9836C740.446 67.1682 738.151 69.594 735.149 71.3597L740.22 79.979C744.874 77.2412 748.479 73.4069 750.976 68.5751L742.092 63.9836ZM735.157 71.3551C732.252 73.0569 728.634 74.0133 724.106 74.0133V84.0133C730.072 84.0133 735.506 82.7404 740.212 79.9836L735.157 71.3551ZM724.174 72.8668C727.566 72.8668 730.753 71.8792 733.38 69.6592L726.925 62.0212C726.354 62.5034 725.555 62.8668 724.174 62.8668V72.8668ZM733.411 69.6327C735.8 67.5797 737.451 64.9035 738.496 61.8548L729.037 58.6116C728.461 60.2917 727.702 61.3535 726.894 62.0477L733.411 69.6327ZM738.482 61.8949C739.537 58.9006 740.016 55.6321 740.016 52.1604H730.016C730.016 54.7237 729.662 56.837 729.051 58.5714L738.482 61.8949ZM740.016 52.1604C740.016 48.6888 739.537 45.4203 738.482 42.426L729.051 45.7495C729.662 47.4839 730.016 49.5972 730.016 52.1604H740.016ZM738.496 42.4661C737.451 39.4174 735.8 36.7412 733.411 34.6882L726.894 42.2732C727.702 42.9674 728.461 44.0292 729.037 45.7093L738.496 42.4661ZM733.411 34.6882C730.785 32.4322 727.587 31.4203 724.174 31.4203V41.4203C725.534 41.4203 726.322 41.782 726.894 42.2732L733.411 34.6882ZM724.174 31.4203C720.748 31.4203 717.543 32.4248 714.888 34.6439L721.3 42.3175C721.932 41.7894 722.781 41.4203 724.174 41.4203V31.4203ZM714.862 34.6658C712.451 36.7084 710.771 39.3764 709.696 42.426L719.128 45.7495C719.72 44.0702 720.494 43.0002 721.326 42.2956L714.862 34.6658ZM709.682 42.4661C708.66 45.4477 708.196 48.7019 708.196 52.1604H718.196C718.196 49.5841 718.543 47.4565 719.142 45.7093L709.682 42.4661ZM708.196 52.1604C708.196 55.619 708.66 58.8732 709.682 61.8548L719.142 58.6116C718.543 56.8644 718.196 54.7368 718.196 52.1604H708.196ZM709.696 61.8949C710.771 64.9445 712.451 67.6125 714.862 69.6551L721.326 62.0253C720.494 61.3207 719.72 60.2507 719.128 58.5714L709.696 61.8949ZM714.919 69.7029C717.575 71.8862 720.768 72.8668 724.174 72.8668V62.8668C722.76 62.8668 721.9 62.4964 721.269 61.9775L714.919 69.7029ZM763.998 78V26.1182H753.998V78H763.998ZM758.998 31.1182H772.948V21.1182H758.998V31.1182ZM767.948 26.1182V35.1705H777.948V26.1182H767.948ZM772.948 40.1705H773.488V30.1705H772.948V40.1705ZM778.286 36.5795C778.991 34.1798 780.042 32.7663 781.218 31.8989L775.284 23.8504C772.001 26.2707 769.878 29.721 768.691 33.7615L778.286 36.5795ZM781.244 31.8795C782.57 30.8888 784.076 30.3751 785.952 30.3751V20.3751C782.019 20.3751 778.391 21.5278 775.257 23.8698L781.244 31.8795ZM785.952 30.3751C786.467 30.3751 787.063 30.4075 787.745 30.4813L788.82 20.5392C787.836 20.4329 786.878 20.3751 785.952 20.3751V30.3751ZM787.745 30.4813C788.412 30.5534 788.91 30.6436 789.266 30.7325L791.691 21.0311C790.786 20.8047 789.82 20.6473 788.82 20.5392L787.745 30.4813ZM785.478 25.8818V38.6496H795.478V25.8818H785.478ZM791.915 33.8604C790.867 33.546 789.631 33.324 788.329 33.1522L787.02 43.0661C788.106 43.2095 788.738 43.3478 789.042 43.4387L791.915 33.8604ZM788.329 33.1522C786.963 32.9717 785.649 32.8727 784.398 32.8727V42.8727C785.13 42.8727 785.999 42.9313 787.02 43.0661L788.329 33.1522ZM784.398 32.8727C781.53 32.8727 778.788 33.5057 776.301 34.884L781.147 43.6311C781.992 43.163 783.033 42.8727 784.398 42.8727V32.8727ZM776.321 34.8727C773.89 36.2047 771.934 38.0971 770.513 40.4769L779.098 45.6043C779.614 44.7415 780.27 44.1119 781.126 43.6424L776.321 34.8727ZM770.487 40.5213C769.04 43.0011 768.387 45.7611 768.387 48.6476H778.387C778.387 47.3008 778.68 46.3227 779.125 45.56L770.487 40.5213ZM768.387 48.6476V78H778.387V48.6476H768.387ZM773.387 73H758.998V83H773.387V73ZM10.0127 74.8589V5.68321H0.0126953V74.8589H10.0127ZM5.0127 10.6832H32.3047V0.68321H5.0127V10.6832ZM32.3047 10.6832C36.9449 10.6832 40.5889 11.5138 43.4226 12.9479L47.9382 4.02552C43.3861 1.72167 38.1128 0.68321 32.3047 0.68321V10.6832ZM43.4552 12.9643C46.3374 14.3966 48.3993 16.3478 49.8138 18.8313L58.5033 13.8823C56.0446 9.56535 52.4545 6.2698 47.9056 4.00917L43.4552 12.9643ZM49.8334 18.8654C51.28 21.3597 52.0971 24.4383 52.0971 28.2801H62.0971C62.0971 22.9797 60.9551 18.1094 58.4837 13.8482L49.8334 18.8654ZM52.0971 28.2801C52.0971 32.143 51.2699 35.1702 49.8347 37.5678L58.4148 42.7041C60.9427 38.4813 62.0971 33.6047 62.0971 28.2801H52.0971ZM49.8425 37.5548C48.4154 39.9225 46.3331 41.7998 43.3956 43.1718L47.6275 52.2323C52.2111 50.0914 55.8709 46.9247 58.407 42.717L49.8425 37.5548ZM43.3852 43.1767C40.4746 44.5443 36.7154 45.3367 31.9331 45.3367V55.3367C37.7794 55.3367 43.0725 54.3726 47.6379 52.2274L43.3852 43.1767ZM31.9331 45.3367H13.6597V55.3367H31.9331V45.3367ZM18.6597 50.3367V38.5822H8.65966V50.3367H18.6597ZM13.6597 43.5822H29.5687V33.5822H13.6597V43.5822ZM29.5687 43.5822C32.7757 43.5822 35.7985 43.1485 38.4419 42.0525L34.6117 32.8151C33.5621 33.2503 31.9463 33.5822 29.5687 33.5822V43.5822ZM38.4419 42.0525C41.1599 40.9255 43.4377 39.107 44.9573 36.5236L36.338 31.4534C36.0561 31.9325 35.5867 32.4108 34.6117 32.8151L38.4419 42.0525ZM44.9295 36.5702C46.4344 34.0744 47.0325 31.2203 47.0325 28.2801H37.0325C37.0325 29.8886 36.7074 30.8401 36.3657 31.4068L44.9295 36.5702ZM47.0325 28.2801C47.0325 25.3207 46.436 22.46 44.962 19.9435L36.3332 24.9975C36.7057 25.6335 37.0325 26.6459 37.0325 28.2801H47.0325ZM44.9888 19.9898C43.4875 17.3624 41.2154 15.4883 38.4826 14.303L34.5035 23.4772C35.5086 23.9132 36.0063 24.426 36.3064 24.9512L44.9888 19.9898ZM38.5495 14.3326C35.8565 13.1175 32.7665 12.6403 29.5012 12.6403V22.6403C31.8653 22.6403 33.4366 22.9964 34.4366 23.4476L38.5495 14.3326ZM29.5012 12.6403H19.6382V22.6403H29.5012V12.6403ZM14.6382 17.6403V74.8589H24.6382V17.6403H14.6382ZM19.6382 69.8589H5.0127V79.8589H19.6382V69.8589ZM37.9821 45.7751L55.1746 77.2555L63.9511 72.4623L46.7585 40.982L37.9821 45.7751ZM59.5629 69.8589H43.4174V79.8589H59.5629V69.8589ZM47.8273 72.5025L31.0062 41.0222L22.1864 45.7349L39.0074 77.2153L47.8273 72.5025ZM26.5963 48.3786H42.3703V38.3786H26.5963V48.3786ZM81.9571 70.8384C79.2287 70.8384 76.9873 70.3668 75.1345 69.5451L71.0805 78.6865C74.4069 80.1617 78.0652 80.8384 81.9571 80.8384V70.8384ZM75.1676 69.5599C73.3975 68.7595 72.0935 67.6414 71.1266 66.1839L62.7935 71.7119C64.844 74.803 67.6384 77.1302 71.0474 78.6717L75.1676 69.5599ZM71.1579 66.2316C70.3127 64.9254 69.7308 63.0691 69.7308 60.3685H59.7308C59.7308 64.5134 60.635 68.3767 62.7622 71.6641L71.1579 66.2316ZM69.7308 60.3685C69.7308 58.0786 70.1526 56.5283 70.7174 55.4829L61.9192 50.7299C60.3672 53.6026 59.7308 56.8937 59.7308 60.3685H69.7308ZM70.7174 55.4829C71.3896 54.2386 72.2663 53.2898 73.3794 52.5615L67.9041 44.1936C65.3693 45.8522 63.3637 48.056 61.9192 50.7299L70.7174 55.4829ZM73.3794 52.5615C74.7091 51.6915 76.2753 50.9968 78.1246 50.512L75.5889 40.8388C72.7995 41.57 70.2224 42.6767 67.9041 44.1936L73.3794 52.5615ZM78.1132 50.515C80.1843 49.9773 82.3782 49.5928 84.7004 49.3688L83.74 39.415C80.928 39.6863 78.213 40.1575 75.6003 40.8358L78.1132 50.515ZM84.7398 49.3648C87.7891 49.0462 90.2971 48.7453 92.2401 48.461L90.7921 38.5664C89.0421 38.8225 86.6862 39.107 83.7006 39.4189L84.7398 49.3648ZM92.299 48.452C94.3512 48.1266 96.5756 47.5618 98.3349 46.3731L92.7363 38.0872C92.8362 38.0197 92.7671 38.0881 92.3848 38.2102C92.0198 38.3267 91.4823 38.4566 90.7332 38.5753L92.299 48.452ZM98.3348 46.3731C100.695 44.7786 101.785 42.3044 101.785 39.7306H91.7853C91.7853 39.6484 91.8034 39.3416 92.0007 38.947C92.2072 38.5341 92.4989 38.2476 92.7363 38.0872L98.3348 46.3731ZM101.785 39.7306V39.528H91.7853V39.7306H101.785ZM101.785 39.528C101.785 36.2512 100.696 33.0921 98.0333 30.7843L91.484 38.3412C91.566 38.4122 91.6086 38.4716 91.6494 38.5717C91.6993 38.6939 91.7853 38.9816 91.7853 39.528H101.785ZM98.0647 30.8117C95.5231 28.5716 92.286 27.8063 89.0841 27.8063V37.8063C90.7911 37.8063 91.3371 38.2119 91.4527 38.3137L98.0647 30.8117ZM89.0841 27.8063C85.7899 27.8063 82.5593 28.5366 79.9029 30.5289L85.9029 38.5289C86.3089 38.2244 87.1992 37.8063 89.0841 37.8063V27.8063ZM79.9409 30.5007C77.5855 32.2326 75.883 34.5521 75.0601 37.3946L84.6658 40.1751C84.8337 39.5949 85.1578 39.0771 85.8648 38.5572L79.9409 30.5007ZM80.2677 33.8013L66.9595 32.7204L66.15 42.6876L79.4582 43.7684L80.2677 33.8013ZM71.4437 38.7516C71.9549 36.3662 72.9272 34.4177 74.3262 32.7961L66.7547 26.2637C64.1905 29.2358 62.5056 32.7367 61.6657 36.6563L71.4437 38.7516ZM74.3419 32.7778C75.7405 31.1408 77.596 29.8124 80.0475 28.8424L76.3682 19.5438C72.5597 21.0508 69.3036 23.2803 66.7389 26.282L74.3419 32.7778ZM80.0648 28.8355C82.5123 27.8565 85.5083 27.3016 89.1517 27.3016V17.3016C84.5084 17.3016 80.2085 18.0077 76.3509 19.5507L80.0648 28.8355ZM89.1517 27.3016C91.64 27.3016 93.9798 27.5927 96.1852 28.1582L98.669 18.4716C95.6051 17.686 92.4279 17.3016 89.1517 17.3016V27.3016ZM96.1951 28.1607C98.3324 28.7041 100.128 29.52 101.64 30.5671L107.333 22.3452C104.747 20.5551 101.836 19.2768 98.6591 18.4691L96.1951 28.1607ZM101.661 30.5816C103.067 31.5439 104.158 32.7604 104.976 34.288L113.792 29.5682C112.223 26.6372 110.05 24.2058 107.312 22.3307L101.661 30.5816ZM104.986 34.3066C105.704 35.6333 106.174 37.4228 106.174 39.8657H116.174C116.174 36.1387 115.452 32.6364 113.782 29.5496L104.986 34.3066ZM106.174 39.8657V74.8589H116.174V39.8657H106.174ZM111.174 69.8589H97.5284V79.8589H111.174V69.8589ZM102.528 74.8589V67.6644H92.5284V74.8589H102.528ZM97.5284 62.6644H97.1231V72.6644H97.5284V62.6644ZM92.6759 65.379C92.1326 66.4363 91.4052 67.3761 90.4611 68.2137L97.0972 75.6944C98.9453 74.055 100.447 72.135 101.57 69.9497L92.6759 65.379ZM90.4952 68.1836C89.6255 68.9412 88.5102 69.6013 87.0681 70.1152L90.4246 79.5351C92.9006 78.6528 95.1406 77.3989 97.063 75.7245L90.4952 68.1836ZM87.1164 70.0983C85.7898 70.5557 84.0967 70.8384 81.9571 70.8384V80.8384C84.9517 80.8384 87.7847 80.4456 90.3763 79.552L87.1164 70.0983ZM86.0779 70.9079C88.8612 70.9079 91.536 70.3563 93.9703 69.1053L89.3996 60.211C88.5913 60.6264 87.5281 60.9079 86.0779 60.9079V70.9079ZM94.0188 69.0801C96.3479 67.8508 98.2897 66.1302 99.7119 63.91L91.2916 58.5158C90.8674 59.1779 90.2647 59.7541 89.3512 60.2363L94.0188 69.0801ZM99.7119 63.91C101.185 61.6102 101.887 59.0295 101.887 56.3152H91.8867C91.8867 57.2488 91.6648 57.9333 91.2916 58.5158L99.7119 63.91ZM101.887 56.3152V50.8095H91.8867V56.3152H101.887ZM94.1617 46.6173C94.217 46.5814 94.2035 46.5972 94.0847 46.649C93.9697 46.6992 93.7896 46.7685 93.5298 46.8502L96.528 56.3902C97.5433 56.0711 98.6345 55.6368 99.6116 55.0018L94.1617 46.6173ZM93.6181 46.8234C93.0058 47.0034 92.2713 47.1864 91.4037 47.368L93.4524 57.1559C94.5214 56.9322 95.5208 56.6873 96.4397 56.417L93.6181 46.8234ZM91.5135 47.3463C90.5821 47.5196 89.6509 47.682 88.7198 47.8336L90.3266 57.7036C91.3321 57.54 92.3375 57.3646 93.3426 57.1776L91.5135 47.3463ZM88.8322 47.8166C87.8598 47.9523 86.976 48.0769 86.1815 48.1904L87.5957 58.0899C88.3774 57.9782 89.2501 57.8552 90.2142 57.7206L88.8322 47.8166ZM86.163 48.1931C84.1455 48.489 82.2358 48.9802 80.4942 49.7266L84.4334 58.9181C85.2138 58.5836 86.254 58.2867 87.6142 58.0872L86.163 48.1931ZM80.4942 49.7266C78.583 50.5457 76.8486 51.7674 75.5369 53.5023L83.5135 59.5334C83.5978 59.4219 83.8226 59.1799 84.4334 58.9181L80.4942 49.7266ZM75.5731 53.455C74.0757 55.3871 73.4781 57.649 73.4781 59.8956H83.4781C83.4781 59.6501 83.5096 59.5377 83.5156 59.5183C83.5188 59.5083 83.5177 59.5143 83.5092 59.5307C83.5006 59.5475 83.4893 59.5652 83.4772 59.5807L75.5731 53.455ZM73.4781 59.8956C73.4781 63.2384 74.787 66.3302 77.6576 68.4261L83.5545 60.3498C83.5052 60.3138 83.4949 60.2983 83.5036 60.3086C83.5132 60.32 83.5233 60.336 83.5288 60.3476C83.5437 60.379 83.4781 60.2685 83.4781 59.8956H73.4781ZM77.7302 68.4781C80.2049 70.2181 83.1036 70.9079 86.0779 70.9079V60.9079C84.6388 60.9079 83.8895 60.5844 83.4819 60.2978L77.7302 68.4781ZM144.934 22.9771V33.7858H154.934V22.9771H144.934ZM149.934 28.7858H118.69V38.7858H149.934V28.7858ZM123.69 33.7858V22.9771H113.69V33.7858H123.69ZM118.69 27.9771H149.934V17.9771H118.69V27.9771ZM125.783 15.5471H140.172V5.54713H125.783V15.5471ZM135.172 10.5471V58.9161H145.172V10.5471H135.172ZM135.172 58.9161C135.172 60.65 135.419 62.6372 136.391 64.4178L145.17 59.6293C145.263 59.8014 145.257 59.8639 145.231 59.7293C145.205 59.5964 145.172 59.3367 145.172 58.9161H135.172ZM136.422 64.4749C137.345 66.115 138.749 67.4293 140.587 68.1759L144.351 58.9112C144.513 58.977 144.69 59.0826 144.851 59.2275C145.009 59.3698 145.098 59.5018 145.138 59.5723L136.422 64.4749ZM140.636 68.1956C142.073 68.7614 143.57 68.9826 145.036 68.9826V58.9826C144.565 58.9826 144.352 58.9112 144.302 58.8915L140.636 68.1956ZM145.036 68.9826C145.991 68.9826 146.941 68.903 147.885 68.7457L146.241 58.8818C145.833 58.9497 145.432 58.9826 145.036 58.9826V68.9826ZM148.043 68.7167C148.713 68.5827 149.207 68.4861 149.538 68.4241L147.695 58.5954C147.305 58.6686 146.763 58.7746 146.082 58.9108L148.043 68.7167ZM143.724 64.5437L145.988 75.2511L155.771 73.1832L153.508 62.4758L143.724 64.5437ZM149.388 69.4447C148.862 69.6093 148.003 69.8333 146.746 70.1151L148.933 79.873C150.288 79.5693 151.456 79.2753 152.371 78.9895L149.388 69.4447ZM146.666 70.1336C145.784 70.3465 144.55 70.5117 142.896 70.5715L143.258 80.565C145.342 80.4896 147.283 80.272 149.013 79.8544L146.666 70.1336ZM142.882 70.572C139.963 70.6857 137.656 70.2872 135.835 69.5493L132.08 78.8174C135.483 80.1962 139.255 80.7209 143.272 80.5644L142.882 70.572ZM135.849 69.555C134.152 68.8615 132.965 67.86 132.11 66.5374L123.712 71.9664C125.739 75.1023 128.583 77.3885 132.066 78.8117L135.849 69.555ZM132.11 66.5374C131.328 65.3279 130.765 63.5381 130.783 60.8407L120.783 60.7745C120.756 64.8775 121.612 68.7172 123.712 71.9664L132.11 66.5374ZM130.783 60.8076V10.5471H120.783V60.8076H130.783ZM182.394 70.8722C177.736 70.8722 174.022 69.9324 171.06 68.2697L166.165 76.9895C170.904 79.6503 176.378 80.8722 182.394 80.8722V70.8722ZM171.09 68.2868C168.114 66.5887 165.837 64.2186 164.199 61.0687L155.326 65.6806C157.832 70.5021 161.455 74.302 166.135 76.9724L171.09 68.2868ZM164.205 61.0789C162.57 57.9159 161.655 53.9956 161.655 49.1544H151.655C151.655 55.2572 152.813 60.8169 155.321 65.6704L164.205 61.0789ZM161.655 49.1544C161.655 44.4718 162.561 40.597 164.21 37.3888L155.316 32.8175C152.821 37.6708 151.655 43.1635 151.655 49.1544H161.655ZM164.21 37.3888C165.87 34.1587 168.148 31.7244 171.08 29.969L165.942 21.3896C161.353 24.1378 157.799 27.9861 155.316 32.8175L164.21 37.3888ZM171.069 29.9758C173.964 28.2522 177.488 27.3016 181.819 27.3016V17.3016C175.973 17.3016 170.624 18.6027 165.954 21.3828L171.069 29.9758ZM181.819 27.3016C184.696 27.3016 187.284 27.7634 189.627 28.6398L193.13 19.2736C189.573 17.9431 185.788 17.3016 181.819 17.3016V27.3016ZM189.67 28.6556C191.977 29.4945 193.946 30.7413 195.63 32.408L202.664 25.3007C199.935 22.5989 196.725 20.5806 193.087 19.2577L189.67 28.6556ZM195.648 32.4258C197.289 34.0337 198.65 36.1327 199.666 38.8481L209.032 35.3439C207.571 31.439 205.464 28.0436 202.646 25.2829L195.648 32.4258ZM199.67 38.8586C200.649 41.4592 201.207 44.6882 201.207 48.6478H211.207C211.207 43.7803 210.525 39.3081 209.028 35.3334L199.67 38.8586ZM201.207 48.6478V52.5997H211.207V48.6478H201.207ZM206.207 47.5997H162.397V57.5997H206.207V47.5997ZM167.397 52.5997V43.6825H157.397V52.5997H167.397ZM162.397 48.6825H192.662V38.6825H162.397V48.6825ZM197.662 43.6825C197.662 40.8639 197.042 38.1631 195.667 35.7226L186.955 40.6311C187.381 41.3882 187.662 42.3579 187.662 43.6825H197.662ZM195.667 35.7227C194.318 33.328 192.41 31.4204 190.016 30.0714L185.107 38.7838C185.91 39.2362 186.502 39.8282 186.955 40.6311L195.667 35.7227ZM190.089 30.1132C187.639 28.6786 184.906 28.0427 182.056 28.0427V38.0427C183.394 38.0427 184.331 38.3301 185.034 38.742L190.089 30.1132ZM182.056 28.0427C179.067 28.0427 176.222 28.746 173.674 30.2752L178.819 38.8502C179.648 38.3527 180.676 38.0427 182.056 38.0427V28.0427ZM173.691 30.265C171.271 31.7039 169.341 33.6829 167.965 36.1392L176.691 41.0252C177.207 40.1038 177.889 39.4031 178.802 38.8604L173.691 30.265ZM167.98 36.1142C166.587 38.5678 165.907 41.2655 165.876 44.1005L175.875 44.2104C175.889 42.947 176.178 41.9292 176.676 41.0502L167.98 36.1142ZM165.876 44.1554V52.6335H175.876V44.1554H165.876ZM165.876 52.6335C165.876 55.8109 166.462 58.836 167.833 61.5452L176.756 57.0301C176.235 56.0012 175.876 54.5903 175.876 52.6335H165.876ZM167.855 61.5876C169.245 64.2712 171.266 66.4323 173.883 67.942L178.88 59.2802C177.984 58.7632 177.28 58.0421 176.734 56.9876L167.855 61.5876ZM173.883 67.942C176.531 69.4697 179.509 70.1311 182.63 70.1311V60.1311C180.932 60.1311 179.745 59.7791 178.88 59.2802L173.883 67.942ZM182.63 70.1311C184.7 70.1311 186.714 69.8391 188.626 69.1909L185.416 59.7202C184.671 59.9727 183.758 60.1311 182.63 60.1311V70.1311ZM188.626 69.1909C190.591 68.5248 192.371 67.4878 193.881 66.0496L186.984 58.8082C186.603 59.1715 186.108 59.4855 185.416 59.7202L188.626 69.1909ZM193.881 66.0496C195.406 64.5972 196.527 62.8483 197.269 60.892L187.919 57.3455C187.671 58.0013 187.351 58.4591 186.984 58.8082L193.881 66.0496ZM192.265 64.1079L205.573 64.9861L206.232 55.0078L192.924 54.1296L192.265 64.1079ZM201.01 58.9634C200.507 61.3472 199.501 63.3535 197.989 65.0761L205.506 71.6712C208.183 68.62 209.947 65.0419 210.795 61.0305L201.01 58.9634ZM197.987 65.0786C196.494 66.7831 194.492 68.204 191.836 69.2773L195.582 78.5489C199.502 76.9651 202.859 74.6931 205.509 71.6687L197.987 65.0786ZM191.852 69.2707C189.29 70.2954 186.17 70.8722 182.394 70.8722V80.8722C187.174 80.8722 191.597 80.1429 195.566 78.5555L191.852 69.2707ZM210.013 13.8243H228.05V3.82432H210.013V13.8243ZM223.423 10.7206L242.474 57.198L251.727 53.4054L232.676 6.92801L223.423 10.7206ZM247.1 60.3017H247.911V50.3017H247.1V60.3017ZM252.537 57.198L271.587 10.7206L262.335 6.92801L243.284 53.4054L252.537 57.198ZM266.961 13.8243H284.998V3.82432H266.961V13.8243ZM279.998 8.82432V78H289.998V8.82432H279.998ZM284.998 73H270.812V83H284.998V73ZM275.812 78V32.975H265.812V78H275.812ZM270.812 27.975H270.237V37.975H270.812V27.975ZM265.596 31.1156L247.694 75.8029L256.977 79.5216L274.879 34.8344L265.596 31.1156ZM252.336 72.6622H242.675V82.6622H252.336V72.6622ZM247.319 75.8089L229.417 30.9528L220.13 34.6595L238.031 79.5156L247.319 75.8089ZM224.773 27.8061H224.199V37.8061H224.773V27.8061ZM219.199 32.8061V78H229.199V32.8061H219.199ZM224.199 73H210.013V83H224.199V73ZM215.013 78V8.82432H205.013V78H215.013ZM305.661 92.4557C304.103 92.4557 302.696 92.3305 301.428 92.0983L299.627 101.935C301.556 102.288 303.571 102.456 305.661 102.456V92.4557ZM301.372 92.0884C300.02 91.8566 299.101 91.5889 298.518 91.3482L294.7 100.591C296.189 101.206 297.882 101.636 299.682 101.945L301.372 92.0884ZM301.396 97.4145L304.638 86.6733L295.065 83.7833L291.822 94.5244L301.396 97.4145ZM298.386 90.0086C300.375 90.6187 302.342 91.0065 304.245 91.07L304.578 81.0755C303.779 81.0489 302.706 80.8738 301.318 80.448L298.386 90.0086ZM304.248 91.0701C306.52 91.1446 308.783 90.616 310.775 89.2581L305.141 80.9958C305.122 81.0092 305.097 81.0237 305.04 81.0389C304.976 81.0559 304.832 81.0838 304.575 81.0754L304.248 91.0701ZM310.732 89.2872C312.895 87.8448 314.234 85.6787 315.084 83.4939L305.764 79.8695C305.352 80.9273 305.048 81.0581 305.185 80.9667L310.732 89.2872ZM315.091 83.4766L315.935 81.2811L306.602 77.6913L305.757 79.8868L315.091 83.4766ZM315.989 77.8398L297.378 24.4718L287.936 27.7647L306.547 81.1326L315.989 77.8398ZM292.657 31.1182H307.789V21.1182H292.657V31.1182ZM302.977 27.4749L313.718 65.5756L323.343 62.8622L312.602 24.7615L302.977 27.4749ZM318.53 69.2189H319.071V59.2189H318.53V69.2189ZM323.88 65.5874L334.722 27.4868L325.104 24.7497L314.262 62.8504L323.88 65.5874ZM329.913 31.1182H345.147V21.1182H329.913V31.1182ZM340.429 24.4633L320.264 81.952L329.7 85.262L349.865 27.7732L340.429 24.4633ZM320.258 81.9688C319.457 84.2789 318.402 86.1918 317.134 87.7691L324.926 94.0367C326.99 91.4706 328.57 88.5196 329.706 85.2452L320.258 81.9688ZM317.097 87.8156C315.974 89.2459 314.551 90.36 312.743 91.1673L316.819 100.299C320.055 98.8542 322.798 96.7482 324.963 93.9901L317.097 87.8156ZM312.709 91.1826C310.995 91.9633 308.7 92.4557 305.661 92.4557V102.456C309.739 102.456 313.524 101.8 316.853 100.283L312.709 91.1826Z" fill="#E7E7E7" mask="url(#path-1-outside-1_2104_2301)"/>
</svg>
