<svg width="311" height="299" viewBox="0 0 311 299" fill="none" xmlns="http://www.w3.org/2000/svg">
<path d="M272.436 221.367C270.589 257.396 241.722 290.046 206.336 297.069C170.949 304.091 132.222 285.412 114.979 253.723C113.077 250.226 111.382 246.558 109.688 242.89C105.314 233.422 100.941 223.957 92.9896 217.444C83.9108 210.008 72.2345 208.019 60.4407 206.01C52.9515 204.734 45.4149 203.451 38.4659 200.759C21.7142 194.27 8.70729 178.897 5.08146 161.302C-0.794224 132.79 17.8171 103.679 42.636 88.463C67.4548 73.2471 97.2781 69.0094 126.206 65.744C137.272 64.4949 146.261 56.1556 152.681 47.0561C155.167 43.5334 157.403 39.8317 159.638 36.1329C163.175 30.2772 166.708 24.4284 171.22 19.307C190.323 -2.37877 225.898 -6.03816 250.23 9.55519C274.563 25.1485 286.209 57.213 279.738 85.3794C278.624 90.2306 277.042 94.9544 275.46 99.6785C273.945 104.201 272.431 108.724 271.326 113.359C268.965 123.265 268.514 133.517 268.245 143.698C267.925 155.837 267.849 168.007 268.986 180.096C269.381 184.302 269.923 188.502 270.465 192.701C271.697 202.243 272.928 211.781 272.436 221.367Z" fill="url(#paint0_linear_533_1135)"/>
<path d="M126.166 57.1388C139.397 50.5566 149.928 39.1253 156.559 25.9188C157.429 24.1872 158.253 22.3474 158.222 20.41C158.192 18.4726 157.065 16.4205 155.191 15.9285C152.505 15.2233 150.195 17.7984 148.52 20.0133C137.015 35.2281 120.269 47.1724 101.372 49.7774C94.115 50.7778 86.7466 50.4021 79.4302 50.0243L68.0024 49.4343C58.7982 48.9591 49.4662 48.4934 40.4567 50.4356C31.4472 52.3778 22.6438 57.0488 17.6955 64.8243C16.1204 67.2992 14.9407 70.2158 15.3765 73.1168C15.8231 76.0897 17.9363 78.6129 20.4817 80.2123C23.0272 81.8118 25.9845 82.6119 28.9152 83.2814C31.061 83.7716 33.2526 84.2058 35.4482 84.0512C39.0379 83.7985 42.2954 82.0135 45.465 80.2767C45.6761 80.161 45.8869 80.0455 46.0973 79.9307C51.637 76.9086 57.3773 74.2245 63.3644 72.2303C72.0952 69.3221 81.2757 67.899 90.4334 66.4793C102.77 64.5668 115.066 62.6607 126.166 57.1388Z" fill="url(#paint1_linear_533_1135)"/>
<path d="M57.3601 232.493L57.3678 232.494C57.9071 232.515 58.446 232.537 58.9836 232.565C67.4856 233.007 75.8993 235.092 83.6245 238.669C86.57 240.034 89.5531 241.741 91.2074 244.534C93.2543 247.99 95.7114 251.202 98.5107 254.082C99.5967 255.2 100.773 256.292 102.222 256.863C103.672 257.434 105.463 257.382 106.639 256.36C108.068 255.119 108.161 252.915 107.72 251.074C106.999 248.057 105.199 245.428 103.417 242.888C97.5715 234.555 91.4171 226.223 83.282 220.104C75.147 213.985 64.6484 210.28 54.6909 212.394C51.2527 213.123 47.8452 214.611 45.5657 217.286C43.2862 219.962 42.3854 223.988 44.0271 227.096C45.3295 229.561 47.9699 231.078 50.6731 231.762C52.8518 232.313 55.1087 232.403 57.3601 232.493Z" fill="url(#paint2_linear_533_1135)"/>
<path d="M287.332 107.153C285.06 106.296 282.486 107.331 280.562 108.814C276.762 111.743 274.514 116.325 273.492 121.012C272.469 125.699 272.551 130.548 272.639 135.345L273.39 176.56C273.445 179.571 273.579 182.816 275.43 185.191C276.01 185.934 276.803 186.587 277.741 186.682C278.877 186.798 279.928 186.081 280.749 185.286C285.237 180.941 285.826 174.097 286.363 167.858L286.382 167.631C287.172 158.474 288.539 149.366 290.472 140.38C291.016 137.853 291.613 135.31 292.75 132.989C296.316 125.712 295.463 116.475 290.626 109.973C289.751 108.798 288.704 107.67 287.332 107.153Z" fill="url(#paint3_linear_533_1135)"/>
<path d="M205.919 162.94C208.317 163.601 210.466 165.598 210.701 168.074C211.156 167.089 212.155 166.377 213.235 166.269L211.667 167.934L213.65 167.974L210.922 169.498C212.613 172.627 212.34 176.486 211.255 179.873C210.591 181.947 209.631 184.024 209.818 186.193C210.003 188.326 211.897 190.505 213.968 190.069L214.072 190.045C216.561 189.416 219.286 189.78 221.523 191.04C224.736 192.85 226.686 196.213 228.894 199.167C230.844 201.774 233.152 204.2 236.036 205.71C238.921 207.221 242.458 207.72 245.463 206.465C246.954 205.843 248.288 204.813 249.87 204.485C251.452 204.157 253.074 205.037 253.655 206.536C253.912 207.199 253.359 209.656 251.951 212.527C252.18 212.461 252.42 212.419 252.67 212.402C260.071 211.922 267.539 210.313 273.908 206.513C275.933 205.305 277.824 203.89 279.701 202.463L280.795 201.63L281.457 201.12C285.577 197.928 289.644 194.371 291.338 189.516L291.426 189.255L291.614 188.682C291.976 187.595 292.436 186.473 293.484 186.135C294.935 185.669 296.257 187.073 297.139 188.317L303.495 197.278C303.659 197.508 303.826 197.746 303.888 198.022C304.163 199.239 302.346 199.855 301.174 199.422C299.044 198.636 297.335 196.293 295.1 196.695C293.529 196.978 292.59 198.499 291.814 199.932L291.617 200.297C286.914 209.104 278.998 216.149 269.706 219.801C267.311 220.742 264.836 221.463 262.365 222.183L257.373 223.637L258.252 223.794C265.701 225.1 273.647 225.897 280.412 222.596C284.915 220.399 288.385 216.616 291.657 212.792L292.845 211.397L293.335 210.814C295.343 208.404 297.252 205.825 297.838 202.771C298.063 201.598 299.543 201.039 300.694 201.357C301.846 201.674 302.722 202.585 303.537 203.458L309.716 210.071C310.203 210.592 310.716 211.168 310.787 211.877C310.858 212.586 310.222 213.389 309.537 213.19L302.837 211.244C302.208 211.062 301.512 210.883 300.92 211.163C300.467 211.377 300.174 211.817 299.914 212.25L292.711 224.416C290.682 227.841 286.923 229.827 283.229 231.313C274.371 234.875 264.76 236.549 255.219 236.19C254.183 236.151 253.146 236.088 252.121 235.927C248.273 235.32 244.797 233.364 241.432 231.384C242.022 233.542 241.496 235.362 237.991 235.501C234.887 235.623 227.284 222.842 224.919 222.179C212.013 218.56 209.893 211.416 205.747 206.536C205.747 206.536 197.368 207.619 191.835 206.465C178.867 203.762 170.152 195.445 167.01 194.915C163.868 194.386 161.796 196.4 160.826 195.178V194.293C160.976 194.05 162.478 192.647 166.761 193.558C172.742 194.83 182.302 199.634 189.603 200.531C197.268 201.473 203.761 200.226 203.725 200.017C203.652 199.59 205.578 197.777 204.039 196.861C202.5 195.945 180.153 186.976 175.296 179.502L175.238 179.409C174.403 178.023 173.769 174.578 175.449 176.155L175.92 175.321C177.729 177.027 183.67 180.927 189.841 184.772C196.365 188.838 205.578 191.441 205.747 191.327C209.502 188.787 206.172 186.949 205.55 186.409C204.096 185.146 202.164 184.457 200.911 182.994C197.904 179.483 200.052 173.205 196.615 170.114C196.095 169.647 195.464 169.279 195.087 168.69C194.442 167.68 194.759 166.275 195.541 165.367C196.323 164.459 197.466 163.952 198.597 163.557C200.946 162.737 203.521 162.28 205.919 162.94Z" fill="white"/>
<path d="M208.82 180.889C208.82 181.379 208.424 181.776 207.934 181.776C207.444 181.776 207.047 181.379 207.047 180.889C207.047 180.399 207.444 180.002 207.934 180.002C208.424 180.002 208.82 180.399 208.82 180.889Z" fill="#FFB61D"/>
<path d="M203.185 180.889C203.185 181.379 202.891 181.776 202.528 181.776C202.164 181.776 201.87 181.379 201.87 180.889C201.87 180.399 202.164 180.002 202.528 180.002C202.891 180.002 203.185 180.399 203.185 180.889Z" fill="#FFB61D"/>
<path d="M170.394 185.186C162.15 183.055 153.486 182.563 145.053 183.747C145.691 180.596 146.49 177.477 147.445 174.407C144.701 175.292 141.462 172.778 141.639 169.9C141.817 167.022 145.34 164.925 147.955 166.141C148.853 164.069 148.91 161.646 148.11 159.534C147.726 158.521 149.255 157.936 150.339 157.936L156.325 157.935C157.162 157.935 158.329 157.546 158.121 156.735C157.628 154.813 158.949 152.617 160.879 152.153C162.773 151.697 164.905 152.994 165.394 154.873L165.42 154.978C165.874 156.997 168.431 157.638 170.5 157.598L171.53 157.573C173.319 157.536 175.184 157.594 176.382 158.846C177.814 160.342 177.494 162.726 177.022 164.758L176.99 164.893C176.321 167.714 175.608 170.524 174.851 173.323C176.321 185.157 172.68 185.777 170.394 185.186Z" fill="white"/>
<path d="M101.633 175.305C100.759 169.617 100.76 163.796 101.637 158.108L101.681 157.833C101.899 156.542 102.28 155.18 103.359 154.468C104.166 153.936 105.186 153.896 106.159 153.896L113.605 153.916C113.944 153.917 114.315 153.93 114.57 154.153C114.825 154.377 114.818 154.89 114.491 154.98C113.711 155.197 113.263 156.096 113.358 156.9C113.452 157.704 113.975 158.399 114.589 158.927C116.053 160.185 118.328 160.632 119.948 159.583C121.568 158.534 121.949 155.832 120.414 154.662C123.892 154.591 127.372 154.602 130.849 154.695L132.153 154.733C132.575 154.747 133.041 154.78 133.335 155.082C133.556 155.309 133.629 155.638 133.679 155.951C134.064 158.358 133.643 160.888 132.499 163.041C132.316 163.384 131.894 163.762 131.607 163.501C130.385 162.391 128.33 162.542 127.079 163.619C125.829 164.697 125.346 166.486 125.567 168.121C125.779 169.695 126.927 171.377 128.513 171.297C129.763 171.235 131.152 170.142 132.096 170.963L130.506 178.07C130.223 179.333 129.716 180.83 128.45 181.101C121.146 182.663 113.488 182.545 106.236 180.759L105.884 180.669C105.004 180.439 104.127 180.141 103.441 179.553C102.245 178.53 101.872 176.86 101.633 175.305Z" fill="white"/>
<path d="M158.936 119.532L176.587 119.887L176.875 119.894C177.405 119.911 177.939 119.957 178.416 120.18C179.495 120.683 179.99 121.925 180.318 123.069C182.069 129.179 181.853 135.836 179.709 141.819L179.619 142.064C179.34 142.8 178.975 143.534 178.316 143.948C177.774 144.289 177.113 144.361 176.469 144.395L176.332 144.402C173.707 144.526 171.074 144.459 168.459 144.201C169.821 143.363 170.164 141.322 169.3 139.977C168.435 138.631 166.608 138.07 165.07 138.507C164.132 138.773 163.259 139.414 162.919 140.328C162.58 141.241 162.908 142.415 163.775 142.861C164.374 143.17 164.271 144.142 163.746 144.565C163.221 144.988 162.492 145.018 161.818 145.029L152.962 145.173C152.297 145.183 151.597 145.186 151.012 144.867C150.184 144.415 149.803 143.441 149.569 142.526C149.006 140.319 148.93 137.989 149.348 135.75C149.851 137.519 152.03 138.592 153.739 137.914C155.448 137.236 156.298 134.961 155.452 133.328C154.607 131.696 152.257 131.078 150.718 132.083L150.654 131.512C150.433 129.513 150.261 127.487 150.645 125.517C151.066 123.36 152.266 121.241 154.233 120.261C155.667 119.546 157.324 119.506 158.936 119.532Z" fill="white"/>
<path d="M105.404 139.387C102.919 139.396 100.433 139.294 97.9563 139.08L97.7159 139.058C96.8291 138.97 95.8991 138.792 95.3181 138.133C94.5339 137.243 94.7254 135.901 94.9609 134.727L94.9846 134.61C96.037 129.458 96.4504 124.176 96.213 118.923L96.1688 118.018C96.1028 116.389 96.2069 114.543 97.5597 113.705C97.9713 113.45 98.4491 113.332 98.9254 113.236L99.084 113.205C107.745 111.518 116.764 111.689 125.355 113.703C126.487 113.968 126.801 115.501 126.426 116.6C126.051 117.7 125.246 118.624 124.944 119.747C124.643 120.869 125.195 122.388 126.357 122.424C128.774 122.5 130.822 124.956 130.497 127.352C130.173 129.748 127.583 131.566 125.212 131.09C124.655 130.978 124.458 131.801 124.519 132.365L125.196 138.62C125.307 139.641 123.858 139.964 122.834 139.884L116.86 139.419C115.922 139.346 114.663 139.508 114.519 140.438C114.159 142.754 111.784 144.562 109.456 144.294C107.128 144.025 105.227 141.724 105.404 139.387Z" fill="white"/>
<path fill-rule="evenodd" clip-rule="evenodd" d="M89.3256 177.884C89.9884 178.045 90.9371 178.332 90.8845 178.958C89.8239 191.59 85.2582 189.265 81.187 192.887C80.1113 193.844 79.4684 196.108 79.0063 196.16C80.7197 196.951 83.2062 200.126 87.4854 200.271C99.4082 200.675 103.748 191.975 103.748 191.975C104.028 189.186 102.614 184.162 104.379 185.569C105.598 186.54 105.357 181.809 107.022 182.28C107.523 182.422 106.649 185.567 107.022 185.755C107.229 185.859 107.534 185.002 108.067 184.319C108.511 183.751 109.196 183.329 109.338 183.454C109.434 183.538 109.342 184.351 108.942 185.039C108.38 186.005 107.44 186.936 107.571 187.091C107.716 187.262 110.194 184.955 110.346 185.157C111.348 186.495 104.996 201.892 94.2781 204.799L93.4294 205.027C87.1813 206.687 84.5574 206.913 78.7685 204.799C76.0237 203.796 74.3165 213.161 72.7907 216.277C71.8273 218.245 67.1482 223.069 65.0114 221.61C62.1924 219.685 59.8937 216.104 57.4947 214.292L57.3406 214.178C55.7057 213.006 52.0078 211.227 46.247 208.842L46.5065 208.722C47.7085 208.176 50.8043 206.84 53.1814 204.799C56.5591 201.899 58.3884 195.67 60.7429 192.311C63.0677 188.994 66.1874 189.482 64.3046 188.896C64.3046 188.896 59.5337 186.368 57.3406 186.137C50.016 185.364 40.4676 188.825 37.4131 191.056C33.2219 194.117 37.3861 198.621 31.5949 196.413C29.6648 195.678 34.8379 186.145 41.9737 182.28C51.8921 176.908 61.2705 175.43 70.673 183.982C74.4995 187.463 74.8783 190.561 75.9044 192.923L75.6944 192.344C87.0373 191.596 70.042 180.24 84.2305 177.398C85.7206 177.1 87.2845 177.411 88.7781 177.756L89.3256 177.884Z" fill="white"/>
<path d="M82.9075 185.766C82.9075 186.256 82.5105 186.653 82.0208 186.653C81.5311 186.653 81.1341 186.256 81.1341 185.766C81.1341 185.276 81.5311 184.879 82.0208 184.879C82.5105 184.879 82.9075 185.276 82.9075 185.766Z" fill="#FFB61D"/>
<path d="M87.7844 187.539C87.7844 188.029 87.3874 188.426 86.8977 188.426C86.408 188.426 86.011 188.029 86.011 187.539C86.011 187.05 86.408 186.653 86.8977 186.653C87.3874 186.653 87.7844 187.05 87.7844 187.539Z" fill="#FFB61D"/>
<path fill-rule="evenodd" clip-rule="evenodd" d="M35.4212 220.154C45.0325 226.809 32.7351 217.617 43.2366 228.572C45.3573 230.784 56.0945 218.149 57.2021 225.637C57.6061 228.368 56.7251 231.211 57.2622 233.92C57.7634 236.446 68.7545 234.93 69.6035 233.824C72.681 229.818 63.1034 219.525 61.0951 217.88C49.8884 208.7 46.1903 209.337 35.7192 218.835L35.4212 220.154Z" fill="white"/>
<path fill-rule="evenodd" clip-rule="evenodd" d="M285.448 53.8033C287.334 54.0286 289.087 54.2381 289.087 52.0409C289.087 51.5182 282.742 46.9258 280.862 48.6943C278.444 50.9686 276.524 53.5766 274.664 56.1027C270.76 61.4058 267.122 66.3482 259.702 67.0845L259.613 67.0944C256.737 67.4417 262.095 69.9942 268.112 67.0845C272.249 65.0839 277.754 58.7547 280.368 55.7484C281.052 54.9617 281.539 54.4026 281.751 54.2082L281.805 54.1615C282.696 53.4743 284.106 53.6428 285.448 53.8033ZM294.399 59.7499L300.676 64.7328C301.899 65.7035 300.467 67.7955 298.909 67.8958C298.005 67.954 297.138 67.6757 296.266 67.3961C295.636 67.1938 295.003 66.9907 294.352 66.9137C290.665 66.4779 287.855 69.9498 285.568 72.874C283.478 75.5462 281.19 78.0632 278.728 80.3974L278.395 80.7102L278.048 81.0295C276.068 82.8298 273.847 84.4605 271.234 84.9303C267.388 85.6221 263.567 83.6525 260.425 81.3282C259.658 80.7609 258.905 80.1658 258.152 79.5704C255.818 77.7263 253.481 75.8789 250.713 74.8437C248.315 76.1523 246.071 77.7336 244.021 79.5374L244.113 79.4655C247.554 82.9143 249.96 87.3828 250.945 92.154L250.287 92.0384L249.852 91.9643C245.786 91.2825 241.432 90.8791 237.996 93.0549C236.785 93.8218 235.705 94.8925 234.637 95.9513C233.893 96.6884 233.156 97.4198 232.384 98.0386C232.58 98.1551 232.781 98.2762 232.986 98.4018C236.788 99.9571 240.819 100.953 244.908 101.348C245.533 101.409 246.164 101.457 246.798 101.505C249.731 101.728 252.701 101.953 255.208 103.426L256.087 103.951C257.498 104.786 259.068 105.581 260.25 104.614C260.59 104.336 260.813 103.955 261.036 103.572C261.172 103.339 261.308 103.105 261.472 102.894C261.904 102.335 262.76 101.941 263.297 102.4L263.515 104.109C263.673 103.01 264.733 102.116 265.843 102.147C266.953 102.178 267.962 103.129 268.059 104.235C268.235 106.243 265.958 107.445 264.026 108.084L254.011 111.311C250.432 112.464 246.466 111.867 243.016 110.372C239.804 108.98 236.97 106.862 234.262 104.636L233.663 104.14C231.618 102.438 228.854 100.589 226.533 101.891C230.565 102.136 233.505 105.61 235.91 108.896L236.141 109.213C236.53 109.75 236.931 110.315 237.027 110.97C237.296 112.807 235.21 114.025 233.449 114.609C234.933 115.404 234.197 117.713 233.047 118.943C231.374 120.732 229.182 122.02 226.818 122.658L226.602 123.405C226.589 123.455 226.582 123.481 226.584 123.482C227.699 123.405 228.386 124.903 227.932 125.924C227.478 126.945 226.357 127.489 225.281 127.793C221.737 128.795 217.734 128.004 214.837 125.73L214.273 126.024C211.826 127.291 209.294 128.469 206.573 128.868C203.644 129.298 200.418 128.694 198.301 126.625L198.44 126.93C198.739 127.594 199.009 128.281 199.018 129.005C199.029 129.84 198.597 130.742 197.806 131.01C196.501 131.452 195.361 130.057 194.683 128.856C194.312 129.78 194.695 130.82 195.067 131.831C195.491 132.985 195.902 134.1 195.164 134.964C194.396 135.863 192.938 135.633 191.881 135.103C187.92 133.116 186.059 128.115 186.917 123.767C187.775 119.419 190.901 115.779 194.624 113.374C192.096 111.522 190.247 108.764 189.494 105.722C189.695 105.981 190.591 105.148 191.864 103.965C194.192 101.801 197.781 98.4647 200.681 98.4959C201.237 98.5018 202.134 98.9316 203.013 99.3527C203.649 99.6576 204.276 99.9578 204.756 100.089C204.796 100.038 204.844 99.9914 204.9 99.9508L204.352 99.5567C203.247 98.7727 202.095 98.0352 200.788 97.7103C199.264 97.3313 197.458 97.6431 196.487 98.878C194.111 101.898 191.102 104.416 187.711 106.221L189.721 109.933C188.89 110.329 187.855 110.257 187.084 109.756L186.989 109.692L187.049 109.766C188.207 111.276 187.189 113.909 185.294 114.208C183.37 115.015 181.431 112.604 181.62 110.527C181.753 109.071 182.474 107.781 183.197 106.488C183.505 105.937 183.814 105.384 184.077 104.819C184.966 102.908 185.357 100.785 185.746 98.6756C186.278 95.7845 186.806 92.9188 188.606 90.6591C189.867 89.0763 191.632 87.9758 193.443 87.0732C200.63 83.4912 209.135 82.6346 216.892 84.7117C218.213 79.9783 220.833 75.6141 224.388 72.2217L224.6 72.0229C225.96 70.7697 227.652 69.65 229.457 69.8556L229.599 69.8745C231.391 70.1478 232.948 68.7653 234.25 67.4857L234.652 67.0917L234.966 66.7886C237.55 64.3206 240.55 62.0428 244.081 61.7971C247.221 61.5785 250.228 63.0205 252.939 64.6215C256.006 66.4328 258.923 68.4974 261.652 70.7872L262.131 71.1936L262.26 71.3042L262.517 71.5248C265.09 73.735 267.906 76.1534 271.255 75.953C274.689 75.7475 277.198 72.8969 279.51 70.27C279.697 70.0575 279.882 69.8465 280.067 69.6384C282.919 66.4284 286.166 63.6023 289.453 60.834L290.863 59.6502C291.289 59.2926 291.748 58.9202 292.3 58.8485C293.077 58.7477 293.785 59.2629 294.399 59.7499ZM232.332 114.163C231.634 114.024 230.682 114.085 229.475 114.346C230.27 114.349 230.938 114.334 231.481 114.303C231.744 114.27 232.006 114.23 232.263 114.178L232.332 114.163ZM206.482 98.7932C206.737 98.532 207.006 98.2564 207.303 98.0208C207.858 97.7286 208.482 97.5803 209.11 97.64C211.237 97.842 212.847 100.104 212.569 102.222C211.447 105.004 208.668 106.591 205.921 108.161C204.228 109.128 202.547 110.089 201.271 111.318C201.592 110.79 201.942 110.369 202.297 110.11C203.406 109.303 204.566 108.603 205.659 107.944C206.578 107.389 207.449 106.864 208.204 106.326C209.392 105.48 210.189 104.677 210.807 104.054C211.28 103.578 211.648 103.207 212.005 103.005C212.034 102.988 213.374 100.272 210.134 98.4959C207.688 97.1552 206.598 98.8513 206.012 99.7627C205.822 100.058 205.685 100.272 205.572 100.272C205.543 100.272 205.502 100.267 205.451 100.258C205.532 99.9688 205.655 99.6896 205.812 99.4281C206.032 99.2553 206.251 99.03 206.482 98.7932ZM209.004 97.4175C208.323 97.373 207.777 97.6465 207.303 98.0208L207.174 98.0926C206.617 98.4149 206.14 98.8831 205.812 99.4281L205.732 99.4892C205.57 99.6063 205.409 99.6926 205.242 99.732C204.905 99.8114 204.103 99.1963 203.424 98.6753C203.018 98.3637 202.656 98.0858 202.463 98.0103C201.193 97.5123 201.044 97.5052 200.163 97.4635C200.015 97.4564 199.845 97.4483 199.646 97.4368L199.281 97.4139C199.201 97.4093 199.112 97.4056 199.018 97.4017C198.288 97.371 197.238 97.3269 197.448 96.7594C201.199 86.6054 217.229 84.3957 214.578 95.874C214.359 96.823 213.784 97.6537 213.208 98.4844C212.921 98.8997 212.633 99.3151 212.39 99.7452C211.354 98.2733 210.226 97.4974 209.004 97.4175ZM236.25 88.9833L236.253 88.9774C235.371 90.6544 234.424 92.6728 233.411 95.0327C234.173 92.9359 235.126 90.9104 236.25 88.9833ZM243.397 90.5298L243.274 90.5344C242.296 90.5755 241.418 90.7219 240.642 90.9735C239.78 91.2527 238.863 91.7196 237.891 92.3741C239.592 91.4319 241.472 90.8016 243.397 90.5298Z" fill="white"/>
<path fill-rule="evenodd" clip-rule="evenodd" d="M193.381 133.057C192.613 133.956 191.499 133.666 190.478 132.671C188.343 130.589 187.485 126.572 188.343 122.225C189.201 117.877 192.545 116.086 196.268 113.681C194.597 112.993 191.571 108.631 191.268 104.392C192.297 105.721 192.351 108.105 193.381 109.434C194.358 110.694 196.31 112.229 197.288 113.49C197.412 113.651 197.52 113.921 197.343 114.022C193.774 116.049 191.462 116.72 189.357 122.224C187.252 127.729 191.525 132.821 192.093 132.671C192.793 132.486 192.545 131.558 192.143 130.957C191.01 129.259 192.088 126.996 193.012 125.176C193.506 125.73 192.318 127.318 192.568 128.97C192.813 130.583 194.065 132.256 193.381 133.057Z" fill="#E7EAEE"/>
<path d="M208.82 114.829C208.82 115.319 208.424 115.716 207.934 115.716C207.444 115.716 207.047 115.319 207.047 114.829C207.047 114.339 207.444 113.942 207.934 113.942C208.424 113.942 208.82 114.339 208.82 114.829Z" fill="#FFB61D"/>
<path d="M205.717 111.282C205.717 111.772 205.32 112.169 204.83 112.169C204.341 112.169 203.944 111.772 203.944 111.282C203.944 110.793 204.341 110.396 204.83 110.396C205.32 110.396 205.717 110.793 205.717 111.282Z" fill="#FFB61D"/>
<path d="M72.2273 119.991C72.74 120.947 71.9341 122.315 70.8488 122.331C69.9193 117.106 68.917 111.699 65.8924 107.338C60.1011 98.9882 48.1671 96.2457 43.2088 87.3756C39.8328 89.7785 34.6705 89.1659 31.9505 86.0397C30.2589 84.0955 27.3103 83.8568 24.7699 84.2906C22.2296 84.7244 19.7477 85.6832 17.1719 85.6017C16.0542 85.5664 14.8364 85.2658 14.1859 84.3562C13.5354 83.4466 13.9112 81.8458 15.0182 81.6874C19.8408 80.9971 24.6634 80.3068 29.486 79.6165C29.8647 79.5623 30.2666 79.4978 30.5541 79.2454C30.8794 78.9599 30.9815 78.5033 31.0659 78.0788C31.7641 74.5651 32.2671 70.3764 29.6798 67.8986C27.5355 65.8451 24.1511 65.916 21.2379 66.4889C18.3247 67.0617 15.3224 68.0043 12.4513 67.2478C9.58033 66.4914 7.17935 63.0809 8.72708 60.5472C9.76371 58.8503 8.59484 56.5871 6.99581 55.4049C5.39679 54.2228 3.40684 53.6405 1.85695 52.3946C0.307068 51.1487 -0.676551 48.7448 0.557966 47.1858C1.10091 46.5002 1.95104 46.139 2.7851 45.8759C5.54549 45.0051 8.62346 44.9387 11.2843 46.078C13.9451 47.2173 16.1059 49.6592 16.5389 52.5212C16.8917 54.8527 16.2214 57.5652 17.7627 59.3498C19.7779 61.6831 23.5024 60.3744 26.5853 60.3463C29.7384 60.3176 32.8564 61.9893 34.5775 64.6315C36.2986 67.2736 36.5674 70.8013 35.2667 73.6737C38.9292 69.9473 43.8622 67.0886 49.0836 67.2832C53.9063 67.463 58.3376 70.237 61.5631 73.8269C64.7886 77.4168 66.989 81.7889 69.1466 86.1059C69.9504 87.7141 71.9894 88.5858 73.7074 88.0556C75.4254 87.5255 76.6186 85.6564 76.3764 83.8748C77.8736 84.2012 78.0296 86.2252 78.0757 87.757C78.1726 90.9753 79.338 94.1524 81.3451 96.67C82.0165 95.4315 82.5288 94.1069 82.8653 92.7389C84.3303 94.4231 84.8769 96.8608 84.2713 99.0093C83.6658 101.158 81.9266 102.951 79.7978 103.623C78.6649 103.98 77.2798 104.151 76.7176 105.198C78.8419 108.918 80.6691 112.807 82.1759 116.817C82.984 118.967 83.567 121.734 81.8661 123.278C79.8998 121.826 78.7823 119.523 77.739 117.313C76.1116 113.865 74.4842 110.417 72.8567 106.969" fill="white"/>
<path d="M77.5953 85.476C77.168 89.6512 78.7308 93.9865 81.7238 96.9288C82.7911 96.2847 83.4735 95.0488 83.4499 93.8025C84.5715 95.6466 83.9431 98.1475 82.5484 99.7948C81.1538 101.442 79.1527 102.43 77.211 103.373C76.0984 103.913 74.9434 104.464 73.7072 104.501C71.8212 104.557 70.1315 103.423 68.5894 102.335L64.0651 99.1454C66.4025 103.507 71.7232 106.047 76.5846 105.122C79.9654 109.865 82.0355 115.532 82.5076 121.337L81.5988 119.658C81.5905 119.638 81.5795 119.617 81.5657 119.597L81.5988 119.658C81.7294 119.98 81.2186 120.336 80.8748 120.17C80.509 119.993 80.371 119.552 80.2629 119.16C78.9319 114.334 76.5467 109.801 73.3223 105.971L78.2046 116.316C79.2479 118.526 80.3653 120.829 82.3317 122.281C84.0326 120.737 83.4496 117.97 82.6415 115.82C81.1346 111.81 79.3075 107.92 77.1832 104.201C77.6397 103.351 78.6389 103.078 79.6051 102.814C79.8286 102.753 80.0506 102.692 80.2634 102.625C82.3922 101.954 84.1314 100.16 84.7369 98.012C85.3425 95.8635 84.7958 93.4258 83.3309 91.7416C82.9943 93.1096 82.4821 94.4343 81.8107 95.6728C79.8036 93.1551 78.6382 89.978 78.5413 86.7597C78.4952 85.228 78.3392 83.2039 76.8419 82.8776C77.0842 84.6591 75.891 86.5282 74.173 87.0584C72.455 87.5885 70.416 86.7169 69.6122 85.1086C67.4546 80.7917 65.2542 76.4195 62.0287 72.8296C58.8032 69.2398 54.3719 66.4657 49.5492 66.286C44.3278 66.0914 39.3948 68.95 35.7323 72.6765C37.033 69.804 36.7642 66.2764 35.0431 63.6342C33.322 60.9921 30.204 59.3203 27.0509 59.349C26.2511 59.3563 25.4081 59.4498 24.563 59.5435C22.1505 59.8111 19.7207 60.0805 18.2283 58.3526C17.1743 57.1321 17.1545 55.4778 17.1346 53.8082C17.1253 53.0362 17.1161 52.261 17.0045 51.5239C16.5715 48.662 14.4107 46.22 11.7499 45.0807C9.08905 43.9414 6.01108 44.0078 3.25069 44.8786C2.41664 45.1417 1.5665 45.5029 1.02356 46.1886C-0.210957 47.7475 0.772662 50.1515 2.32255 51.3973C3.13825 52.053 4.07584 52.5249 5.01419 52.9972C5.85876 53.4223 6.70395 53.8477 7.46141 54.4077C9.06043 55.5898 10.2293 57.853 9.19268 59.55C7.64495 62.0836 10.0459 65.4941 12.9169 66.2506C15.2902 66.8759 17.7533 66.3402 20.1816 65.8121C20.6908 65.7013 21.1985 65.5909 21.7035 65.4916C24.6167 64.9187 28.0011 64.8478 30.1454 66.9014C32.7327 69.3791 32.2296 73.5678 31.5315 77.0815C31.4471 77.5061 31.345 77.9626 31.0197 78.2482C30.7322 78.5005 30.3303 78.565 29.9516 78.6192L15.4838 80.6901C14.3768 80.8486 14.001 82.4494 14.6515 83.3589C15.302 84.2685 16.5198 84.5691 17.6375 84.6045C19.3464 84.6585 21.014 84.2547 22.6848 83.85C23.5323 83.6448 24.3806 83.4393 25.2355 83.2933C27.7759 82.8596 30.7245 83.0982 32.4161 85.0424C35.1361 88.1687 40.2984 88.7812 43.6744 86.3783C46.2835 91.0458 50.8242 94.0167 55.3849 97.0007C59.4914 99.6874 63.6142 102.385 66.358 106.341C69.3826 110.702 70.3848 116.109 71.3144 121.334C72.3997 121.318 73.2056 119.95 72.6929 118.993L71.6731 120.338C71.2964 112.103 67.0904 104.122 60.5101 99.1563C58.8806 97.9266 57.0936 96.8486 55.3104 95.7728C51.3922 93.4091 47.4925 91.0566 45.3229 87.1302C45.1275 86.7766 44.9455 86.4022 44.9139 85.9994C44.8739 85.4899 45.077 84.9986 45.273 84.5244L45.301 84.4567C46.0831 82.5595 46.6294 80.4776 46.2452 78.4618C45.8611 76.4459 44.3435 74.5397 42.3139 74.2364C45.7493 76.4338 46.4535 81.8872 43.6891 84.8852C40.9246 87.8833 35.4321 87.6227 32.9639 84.3764C30.9857 81.7747 27.0302 82.0933 23.8463 82.8311C20.6624 83.569 16.913 84.3412 14.4534 82.1889C19.7155 80.7421 25.1303 79.8513 30.5785 79.536C31.8764 79.4609 32.3855 77.8419 32.5603 76.5536C32.829 74.5732 33.0978 72.561 32.8033 70.5842C32.5089 68.6075 31.5694 66.6356 29.892 65.5492C27.8777 64.2445 25.2773 64.4467 22.8904 64.6964L16.5473 65.3601C15.1805 65.5031 13.7759 65.6433 12.4507 65.2794C11.1256 64.9155 9.87875 63.9274 9.62467 62.5769C9.4642 61.7239 9.70839 60.884 9.95458 60.0371C10.1318 59.4275 10.3101 58.8144 10.3391 58.1902C10.4219 56.413 9.27379 54.7845 7.87872 53.6804C7.02397 53.0039 6.07153 52.4716 5.11821 51.9388C4.51557 51.602 3.91257 51.265 3.33367 50.8912C2.244 50.1877 1.12595 49.0509 1.42893 47.7898C1.62269 46.9833 2.35254 46.4242 3.08631 46.0374C5.56373 44.7314 8.66037 44.6727 11.1855 45.8838C13.7107 47.0949 15.6033 49.5465 16.1357 52.296C16.267 52.9743 16.3267 53.6827 16.3863 54.3897C16.5241 56.025 16.6612 57.6527 17.683 58.8814C18.9035 60.3491 21.0129 60.7188 22.9196 60.6279C23.5734 60.5968 24.2271 60.5236 24.8802 60.4504C26.132 60.3102 27.3819 60.1702 28.6264 60.327C32.8114 60.854 36.1086 65.2083 35.4813 69.3794C35.4466 69.6101 35.402 69.8428 35.3572 70.0762C35.1975 70.9083 35.0362 71.7484 35.3205 72.5299C35.6844 73.5307 37.2762 74.0636 37.7806 73.1257C40.0405 68.9234 45.2239 66.8061 49.963 67.3611C54.7021 67.9162 58.9432 70.7697 62.0546 74.3873C65.1659 78.0048 67.2825 82.358 69.2128 86.7216C69.8927 88.2586 71.917 88.8152 73.5343 88.3579C75.1515 87.9007 76.4348 86.6917 77.5953 85.476Z" fill="#00160A"/>
<path d="M69.1028 92.8C69.1488 92.7936 69.2554 93.0023 69.4161 93.3169C69.8117 94.0913 70.5351 95.5073 71.4889 95.938C71.4465 96.3392 70.8155 96.1244 70.5531 95.8178C69.8073 94.9464 69.0158 93.9438 69.1028 92.8Z" fill="#00160A"/>
<path d="M71.3543 99.6784C71.8466 100.4 68.8982 100.759 67.9181 100.129C68.0907 100.096 68.3181 100.114 68.5699 100.134C68.8686 100.157 69.2016 100.183 69.5181 100.129C69.9815 100.052 70.429 99.9092 70.7667 99.8018C71.0944 99.6976 71.3188 99.6262 71.3543 99.6784Z" fill="#00160A"/>
<path d="M70.6465 96.9973C69.4728 97.1985 68.0309 95.6353 68.0309 94.1649C68.3691 95.252 69.571 96.1143 70.235 96.5908C70.5729 96.8333 70.7716 96.9758 70.6465 96.9973Z" fill="#00160A"/>
<path d="M74.8517 103.145C73.2885 103.145 72.5799 100.509 73.2885 100.34C73.4581 100.263 73.466 100.499 73.4778 100.848C73.4902 101.214 73.5068 101.705 73.7199 102.088C73.9566 102.513 74.4579 102.796 74.7505 102.962C74.9718 103.087 75.0737 103.145 74.8517 103.145Z" fill="#00160A"/>
<path d="M76.5932 99.5558C76.9364 99.7449 77.2495 100.038 77.3383 100.42C77.4272 100.801 77.2138 101.264 76.8302 101.343C76.71 101.167 76.7751 101.055 76.8438 100.936C76.9447 100.762 77.0533 100.575 76.5932 100.151C76.3995 99.9727 76.1739 99.8951 76.0157 99.8406C75.8939 99.7988 75.812 99.7706 75.8152 99.7207C75.8351 99.4036 76.3148 99.4026 76.5932 99.5558Z" fill="#00160A"/>
<path d="M73.6672 96.1209C73.5899 96.1747 73.5367 96.2116 73.5823 96.254C73.7236 96.3854 73.8897 96.4482 74.0558 96.3528C74.1825 96.28 74.2467 96.1325 74.2766 95.9895C74.4434 95.1908 73.6001 94.3661 72.8053 94.5506C72.8758 94.7365 73.0108 94.796 73.1747 94.8682C73.3639 94.9515 73.5915 95.0518 73.8028 95.3826C74.0877 95.8286 73.8263 96.0103 73.6672 96.1209Z" fill="#00160A"/>
<path d="M73.4 103.649C72.4795 103.381 71.5693 101.208 72.0593 101.043C72.3649 100.94 72.3632 100.957 72.3454 101.129C72.3292 101.286 72.2994 101.574 72.4795 102.02C72.7031 102.574 73.0164 103.024 73.2159 103.31C73.3526 103.506 73.4358 103.626 73.4 103.649Z" fill="#00160A"/>
<path fill-rule="evenodd" clip-rule="evenodd" d="M284.225 54.2969C282.249 54.5395 280.692 56.1333 279.71 57.8652C279.235 58.7024 278.855 59.5884 278.475 60.4742C278.069 61.4206 277.663 62.3676 277.142 63.254C274.655 67.4828 269.931 69.7944 265.403 71.6834C264.622 72.0091 263.255 71.8559 263.498 71.0458C270.911 69.6393 277.292 63.7704 279.313 56.5012C279.551 55.6448 278.437 54.9221 277.578 55.1485C276.8 55.3534 276.246 56.002 275.747 56.6455L275.59 56.8481C271.461 62.2184 265.534 66.7588 258.767 67.0519C258.287 67.0726 257.602 66.7804 257.813 66.3496C262.825 66.1816 267.551 63.7075 271.273 60.3459C274.995 56.9842 277.833 52.7707 280.488 48.5159C280.899 47.8578 281.885 47.9984 282.619 48.2488C284.872 49.0172 287.034 50.0535 289.044 51.3291C290.123 52.0139 289.268 53.841 288.041 54.1993C287.336 54.4052 286.6 54.3552 285.861 54.305C285.314 54.2679 284.765 54.2306 284.225 54.2969ZM282.3 50.1062L282.127 50.0537C281.6 49.9025 281.011 49.8186 280.586 50.1459C280.422 50.2728 280.304 50.4479 280.196 50.6266L278.785 53.0053C279.526 53.1766 280.236 53.48 280.871 53.8968C281.39 54.2374 282.106 54.2505 282.637 53.9291C283.168 53.6077 283.489 52.9681 283.428 52.3501C283.406 52.1196 283.783 52.0569 283.941 52.2265C284.059 52.3531 284.094 52.5269 284.129 52.7C284.141 52.7587 284.153 52.8172 284.168 52.8739C284.228 53.0977 284.41 53.3388 284.637 53.2928C284.867 53.074 284.993 52.75 284.971 52.4333C285.053 52.1064 285.563 52.3978 285.642 52.7255C285.721 53.0532 285.869 53.5193 286.195 53.4317C286.673 53.3134 286.824 52.6471 286.59 52.2128C286.357 51.7786 285.888 51.5331 285.441 51.3259C284.421 50.8534 283.372 50.4457 282.3 50.1062ZM278.013 53.9732C278.749 54.7143 279.821 55.1087 280.862 55.0217C280.224 54.218 279.138 53.7982 278.125 53.9535L278.013 53.9732Z" fill="#00160A"/>
<path d="M225.281 127.793C221.737 128.795 217.734 128.004 214.837 125.73C212.214 127.105 209.503 128.438 206.573 128.868C203.644 129.298 200.418 128.694 198.301 126.625C198.651 127.383 199.007 128.17 199.018 129.005C199.029 129.84 198.597 130.742 197.806 131.01C196.501 131.452 195.361 130.057 194.683 128.856C194.312 129.78 194.695 130.82 195.067 131.831C195.491 132.985 195.902 134.1 195.164 134.964C194.396 135.863 192.938 135.633 191.881 135.103C187.92 133.116 186.059 128.115 186.917 123.767C187.775 119.419 190.901 115.779 194.624 113.374C192.096 111.522 190.247 108.764 189.494 105.722C190.009 106.386 190.391 107.158 190.773 107.93C191.154 108.701 191.536 109.473 192.051 110.137C192.54 110.768 193.161 111.291 193.783 111.814C194.404 112.337 195.026 112.859 195.514 113.49C195.639 113.651 195.746 113.921 195.569 114.022C192.001 116.049 188.948 119.279 187.936 123.256C186.923 127.233 188.332 131.928 191.827 134.079C192.443 134.459 193.177 134.763 193.877 134.578C194.576 134.394 195.101 133.516 194.699 132.914C193.566 131.217 193.428 128.903 194.352 127.084L197.28 130.367C197.954 130.194 198.12 129.288 197.941 128.617C197.884 128.404 197.806 128.193 197.728 127.984C197.561 127.532 197.394 127.081 197.439 126.609C197.505 125.917 198.408 125.297 198.885 125.803C200.79 127.821 203.85 128.394 206.589 127.95C209.328 127.505 211.837 126.191 214.291 124.895L217.187 123.365C216.979 124.201 216.301 124.902 215.474 125.14C218.27 127.149 222.008 127.78 225.308 126.8C225.877 126.632 226.46 126.398 226.829 125.934C227.197 125.469 227.257 124.714 226.812 124.322C226.757 124.275 226.697 124.233 226.636 124.191C226.517 124.109 226.398 124.027 226.33 123.902C226.227 123.713 226.387 123.396 226.584 123.482C227.699 123.405 228.386 124.903 227.932 125.924C227.478 126.945 226.357 127.489 225.281 127.793Z" fill="#00160A"/>
<path d="M205.494 112.97C204.857 112.765 204.143 113.204 203.866 113.813C203.589 114.422 203.668 115.137 203.877 115.773C203.944 115.056 204.035 114.516 204.306 114.045C204.423 113.842 204.785 113.65 205.103 113.482C205.515 113.264 205.853 113.085 205.494 112.97Z" fill="#00160A"/>
<path d="M204.954 111.169C205.883 110.938 206.932 111.295 207.526 112.046C208.121 112.796 208.228 113.9 207.79 114.751C207.685 114.623 207.66 114.393 207.628 114.104C207.536 113.25 207.389 111.885 204.954 111.169Z" fill="#00160A"/>
<path d="M204.149 117.767C203.854 118.134 204.878 119.103 206.479 118.435C206.776 118.311 206.534 118.297 206.152 118.274C205.804 118.254 205.34 118.227 205.064 118.103C204.83 117.999 204.71 117.832 204.62 117.707C204.487 117.521 204.42 117.428 204.149 117.767Z" fill="#00160A"/>
<path d="M207.393 118.994C208.418 118.483 207.775 119.982 205.629 119.798C205.435 119.781 205.182 119.707 205.184 119.512C205.185 119.443 205.366 119.427 205.648 119.403C206.087 119.365 206.768 119.305 207.393 118.994Z" fill="#00160A"/>
<path d="M201.062 116.15C201.449 116.527 202.011 116.537 202.386 116.464C202.614 116.42 202.726 116.216 202.517 116.15C202.468 116.134 202.387 116.121 202.289 116.106C202.066 116.071 201.758 116.022 201.551 115.898C201.419 115.818 201.343 115.545 201.278 115.311C201.212 115.07 201.156 114.87 201.062 114.964C200.877 115.149 200.676 115.773 201.062 116.15Z" fill="#00160A"/>
<path d="M201.405 117.425C201.592 117.71 200.88 117.612 200.727 117.425C200.574 117.239 200.423 116.537 200.679 116.537C200.754 116.537 200.779 116.647 200.81 116.78C200.838 116.902 200.87 117.043 200.949 117.133C201.103 117.307 201.206 117.333 201.281 117.352C201.333 117.365 201.371 117.375 201.405 117.425Z" fill="#00160A"/>
<path fill-rule="evenodd" clip-rule="evenodd" d="M233.424 116.013C233.807 116.78 233.136 117.64 232.488 118.202C229.857 120.487 226.711 122.177 223.353 123.111C226.972 123.135 230.575 121.586 233.047 118.943C234.197 117.713 234.933 115.404 233.449 114.609C235.21 114.025 237.296 112.807 237.027 110.97C236.931 110.315 236.53 109.75 236.141 109.213L235.91 108.896C233.505 105.61 230.565 102.136 226.533 101.891C228.854 100.589 231.618 102.438 233.663 104.14L234.262 104.636C236.97 106.862 239.804 108.98 243.016 110.372C246.466 111.867 250.432 112.464 254.011 111.311L264.026 108.084C265.958 107.445 268.235 106.243 268.059 104.235C267.962 103.129 266.953 102.178 265.843 102.147C264.733 102.116 263.673 103.01 263.515 104.109L263.297 102.4C262.76 101.941 261.904 102.335 261.472 102.894C261.308 103.105 261.172 103.339 261.036 103.572C260.813 103.955 260.59 104.336 260.25 104.614C259.068 105.581 257.498 104.786 256.087 103.951L255.208 103.426C252.701 101.953 249.731 101.728 246.798 101.505L246.796 101.505C246.163 101.457 245.532 101.409 244.908 101.348C240.819 100.953 236.788 99.9571 232.986 98.4018C236.473 101.261 241.029 101.741 245.625 102.225C247.94 102.469 250.266 102.714 252.471 103.265C254.219 103.703 256.152 104.594 256.581 106.344C257.204 108.886 254.185 110.855 251.578 111.093C247.316 111.482 243.162 109.669 239.544 107.356L239.136 107.092C237.827 106.232 236.557 105.307 235.289 104.382C232.961 102.686 230.634 100.991 228.064 99.7025C230.719 99.8361 232.657 97.9143 234.637 95.9513C235.705 94.8925 236.785 93.8218 237.996 93.0549C241.555 90.8013 246.099 91.3146 250.287 92.0384L250.945 92.154C249.96 87.3828 247.554 82.9143 244.113 79.4655L250.026 91.09C243.8 89.016 236.334 91.6077 232.733 97.0931C235.512 87.7126 242.125 79.53 250.713 74.8437C253.481 75.8789 255.818 77.7263 258.152 79.5704C258.905 80.1658 259.658 80.7609 260.425 81.3282C263.567 83.6525 267.388 85.6221 271.234 84.9303C274 84.4328 276.328 82.6339 278.395 80.7102L278.728 80.3974C281.19 78.0632 283.478 75.5462 285.568 72.874C287.855 69.9498 290.665 66.4779 294.352 66.9137C295.003 66.9907 295.636 67.1938 296.266 67.3961C297.138 67.6757 298.005 67.954 298.909 67.8958C300.467 67.7955 301.899 65.7035 300.676 64.7328L294.399 59.7499C293.785 59.2629 293.077 58.7477 292.3 58.8485C291.748 58.9202 291.289 59.2926 290.863 59.6502L289.453 60.834C286.166 63.6023 282.919 66.4284 280.067 69.6384C279.882 69.8465 279.697 70.0575 279.51 70.27C277.198 72.8969 274.689 75.7475 271.255 75.953C267.906 76.1534 265.09 73.735 262.517 71.5248C262.388 71.4138 262.259 71.3033 262.131 71.1936L261.652 70.7872C258.923 68.4974 256.006 66.4328 252.939 64.6215C250.228 63.0205 247.221 61.5785 244.081 61.7971C240.406 62.0528 237.307 64.5099 234.652 67.0917L234.25 67.4857C232.948 68.7653 231.391 70.1478 229.599 69.8745L229.457 69.8556C227.652 69.65 225.96 70.7697 224.6 72.0229L224.388 72.2217C220.833 75.6141 218.213 79.9783 216.892 84.7117C209.135 82.6346 200.63 83.4912 193.443 87.0732C191.632 87.9758 189.867 89.0763 188.606 90.6591C186.806 92.9188 186.278 95.7845 185.746 98.6756C185.357 100.785 184.966 102.908 184.077 104.819C183.814 105.384 183.505 105.937 183.197 106.488C182.474 107.781 181.753 109.071 181.62 110.527C181.431 112.604 183.37 115.015 185.294 114.208C187.221 113.904 188.24 111.188 186.989 109.692C187.769 110.25 188.856 110.346 189.721 109.933L187.711 106.221C191.102 104.416 194.111 101.898 196.487 98.878C197.458 97.6431 199.264 97.3313 200.788 97.7103C202.095 98.0352 203.247 98.7727 204.352 99.5567L204.9 99.9508C204.261 100.416 204.629 101.652 205.419 101.691C204.909 99.6168 206.984 97.438 209.11 97.64C211.237 97.842 212.847 100.104 212.569 102.222C211.447 105.004 208.668 106.591 205.921 108.161C202.939 109.864 199.993 111.547 199.237 114.714C198.476 117.903 200.936 121.475 204.187 121.902C207.439 122.328 210.737 119.511 210.824 116.233C210.824 116.233 211.305 116.283 211.475 115.773C211.743 114.969 211.998 114.078 212.249 113.195C212.723 111.536 213.189 109.904 213.726 108.93C215.234 106.197 218.039 104.033 221.159 103.958C222.15 103.934 223.135 103.787 224.118 103.64C225.374 103.453 226.629 103.265 227.893 103.335C230.148 103.459 232.618 104.779 232.943 107.013C230.444 106.528 227.836 106.61 225.372 107.251L234.096 108.289C236.011 108.517 236.37 111.483 235.005 112.846C233.717 114.131 231.756 114.342 229.92 114.424L229.587 114.438C229.908 115.092 230.706 115.16 231.505 115.228C232.301 115.295 233.098 115.363 233.424 116.013ZM279.831 77.8899C277.127 80.8928 273.965 84.1201 269.926 84.2708C266.395 84.4025 263.306 82.1266 260.448 80.0216L260.238 79.8662L259.555 79.3676C256.363 77.0521 253.057 74.8937 249.652 72.9031C247.016 71.3616 243.984 69.8726 241.027 70.6372L245.708 72.1103C244.919 72.5336 244.638 73.6856 245.143 74.425C245.251 73.3179 246.532 72.614 247.631 72.7871C248.729 72.9602 249.623 73.7668 250.304 74.6467C244.403 76.9094 239.383 81.389 236.465 86.9949C235.922 88.0369 235.451 89.1148 234.979 90.1922L234.979 90.1934C234.339 91.6544 233.699 93.1153 232.885 94.4846C231.47 96.8642 229.375 99.0289 226.68 99.6594C226.302 99.7477 225.915 99.8056 225.529 99.8635C224.754 99.9795 223.981 100.095 223.292 100.454C223.215 100.494 223.135 100.537 223.053 100.581L223.052 100.581C222.242 101.013 221.245 101.546 220.746 100.844C219.929 99.6924 218.626 98.8982 217.229 98.6991C219.539 90.9357 225.484 84.3385 232.966 81.2349C233.389 81.0592 233.227 80.4256 232.996 80.0299L229.593 74.2067C229.278 73.6689 229.646 72.9374 230.2 72.6521C230.754 72.3668 231.414 72.4096 232.032 72.4866C235.969 72.9768 239.759 74.5921 242.839 77.0921C243.331 77.492 244.138 77.8848 244.499 77.3624C240.985 73.819 235.959 72.1761 231.014 71.514C235.289 71.0961 239.71 72.4425 243.027 75.1723L243.188 75.3045C243.981 75.9478 244.94 76.6315 245.853 76.2371C242.149 72.6842 237.084 70.5873 231.953 70.4824C233.009 69.6971 233.995 68.8242 234.981 67.9513C235.983 67.0644 236.985 66.1775 238.06 65.3825C240.193 63.8052 242.743 62.5737 245.391 62.7284C247.314 62.8407 249.117 63.6704 250.818 64.5736C254.414 66.4829 257.8 68.7876 260.895 71.4327C261.114 71.62 261.335 71.81 261.557 72.0013C264.499 74.5364 267.708 77.302 271.51 76.9448C273.829 76.7269 275.883 75.3263 277.515 73.6648C278.418 72.7457 279.223 71.739 280.028 70.732L280.029 70.7311C280.679 69.9183 281.329 69.1052 282.031 68.3378C283.043 67.2306 284.216 66.1894 285.656 65.7667C287.096 65.344 288.851 65.694 289.706 66.927L279.831 77.8899ZM186.651 98.4562C187.173 95.6028 187.689 92.7812 189.617 90.7039C190.561 89.6866 191.769 88.954 192.999 88.3107C199.291 85.0198 206.629 83.7671 213.656 84.7841C215.375 85.033 217.506 85.9978 217.478 87.6306C217.468 87.7304 217.459 87.8303 217.45 87.9302C217.467 87.828 217.477 87.7281 217.478 87.6306C218.179 80.8036 222.156 74.3808 227.965 70.7232C228.48 74.3158 230.054 77.7501 232.439 80.4857C226.118 83.1483 220.869 88.2676 218.05 94.5206L218.005 94.6194C217.204 96.3724 215.934 98.5248 214.08 98.0883L214.998 92.4151C215.082 91.8949 215.16 91.3316 214.913 90.8659C214.638 90.346 214.049 90.1064 213.475 89.9334L213.274 89.8748C209.95 88.9339 206.221 88.0304 203.185 89.6792C201.579 90.5515 200.427 92.0134 199.349 93.5142L198.548 94.6385C196.649 97.2909 194.522 99.7805 192.199 102.071C191.263 102.994 190.251 103.911 188.999 104.308C187.746 104.705 186.19 104.438 185.446 103.354C186.039 101.806 186.346 100.125 186.651 98.4562ZM207.137 120.563C205.163 121.295 203.557 120.934 202.017 120.037C201.358 119.653 200.737 119.159 200.366 118.492C199.809 117.493 199.892 116.253 200.214 115.155C200.693 113.513 201.676 112.022 202.994 110.934C203.906 110.181 204.956 109.628 206.006 109.076C206.368 108.885 206.73 108.694 207.087 108.496C210.568 106.554 213.571 103.762 215.76 100.431C216.197 99.7657 217.118 99.5501 217.889 99.7465C218.661 99.9429 219.303 100.471 219.859 101.04C220.257 101.447 220.552 102.257 220.021 102.463C216.304 103.902 213.311 107.095 212.115 110.898C212.082 111.001 212.051 111.106 212.019 111.211C211.837 111.813 211.653 112.421 211.263 112.908C210.805 113.479 209.886 115.492 210.355 116.446C210.355 116.446 209.11 119.831 207.137 120.563ZM212.294 90.443C212.896 90.5781 213.552 90.7722 213.882 91.2936C214.153 91.7203 214.135 92.263 214.093 92.7664C213.925 94.7582 213.507 96.7287 212.85 98.6165C212.739 98.9356 212.396 99.3194 212.146 99.092C211.863 97.6629 210.557 96.5009 209.105 96.3855C207.652 96.2702 206.18 97.2116 205.674 98.5781C205.575 98.8478 205.224 98.9482 204.947 98.8737C204.738 98.8179 204.56 98.6919 204.39 98.5559L204.222 98.4188C202.491 97.0133 200.15 96.3893 197.95 96.7475C199.122 94.7748 200.609 92.9897 202.337 91.4803C203.044 90.8626 203.811 90.2801 204.705 89.9904C205.545 89.7178 206.449 89.7204 207.331 89.7653C209.001 89.8503 210.663 90.0773 212.294 90.443ZM291.187 65.3388C290.346 64.4422 289.194 63.8423 287.976 63.6718L289.358 61.9168C289.796 61.3667 290.308 60.8022 290.999 60.7154C291.497 60.6528 291.987 60.8573 292.441 61.0734C293.959 61.7966 295.389 62.7025 296.692 63.7652C297.127 64.1199 297.564 64.5157 297.753 65.044C297.942 65.5722 297.79 66.2637 297.283 66.5053C296.777 66.747 296.048 66.2177 296.255 65.6965L296.275 65.638C296.36 65.3417 296.226 64.9916 295.958 64.8357L295.469 65.7736C295.424 65.8555 295.372 65.9349 295.291 65.9795C294.964 66.1599 294.699 65.6525 294.678 65.28L294.674 65.2284C294.639 64.8616 294.447 64.3938 294.109 64.5081C294.064 65.1363 293.615 65.7167 293.018 65.918C292.421 66.1193 291.712 65.9297 291.295 65.4574L291.187 65.3388ZM185.837 111.635L185.246 109.395C184.966 109.316 184.692 109.597 184.652 109.886C184.626 110.078 184.668 110.269 184.726 110.457L184.817 110.736C185.12 111.687 185.113 112.735 184.796 113.681C184.21 112.483 183.905 111.149 183.91 109.815C183.529 109.606 183.269 110.245 183.296 110.68L183.461 113.273C182.661 112.552 182.379 111.382 182.515 110.313C182.652 109.244 183.154 108.257 183.718 107.339C184.013 106.86 184.339 106.38 184.807 106.069C185.276 105.758 185.921 105.651 186.399 105.947C186.797 106.192 186.981 106.628 187.168 107.07C187.31 107.405 187.453 107.742 187.69 108.004C187.774 108.096 187.873 108.191 187.972 108.287C188.359 108.66 188.773 109.059 188.502 109.461C187.669 108.95 186.908 108.323 186.246 107.604C186.006 109.089 186.226 110.644 186.867 112.005C186.998 112.283 186.565 112.548 186.292 112.406C186.019 112.263 185.916 111.932 185.837 111.635ZM265.811 104.306C266.238 103.928 266.628 103.583 266.816 103.677C267.366 103.951 265.873 105.156 265.082 105.496C265.14 105.878 265.694 105.707 266.017 105.496C266.341 105.286 267.246 105.059 267.069 105.288C265.964 106.718 263.831 107.853 261.858 108.076C261.059 108.166 260.07 107.952 259.816 107.189C259.583 106.493 260.101 105.806 260.648 105.288L260.779 105.167C261.009 104.962 261.379 104.761 261.59 104.985C262.154 105.582 263.139 105.094 263.788 104.592C263.788 104.592 265.476 102.964 265.759 103.068C266.04 103.172 264.917 105.007 264.917 105.007C265.195 104.851 265.512 104.57 265.811 104.306ZM257.735 105.816C257.937 105.771 258.147 105.852 258.322 105.964C258.956 106.371 259.258 107.229 259.02 107.944C258.782 108.659 258.025 109.164 257.274 109.109C257.167 109.101 257.056 109.081 256.972 109.014C256.797 108.874 256.819 108.605 256.858 108.384L257.141 106.765C257.209 106.374 257.348 105.904 257.735 105.816ZM221.998 102.14C223.085 101.957 224.21 102.002 225.279 102.271C225.217 102.712 224.702 102.912 224.266 103.002C222.921 103.28 221.531 103.34 220.167 103.179C220.509 102.537 221.28 102.261 221.998 102.14ZM290.142 66.2395L287.289 64.555C288.695 64.3449 290.194 65.0832 290.884 66.3254C290.686 66.5058 290.372 66.3757 290.142 66.2395ZM227.633 100.025C226.424 100.345 225.228 100.718 224.051 101.14C225.274 101.817 227.01 101.276 227.633 100.025ZM215.812 98.4959C216.145 98.5645 215.994 99.0884 215.728 99.3005C214.92 99.946 213.692 100.002 212.828 99.432L215.812 98.4959ZM291.724 59.42C291.92 59.3736 292.121 59.4529 292.305 59.5357C293.496 60.0736 294.587 60.8324 295.506 61.762L291.407 59.6689C291.47 59.5454 291.589 59.452 291.724 59.42ZM229.269 70.7283L229.31 70.7566C229.679 70.7034 230.061 70.7347 230.418 70.8475C230.107 71.4352 229.674 71.9582 229.155 72.3736C228.895 71.8584 228.941 71.2026 229.269 70.7283ZM299.417 64.9767L299.426 65.0026C299.879 65.1866 300.187 65.6779 300.156 66.1659C299.223 65.6819 298.468 64.8634 298.06 63.8944C298.618 64.0875 299.105 64.4762 299.417 64.9767ZM214.54 100.757L214.472 100.849C214.236 101.17 213.954 101.519 213.558 101.565C213.162 101.611 212.756 101.099 213.035 100.814C213.505 100.604 214.056 100.583 214.54 100.757ZM186.484 104.734C186.838 104.817 187.237 105.074 187.181 105.433C186.372 105.327 185.573 105.14 184.801 104.875C185.329 104.654 185.927 104.604 186.484 104.734ZM261.668 104.665C261.484 104.745 261.318 104.41 261.493 104.312C261.493 104.312 262.7 102.195 262.752 103.677C262.778 104.046 261.997 104.497 261.668 104.665ZM210.661 115.535C210.751 114.893 210.92 113.681 211.263 113.681C211.75 113.63 211.562 114.458 211.431 115.042C211.394 115.203 211.362 115.345 211.349 115.445C211.305 115.796 210.978 116.071 210.603 115.903C210.617 115.851 210.636 115.716 210.661 115.535Z" fill="#00160A"/>
<path fill-rule="evenodd" clip-rule="evenodd" d="M97.513 137.75C99.9893 137.964 102.475 138.066 104.961 138.056C104.784 140.393 106.684 142.695 109.013 142.964C111.341 143.232 113.715 141.424 114.075 139.108C114.22 138.178 115.479 138.016 116.417 138.089L122.39 138.554C123.414 138.633 124.863 138.311 124.753 137.29L124.076 131.035C124.015 130.47 124.212 129.648 124.768 129.76C127.139 130.236 129.729 128.418 130.054 126.022C130.379 123.626 128.33 121.17 125.913 121.094C124.752 121.058 124.199 119.539 124.501 118.417C124.663 117.813 124.971 117.267 125.279 116.72C125.544 116.25 125.81 115.779 125.983 115.27C126.358 114.171 126.043 112.638 124.912 112.373C116.321 110.358 107.302 110.187 98.6406 111.875L98.482 111.906C98.0057 112.002 97.528 112.12 97.1164 112.375C95.7636 113.213 95.6595 115.059 95.7255 116.688L95.7697 117.593C96.0071 122.846 95.5937 128.128 94.5412 133.28L94.5176 133.397C94.282 134.571 94.0906 135.913 94.8748 136.803C95.4558 137.462 96.3857 137.64 97.2725 137.728L97.513 137.75ZM112.751 139.01C112.82 139.348 112.733 139.701 112.597 140.018L112.554 140.114C111.755 141.802 109.375 142.526 107.781 141.539C106.156 140.533 105.758 138.006 106.994 136.549C103.852 136.925 100.668 136.95 97.521 136.623C96.5469 136.521 95.2736 135.995 95.4728 135.037C96.8426 128.443 97.2705 121.654 96.7394 114.941C96.6432 113.724 98.1409 113.093 99.3412 112.873C107.086 111.451 115.101 111.509 122.824 113.045C123.812 113.241 125.084 113.992 124.646 114.9C123.615 117.035 123.203 119.466 123.472 121.822C123.541 122.423 124.012 123.209 124.536 122.908C125.949 122.097 127.993 122.747 128.677 124.226C129.361 125.704 128.534 127.684 127.001 128.235C125.468 128.787 123.569 127.788 123.154 126.213C122.784 129.457 122.916 132.759 123.544 135.964C123.762 137.075 122.145 137.494 121.016 137.41L112.004 136.738C111.728 137.173 112.011 137.623 112.309 138.096C112.495 138.391 112.686 138.695 112.751 139.01Z" fill="#00160A"/>
<path fill-rule="evenodd" clip-rule="evenodd" d="M159.38 118.645L177.03 119L177.318 119.007C177.848 119.024 178.383 119.07 178.86 119.293C179.939 119.797 180.433 121.038 180.761 122.183C182.513 128.292 182.297 134.949 180.153 140.933L180.062 141.178C179.783 141.914 179.419 142.648 178.76 143.062C178.217 143.403 177.556 143.474 176.913 143.508L176.775 143.515C174.151 143.64 171.517 143.573 168.902 143.314C170.264 142.476 170.608 140.435 169.743 139.09C168.878 137.745 167.051 137.183 165.513 137.62C164.575 137.886 163.702 138.527 163.363 139.441C163.023 140.355 163.351 141.528 164.218 141.974C164.817 142.283 164.714 143.255 164.189 143.678C163.665 144.101 162.935 144.131 162.261 144.142L153.406 144.286C152.74 144.297 152.04 144.3 151.456 143.981C150.627 143.528 150.246 142.554 150.012 141.64C149.449 139.433 149.373 137.103 149.791 134.864C150.294 136.632 152.474 137.706 154.183 137.028C155.892 136.35 156.742 134.074 155.896 132.441C155.05 130.809 152.7 130.191 151.161 131.196L151.097 130.626C150.876 128.626 150.704 126.6 151.088 124.63C151.509 122.473 152.709 120.354 154.676 119.374C156.111 118.659 157.768 118.62 159.38 118.645ZM178.647 120.492C178.205 120.226 177.672 120.18 177.154 120.158L177.024 120.153C171.534 119.948 166.04 119.844 160.546 119.842L158.714 119.845C157.556 119.849 156.359 119.865 155.299 120.332C153.717 121.029 152.691 122.645 152.273 124.323C151.855 126 151.955 127.758 152.058 129.484C154.84 128.717 157.833 131.544 157.503 134.411C157.173 137.278 153.994 139.348 151.162 138.795C151.034 139.701 150.907 140.641 151.173 141.517C151.439 142.392 152.216 143.183 153.13 143.154L161.341 142.89C161.849 142.874 162.551 142.611 162.404 142.124C161.565 139.36 163.985 136.134 166.873 136.167C169.761 136.2 172.108 139.479 171.207 142.223C173.012 142.63 174.888 142.715 176.722 142.474C177.318 142.396 177.939 142.27 178.395 141.879C178.844 141.495 179.064 140.914 179.251 140.354C181.157 134.645 181.365 128.381 179.844 122.557C179.647 121.804 179.375 120.994 178.744 120.555L178.647 120.492Z" fill="#00160A"/>
<path fill-rule="evenodd" clip-rule="evenodd" d="M100.747 174.862C99.8726 169.174 99.8738 163.353 100.75 157.665L100.794 157.39C101.012 156.099 101.394 154.736 102.472 154.025C103.28 153.493 104.3 153.453 105.272 153.453L112.718 153.473C113.057 153.474 113.429 153.487 113.683 153.71C113.938 153.934 113.931 154.447 113.605 154.537C112.825 154.753 112.376 155.653 112.471 156.456C112.566 157.26 113.088 157.956 113.702 158.484C115.166 159.742 117.441 160.189 119.061 159.14C120.681 158.091 121.062 155.388 119.527 154.219C123.005 154.148 126.485 154.159 129.963 154.251L131.267 154.29C131.688 154.303 132.154 154.337 132.449 154.639C132.67 154.866 132.742 155.195 132.792 155.508C133.177 157.915 132.756 160.444 131.612 162.597C131.43 162.94 131.008 163.318 130.72 163.057C129.498 161.948 127.443 162.099 126.193 163.176C124.942 164.253 124.459 166.042 124.68 167.678C124.893 169.252 126.04 170.933 127.626 170.854C128.074 170.831 128.538 170.677 128.995 170.526C129.813 170.254 130.603 169.992 131.21 170.519L129.619 177.627C129.336 178.889 128.829 180.387 127.564 180.658C120.26 182.22 112.602 182.102 105.349 180.315L104.997 180.226C104.117 179.996 103.241 179.698 102.554 179.11C101.359 178.087 100.986 176.417 100.747 174.862ZM129.8 171.79C127.733 172.762 125.041 171.928 123.748 170.046C122.455 168.164 122.582 165.475 123.909 163.617C125.236 161.758 127.62 160.771 129.895 160.965L130.085 160.982C130.404 161.009 130.731 161.02 131.002 160.861C131.345 160.659 131.491 160.245 131.586 159.859C131.966 158.319 131.945 156.683 131.526 155.153L121.899 155.224C122.075 157.896 119.875 160.504 117.212 160.781C114.548 161.059 111.858 158.96 111.479 156.309L111.426 155.915C111.369 155.518 111.28 155.125 110.983 154.873C110.774 154.695 110.5 154.625 110.23 154.571L110.128 154.552C107.328 154.022 103.777 153.803 102.307 156.245C101.806 157.077 101.672 158.072 101.57 159.037C100.985 164.578 101.124 170.196 101.983 175.702L102.025 175.959C102.164 176.779 102.383 177.62 102.993 178.17C103.412 178.548 103.962 178.735 104.508 178.889L104.644 178.927C111.629 180.848 119.065 181.105 126.165 179.673L126.56 179.592C126.909 179.518 127.272 179.434 127.546 179.206C127.903 178.908 128.041 178.429 128.16 177.98L129.8 171.79Z" fill="#00160A"/>
<path fill-rule="evenodd" clip-rule="evenodd" d="M181.748 185.872C181.748 185.872 181.788 184.765 181.928 184.401C182.18 183.744 182.925 182.809 182.925 182.809C182.873 183.062 182.8 183.333 182.726 183.612C182.47 184.569 182.187 185.627 182.617 186.409C182.948 187.012 187.798 190.191 189.465 190.936C196.593 194.121 203.757 197.004 210.954 199.9L210.959 199.902L210.967 199.905L210.971 199.907L210.995 199.916C213.925 201.096 216.861 202.277 219.802 203.482C214.728 202.864 210.056 200.501 205.504 198.176C204.521 203.627 207.559 209.122 211.657 212.849C214.641 215.562 218.154 217.574 221.666 219.585L221.667 219.586C222.977 220.336 224.288 221.087 225.571 221.874L226.043 222.166C230.596 225.016 234.951 228.614 236.961 233.577C237.33 234.487 238.462 235.006 239.392 234.69C240.322 234.374 240.904 233.274 240.643 232.327C241.616 233.126 241.054 234.911 239.875 235.353C238.696 235.794 237.344 235.195 236.473 234.285C235.818 233.6 235.36 232.762 234.903 231.926L234.902 231.925C234.753 231.651 234.603 231.378 234.447 231.11C231.636 226.291 226.671 223.299 221.746 220.56L219.433 219.28C214.088 216.295 208.611 212.709 206.322 207.059C198.01 208.378 189.358 207.483 181.492 204.492C179.81 203.852 178.163 203.119 176.517 202.386L176.516 202.385L176.515 202.385C173.892 201.217 171.271 200.05 168.514 199.264C166.977 198.826 164.859 198.779 164.284 200.27C164.284 200.269 164.283 200.271 164.281 200.273C164.265 200.303 164.156 200.494 163.665 200.536C163.436 200.556 163.224 200.153 163.159 199.886C163.103 199.811 163.084 199.6 163.084 199.167C163.084 198.933 163.56 197.912 164.455 197.281C165.078 196.842 165.779 196.682 166.146 196.599C166.312 196.561 166.41 196.539 166.402 196.514C166.383 196.455 165.746 196.29 165.167 196.57C164.721 196.787 164.298 197.073 163.909 197.336C163.307 197.743 162.788 198.095 162.388 198.049C161.847 197.986 161.462 197.733 161.457 197.189C161.451 196.644 161.595 195.981 162.015 195.639C162.914 194.908 164.073 194.505 165.231 194.521C165.482 194.525 165.759 194.561 165.922 194.75C166.085 194.94 166.005 195.318 165.755 195.33C164.254 195.397 162.518 195.648 161.933 197.189C161.763 197.637 162.838 197.709 163.253 197.47C163.494 197.331 163.701 197.145 163.909 196.958C164.058 196.823 164.209 196.688 164.372 196.57C164.86 196.219 165.466 196.036 166.067 196.057C166.31 196.065 166.576 196.121 166.719 196.317C166.862 196.513 166.761 196.869 166.519 196.873C164.962 196.898 163.542 198.247 163.435 199.8C163.441 199.857 163.484 200.112 163.665 200.173C163.877 200.245 164.111 200.072 164.121 200.055C164.931 198.608 166.411 197.641 168.001 198.125C168.602 198.308 169.181 198.587 169.757 198.864C170.764 199.35 171.764 199.831 172.863 199.791L172.203 196.294C169.53 193.844 165.502 192.98 162.059 194.119C161.69 194.241 161.292 194.417 161.142 194.775C160.992 195.133 161.321 195.653 161.684 195.514C161.114 196.041 160.151 195.147 160.368 194.401C160.584 193.656 161.402 193.272 162.153 193.077C166.37 191.981 170.573 193.891 174.634 195.737C175.388 196.08 176.137 196.42 176.88 196.739C185.15 200.284 194.494 201.275 203.324 199.545C202.941 200.593 201.635 200.91 200.526 201.035C192.661 201.919 184.583 200.837 177.229 197.914C176.331 199.055 176.758 200.828 177.781 201.859C178.803 202.891 180.249 203.359 181.641 203.775C189.438 206.106 197.706 207.888 205.674 206.231L204.382 198.676L204.356 198.538C204.292 198.236 204.175 197.925 203.893 197.829L203.822 197.805C193.609 194.336 185.825 191.693 175.719 182.059C175.699 182.04 175.679 182.02 175.66 182C175.585 184.895 174.667 185.532 170.838 184.743C162.483 183.021 153.929 182.119 145.497 183.304C146.134 180.152 146.933 177.034 147.889 173.963C145.145 174.849 141.906 172.334 142.083 169.457C142.26 166.579 145.784 164.481 148.398 165.697C149.296 163.625 149.353 161.203 148.553 159.091C148.17 158.077 149.699 157.493 150.782 157.493L156.769 157.491C157.605 157.491 158.772 157.102 158.564 156.292C158.071 154.37 159.393 152.174 161.322 151.709C163.216 151.253 165.349 152.55 165.838 154.43L165.863 154.535C166.318 156.554 168.875 157.194 170.944 157.155L171.973 157.13C173.763 157.093 175.627 157.151 176.825 158.402C178.257 159.899 177.937 162.283 177.465 164.315L177.433 164.45C177.203 165.421 176.868 166.21 176.53 167.004C175.887 168.515 175.236 170.044 175.294 172.879C175.318 174.035 175.359 175.096 175.407 176.067C175.573 175.385 175.719 174.935 175.719 174.935C175.719 174.935 195.231 189.462 207.281 191.434C208.725 190.159 207.891 187.673 206.437 186.409C205.824 185.877 205.126 185.446 204.43 185.017C203.475 184.428 202.523 183.84 201.797 182.994C200.357 181.312 200.1 178.995 199.844 176.697C199.567 174.199 199.292 171.724 197.502 170.114C197.342 169.971 197.172 169.837 197.002 169.703C196.618 169.4 196.235 169.098 195.974 168.69C195.328 167.68 195.646 166.275 196.428 165.367C197.209 164.459 198.353 163.952 199.484 163.557C201.833 162.737 204.408 162.28 206.806 162.94C209.204 163.601 211.352 165.598 211.588 168.074C212.043 167.089 213.042 166.377 214.121 166.269L212.554 167.934L214.537 167.974L211.808 169.498C213.5 172.627 213.226 176.486 212.142 179.873C212.009 180.288 211.864 180.703 211.719 181.119C211.14 182.781 210.555 184.458 210.705 186.193C210.889 188.326 212.784 190.505 214.855 190.069L214.958 190.045C217.447 189.416 220.173 189.78 222.409 191.04C225.018 192.509 226.793 195.001 228.55 197.467C228.958 198.039 229.365 198.61 229.781 199.167C231.731 201.775 234.039 204.2 236.923 205.71C239.807 207.221 243.345 207.72 246.349 206.465C246.902 206.235 247.433 205.948 247.963 205.662C248.864 205.176 249.761 204.691 250.757 204.485C252.339 204.157 254.354 204.931 254.541 206.536C253.723 205.169 251.784 204.926 250.259 205.387C249.398 205.647 248.604 206.073 247.809 206.498C247.195 206.827 246.58 207.156 245.934 207.41C242.698 208.68 238.93 207.91 235.951 206.119C233.065 204.383 230.804 201.791 228.765 199.106L228.568 198.846C228.36 198.57 228.153 198.291 227.946 198.013C226.512 196.086 225.067 194.145 223.175 192.679C221.051 191.034 218.2 190.062 215.644 190.852L215.488 190.902C213.043 191.73 210.453 189.391 210.013 186.848C209.573 184.304 210.61 181.762 211.625 179.388C212.672 176.94 210.75 174.083 208.326 172.98C206.077 171.955 203.377 171.979 201.146 173.041C200.423 173.385 200.293 174.334 200.317 175.144L200.32 175.234C200.445 178.096 201.21 181.105 203.299 183.065C203.921 183.648 204.639 184.119 205.355 184.589C206.252 185.177 207.146 185.763 207.847 186.567C209.108 188.012 209.302 190.719 207.55 191.501C210.555 192.044 213.529 192.762 216.45 193.652C200.733 192.044 186.282 184.63 175.907 175.676C175.694 176.091 175.545 176.529 175.454 176.979C175.478 177.428 175.503 177.855 175.526 178.262C175.559 178.837 175.59 179.37 175.614 179.864C176.113 181.508 177.281 182.957 178.884 183.594C178.757 182.439 179.146 181.237 179.926 180.377C179.42 181.508 178.617 183.677 181.748 185.872ZM205.89 163.747C204.491 163.486 203.07 163.347 201.647 163.333C201.551 163.512 201.514 163.723 201.545 163.924C203.131 164.056 204.693 164.474 206.133 165.151C205.531 165.753 204.537 165.393 203.729 165.1L203.681 165.083C202.301 164.583 200.785 164.462 199.343 164.737C198.608 164.877 197.872 165.129 197.306 165.618C196.739 166.108 196.369 166.87 196.495 167.608C196.656 168.55 197.543 169.194 198.428 169.557C200.621 170.455 203.251 170.202 205.233 168.901C205.393 168.796 205.62 168.972 205.629 169.164C205.639 169.356 205.509 169.525 205.373 169.661C204.583 170.447 203.408 170.697 202.295 170.762C201.97 170.781 201.644 170.788 201.317 170.794C200.525 170.809 199.734 170.825 198.969 171.019C199.072 171.65 199.86 171.867 200.498 171.913C202.934 172.09 205.406 171.762 207.712 170.956C208.29 170.754 208.82 171.332 209.161 171.841L211.645 175.548C212.461 174.78 212.412 173.452 212.028 172.4C211.877 171.988 211.686 171.592 211.495 171.196C211.197 170.578 210.899 169.962 210.759 169.293C210.682 168.925 210.654 168.547 210.627 168.17C210.588 167.64 210.549 167.112 210.374 166.613C209.756 164.858 207.72 164.087 205.89 163.747ZM175.881 197.587L173.626 196.292C173.376 196.148 172.914 196.124 172.94 196.411C172.863 197.575 172.958 199.001 173.706 199.971C174.177 200.582 174.518 200.895 176.183 201.309L176.061 198.049C176.054 197.876 176.031 197.673 175.881 197.587ZM169.195 183.199C161.939 181.42 154.359 180.969 146.943 181.879C148.23 178.881 148.795 175.575 148.577 172.319C146.645 173.673 143.472 172.085 143.399 169.726C143.326 167.367 146.393 165.585 148.406 166.817C148.94 167.143 149.526 166.466 149.74 165.878C150.466 163.875 150.473 161.62 149.759 159.612C149.481 158.83 150.661 158.406 151.491 158.423L158.533 158.562C159.006 158.571 159.508 158.573 159.911 158.327C160.315 158.081 160.545 157.489 160.248 157.12C159.029 155.608 160.43 152.902 162.368 153.024C164.306 153.146 165.357 156.006 163.959 157.353C163.698 157.605 164.205 157.928 164.567 157.937L173.774 158.149C175.606 158.191 176.9 160.142 176.974 161.972C177.038 163.521 176.488 165.004 175.944 166.469C175.897 166.597 175.85 166.724 175.803 166.852L175.653 167.266C174.022 171.842 173.497 176.808 174.135 181.624C174.259 182.563 173.394 183.399 172.469 183.603C171.652 183.782 170.811 183.604 169.994 183.4L169.195 183.199Z" fill="#00160A"/>
<path d="M210.217 179.854C210.491 179.695 210.666 179.412 210.829 179.14C211.121 178.654 211.422 178.139 211.435 177.573C211.448 177.006 211.056 176.388 210.49 176.366C210.208 176.354 209.94 176.489 209.71 176.651C209.199 177.013 208.805 177.537 208.599 178.128C208.859 178.503 209.449 178.168 209.712 177.793C209.974 177.419 210.363 176.945 210.78 177.132C210.505 178.088 210.018 178.982 209.364 179.731C209.538 179.996 209.943 180.013 210.217 179.854Z" fill="#00160A"/>
<path d="M214.728 207.388C214.101 206.392 213.424 205.316 212.307 204.993C214.786 209.658 218.627 213.589 223.235 216.174C224.844 217.077 226.54 217.818 228.235 218.558C230.599 219.591 232.961 220.623 235.075 222.088C237.724 223.925 239.915 226.417 241.398 229.279C240.815 225.198 237.402 222.073 233.759 220.144C232.11 219.27 230.378 218.567 228.646 217.863L228.645 217.862L228.644 217.862C226.551 217.011 224.458 216.161 222.516 215.012C219.42 213.182 216.767 210.608 214.843 207.569C214.805 207.509 214.767 207.448 214.728 207.388Z" fill="#00160A"/>
<path fill-rule="evenodd" clip-rule="evenodd" d="M222.515 208.768L222.584 208.922C222.889 209.628 223.1 210.514 222.527 210.992C222.071 211.374 221.379 211.228 220.841 210.975C219.677 210.429 218.715 209.464 218.172 208.298C218.851 208.164 219.488 207.822 219.976 207.33C220.381 206.922 221.098 207.004 221.555 207.354C222.012 207.704 222.271 208.246 222.515 208.768ZM222.145 210.438C222.731 209.385 221.535 207.833 220.951 207.732C220.697 207.688 220.435 207.94 220.153 208.21C219.863 208.488 219.554 208.785 219.211 208.802C219.211 208.802 221.559 211.491 222.145 210.438Z" fill="#00160A"/>
<path d="M251.72 213.465C265.959 212.997 279.861 206.061 288.796 194.965C289.259 194.39 290.174 194.38 290.817 194.741C291.46 195.102 291.895 195.736 292.306 196.349C292.754 196.283 292.767 195.588 292.458 195.256C292.306 195.093 292.115 194.974 291.924 194.856C291.728 194.734 291.531 194.612 291.377 194.441C290.755 193.753 291.087 192.669 291.452 191.815L293.076 188.011C293.294 187.502 293.634 186.907 294.189 186.915C294.594 186.921 294.906 187.259 295.163 187.573C297.967 190.988 300.567 194.57 302.947 198.293C301.48 198.52 300.07 197.798 298.678 197.085C297.124 196.288 295.594 195.504 294.036 196.069C292.678 196.562 291.878 197.929 291.159 199.182C288.807 203.279 286.112 207.226 282.7 210.494C274.774 218.082 263.714 221.366 252.94 223.442C259.604 225.965 266.946 226.673 273.97 225.469C277.989 224.781 281.997 223.424 285.13 220.814C286.398 219.756 287.498 218.515 288.593 217.279L296.662 208.171C297.134 207.638 298.006 208.15 298.446 208.71C298.886 209.27 299.483 209.969 300.155 209.73C299.674 208.654 298.84 207.74 297.813 207.163C297.752 205.878 297.714 204.502 298.397 203.412C299.08 202.322 300.782 201.791 301.669 202.724C304.574 205.78 307.358 208.952 310.012 212.229C308.454 212.474 306.975 211.804 305.506 211.138C305.052 210.933 304.599 210.728 304.146 210.55C302.224 209.799 299.53 209.815 298.654 211.683C296.257 216.792 293.766 222.033 289.652 225.896C282.781 232.348 272.741 233.804 263.375 234.866C259.222 235.337 254.955 235.784 250.911 234.726C247.967 233.957 245.289 232.425 242.65 230.91L240.556 229.708C239.94 229.862 240.435 230.796 240.982 231.119C244.488 233.186 248.101 235.293 252.121 235.927C253.146 236.088 254.183 236.151 255.219 236.19C264.76 236.549 274.371 234.875 283.229 231.313C286.923 229.827 290.682 227.841 292.711 224.416L299.859 212.343C300.133 211.881 300.434 211.393 300.92 211.163C301.512 210.883 302.208 211.062 302.837 211.244L309.537 213.19C310.222 213.389 310.858 212.586 310.787 211.877C310.716 211.168 310.203 210.592 309.716 210.071L303.537 203.458C302.722 202.585 301.846 201.674 300.694 201.357C299.543 201.039 298.063 201.598 297.838 202.771C297.173 206.233 294.809 209.086 292.526 211.773C288.993 215.931 285.316 220.204 280.412 222.596C273.38 226.028 265.071 225.031 257.373 223.637L262.365 222.183C264.836 221.463 267.311 220.742 269.706 219.801C278.998 216.149 286.914 209.104 291.617 200.297C292.434 198.769 293.394 197.002 295.1 196.695C296.501 196.443 297.697 197.271 298.918 198.117C299.645 198.62 300.38 199.129 301.174 199.422C302.346 199.855 304.163 199.239 303.888 198.022C303.826 197.746 303.659 197.508 303.495 197.278L297.139 188.317C296.257 187.073 294.935 185.669 293.484 186.135C292.318 186.51 291.881 187.856 291.495 189.043L291.454 189.172L291.426 189.255C289.617 194.769 284.752 198.62 280.134 202.134C278.114 203.671 276.088 205.213 273.908 206.513C267.539 210.313 260.071 211.922 252.67 212.402C250.579 212.538 249.265 214.499 248.063 216.295C247.986 216.41 247.909 216.524 247.833 216.637C247.768 216.734 247.702 216.83 247.637 216.925C245.577 219.926 242.644 222.32 239.291 223.737C239.852 224.357 240.874 223.986 241.583 223.543C244.947 221.44 247.801 218.527 249.834 215.12C250.283 214.368 250.846 213.494 251.72 213.465Z" fill="#00160A"/>
<path d="M207.044 181.298C206.717 182.015 205.987 182.532 205.202 182.602C204.417 182.671 203.607 182.292 203.159 181.644C202.994 181.406 202.995 180.941 203.284 180.966C203.884 181.764 205.136 181.97 205.961 181.407C206.318 181.163 206.937 180.88 207.044 181.298Z" fill="#00160A"/>
<path d="M200.733 176.088C200.804 175.487 201.31 174.965 201.909 174.876C202.507 174.787 203.143 175.138 203.387 175.692C202.949 175.692 202.656 175.613 202.412 175.547C201.916 175.413 201.622 175.334 200.733 176.088Z" fill="#00160A"/>
<path d="M205.369 179.433L204.688 179.725L204.649 179.703C204.472 180.039 203.953 179.658 203.913 179.281C203.904 179.203 203.901 179.12 203.897 179.037C203.881 178.717 203.866 178.384 203.601 178.24C203.271 178.717 203.12 179.343 203.312 179.89C203.504 180.436 204.089 180.851 204.659 180.748C205.23 180.645 205.639 179.946 205.369 179.433Z" fill="#00160A"/>
<path d="M206.186 174.793C207.047 174.862 207.276 174.909 207.514 175.475C207.56 175.586 207.192 175.481 206.842 175.381C206.584 175.308 206.335 175.237 206.268 175.257C203.387 176.111 205.325 174.724 206.186 174.793Z" fill="#00160A"/>
<path d="M205.943 176.281C206.419 176.658 206.281 178.16 205.579 177.878C205.284 177.759 204.933 175.48 205.943 176.281Z" fill="#00160A"/>
<path d="M228.718 216.509C228.491 216.226 228.749 215.721 229.111 215.739C229.271 215.843 229.38 216.022 229.399 216.211C229.261 216.435 228.977 216.557 228.721 216.503L228.718 216.509Z" fill="#00160A"/>
<path d="M222.248 213.581L222.743 213.506L222.782 213.491C222.954 213.17 222.392 212.803 222.168 213.091C222.119 213.255 222.149 213.441 222.248 213.581Z" fill="#00160A"/>
<path d="M225.771 215.532C225.484 215.61 225.445 215.117 225.607 214.868L226.291 215.18C226.186 215.365 225.99 215.495 225.778 215.522L225.771 215.532Z" fill="#00160A"/>
<path d="M217.218 208.354C217.142 208.166 216.87 208.094 216.711 208.22L216.755 208.263C216.618 208.443 216.726 208.749 216.946 208.802C217.148 208.782 217.294 208.542 217.218 208.354Z" fill="#00160A"/>
<path d="M202.173 177.913C201.897 177.913 201.608 177.643 201.623 177.175C201.637 176.706 201.764 176.273 202.173 176.503C202.581 176.733 202.457 177.913 202.173 177.913Z" fill="#00160A"/>
<path d="M73.7635 120.994C73.9294 121.213 74.3089 121.117 74.455 120.885C74.6011 120.653 74.5827 120.357 74.5563 120.084C74.1742 116.137 73.1497 112.252 71.5354 108.63C71.0756 107.598 70.5921 106.311 71.296 105.428C72.9235 109.495 74.5646 113.613 75.1574 117.954C75.3191 119.139 75.3772 120.436 74.7167 121.433C74.0562 122.43 72.4104 122.812 71.6765 121.868C72.8052 121.632 73.6688 120.489 73.5874 119.339C74.1088 119.694 74.1984 120.537 73.7635 120.994Z" fill="#00160A"/>
<path d="M88.1276 181.174C88.1959 181.168 88.2677 181.162 88.3406 181.161C88.4318 181.16 88.537 181.176 88.6362 181.192C88.9039 181.233 89.1283 181.268 88.9167 180.936C88.6265 180.482 87.7773 180.431 87.6381 180.952C87.677 181.214 87.8794 181.196 88.1276 181.174Z" fill="#00160A"/>
<path d="M88.8111 183.421L88.8234 183.374C89.0298 182.592 88.9103 181.975 88.3406 181.975C88.1207 181.991 87.7851 183.111 87.8171 183.45C87.8491 183.79 88.2317 184.104 88.5281 183.935C88.7038 183.835 88.76 183.618 88.8111 183.421Z" fill="#00160A"/>
<path d="M85.0528 183.183C84.6556 182.632 84.614 181.846 84.9505 181.255C85.0007 181.167 85.0615 181.081 85.1495 181.03C85.3724 180.902 85.6705 181.075 85.7687 181.313C85.8669 181.55 85.8241 181.819 85.7796 182.072C85.7796 182.072 85.45 183.735 85.0528 183.183Z" fill="#00160A"/>
<path fill-rule="evenodd" clip-rule="evenodd" d="M108.257 183.527C107.93 183.734 107.666 184.059 107.471 184.399C107.774 183.439 108.081 182.228 107.335 182.131C106.069 181.966 104.832 184.027 105.052 185.121C104.701 184.249 103.239 184.626 102.885 185.497C102.614 186.165 102.729 186.897 102.844 187.624C102.878 187.844 102.913 188.064 102.937 188.281C103.317 191.753 100.714 194.999 97.5583 196.496C94.5829 197.908 91.2062 198.106 87.9034 198.209L87.1329 198.231C85.2474 198.281 83.2055 198.237 81.7664 197.033C80.2837 195.793 80.2854 192.851 82.1471 192.331C86.8733 191.011 90.4783 186.406 90.6251 181.501C90.6685 180.051 91.6086 178.845 92.5172 177.68L92.5196 177.676C92.6004 177.573 92.681 177.469 92.7606 177.366L92.9602 177.105C93.9773 175.756 94.8133 173.897 93.9593 172.439C92.6363 174.137 90.1576 174.822 88.1509 174.043C87.3137 173.719 86.5719 173.177 85.8347 172.638C84.8475 171.916 83.8686 171.2 82.6796 171.021C80.3546 170.671 78.0485 173.025 78.4464 175.343C77.817 174.814 76.8401 175.614 76.772 176.433C76.732 176.914 76.8585 177.382 76.9856 177.853C77.0748 178.182 77.1643 178.514 77.1967 178.851C77.2344 179.243 77.1942 179.636 77.1539 180.03C77.1267 180.295 77.0995 180.561 77.0962 180.828C77.0794 182.207 77.694 183.484 78.2992 184.741C78.3603 184.868 78.4213 184.995 78.4816 185.121L78.6435 185.466C79.3326 186.96 79.8437 188.738 79.1093 190.211C78.3749 191.683 75.8751 192.145 75.1669 190.66C71.6958 183.381 63.8284 178.424 55.7642 178.437C46.4272 178.451 38.0264 184.604 32.5239 192.147C31.8376 193.088 31.1659 194.101 31.0164 195.256C30.8668 196.411 31.4027 197.737 32.5013 198.123C33.5999 198.509 35.0244 197.429 34.6664 196.321C35.2238 196.971 36.3637 196.356 36.6262 195.54C36.7737 195.082 36.7719 194.599 36.7702 194.114C36.7688 193.736 36.7673 193.357 36.8368 192.988C37.1771 191.179 39.0378 190.134 40.7125 189.37L41.0503 189.217C44.9951 187.432 49.1051 185.838 53.42 185.535C57.8582 185.223 62.5943 186.457 65.6443 189.696C61.4825 190.683 59.0657 194.859 57.1392 198.716L56.872 199.254C54.9269 203.16 52.3792 207.421 48.1137 208.249C48.2759 209.091 49.0189 209.787 49.8692 209.894L34.232 219.191L35.4316 220.679C31.6243 226.514 27.3182 232.024 22.5757 237.128C19.9972 239.903 16.6491 242.779 12.9164 242.133C12.2414 242.016 11.587 241.784 10.9348 241.554C9.97985 241.215 9.02975 240.879 8.02708 240.908C6.33969 240.956 4.6463 243.008 5.79169 244.248C8.32833 246.995 11.2235 249.409 14.3805 251.412L14.4622 251.463C14.8465 251.703 15.2692 251.926 15.7149 251.875C16.1653 251.824 16.5321 251.503 16.8672 251.197L38.0452 231.888C39.7797 230.319 41.6884 228.749 43.999 228.519L44.1939 228.495C45.9029 228.257 47.3106 227.177 48.7225 226.094C49.337 225.622 49.9528 225.149 50.5941 224.746C52.7645 223.38 56.3645 223.24 57.2086 225.661C57.6573 226.948 57.0701 228.257 56.4914 229.547C56.3189 229.931 56.1472 230.314 56.0039 230.694C55.3797 232.349 55.8912 234.895 57.6597 234.864L67.5572 234.688C67.9129 234.685 68.2875 234.705 68.5641 234.923C68.8536 235.15 68.955 235.529 69.0107 235.901L69.0337 236.071C69.4064 239.102 69.355 242.186 68.8814 245.203C68.3682 248.473 67.0026 252.069 63.9173 253.268C61.9713 254.024 59.8038 253.632 57.7542 253.162L45.3002 250.254C45.2794 248.745 46.6438 247.517 48.0983 247.118C49.3316 246.779 50.6269 246.882 51.9097 246.985L52.1459 247.003L52.5983 247.037C55.7502 247.254 58.9365 246.961 61.9961 246.173L57.5814 235.125C58.0314 238.793 59.0235 242.394 60.5154 245.775L46.0023 246.246C44.7386 246.281 43.3356 246.225 42.4861 245.303C42.268 245.066 42.0862 244.775 41.9061 244.486C41.5362 243.893 41.1732 243.311 40.5165 243.235C39.9491 243.17 39.435 243.549 39.0004 243.919C36.163 246.34 33.8071 249.322 32.1097 252.643C32.7216 254.158 34.7492 254.582 36.3244 254.147C37.2458 253.893 38.0868 253.434 38.9295 252.975C39.5272 252.65 40.1261 252.323 40.7547 252.069C44.2629 250.651 48.1197 251.612 51.8245 252.728L54.0252 253.398C58.3741 254.704 63.6766 255.374 66.9356 252.212C68.8587 250.346 69.5593 247.57 69.94 244.917C71.0388 237.264 70.148 229.333 67.3788 222.114C70.4665 220.923 71.9235 217.469 73.0562 214.359L75.2745 208.27C76.0156 206.235 77.6994 203.738 79.7037 204.558C85.4332 206.901 92.2006 205.911 97.5348 202.77C102.869 199.629 106.862 194.541 109.552 188.966L109.624 188.816C110.15 187.708 110.821 185.123 110.222 184.836C109.998 184.661 109.6 184.952 109.329 185.15C109.183 185.258 109.073 185.338 109.048 185.302C109.033 185.281 109.082 185.138 109.152 184.935C109.426 184.137 110.017 182.414 108.257 183.527ZM86.9183 199.374C92.8234 199.05 99.6646 198.198 102.762 193.16C103.565 191.853 103.394 189.799 103.253 188.107C103.139 186.747 103.045 185.621 103.492 185.302C104.494 184.588 105.296 186.43 105.296 186.43C105.325 186.309 105.359 186.158 105.397 185.987C105.677 184.732 106.192 182.42 107.002 182.854C107.335 183.033 107.22 184.157 107.142 184.929C107.123 185.111 107.107 185.273 107.098 185.398C107.08 185.518 107.077 185.618 107.091 185.688C107.102 185.683 107.114 185.677 107.126 185.669C107.135 185.667 107.145 185.659 107.157 185.645C107.288 185.534 107.468 185.261 107.667 184.957C108.081 184.328 108.581 183.566 108.916 183.846C109.442 184.286 107.571 187.091 107.571 187.091C107.571 187.091 109.793 184.649 109.981 185.688C110.168 186.727 105.107 196.114 100.539 199.796C95.9709 203.477 89.5339 205.538 83.7134 204.8C83.8434 202.491 84.6097 199.501 86.9183 199.374ZM107.157 185.645C107.153 185.649 107.148 185.653 107.143 185.657C107.137 185.661 107.132 185.665 107.126 185.669C107.091 185.674 107.087 185.57 107.098 185.398C107.141 185.127 107.268 184.755 107.471 184.399C107.449 184.468 107.428 184.536 107.406 184.603L107.358 184.75C107.196 185.248 107.079 185.608 107.2 185.58C107.184 185.609 107.17 185.63 107.157 185.645ZM70.3423 217.711C69.6492 219.269 68.5022 221.103 66.8093 220.896C65.9028 220.786 65.218 220.101 64.6021 219.398L64.272 219.016C60.694 214.863 55.8333 212.102 50.948 209.561L49.3204 208.72C53.2998 207.937 55.7547 204.002 57.5076 200.344L58.0662 199.179C59.6691 195.856 61.493 192.437 64.799 190.941C65.256 190.734 65.7802 190.569 66.2514 190.741C66.3229 190.767 66.3999 190.797 66.4801 190.828C67.062 191.051 67.8114 191.339 67.7995 190.788C66.7386 190.361 66.5642 188.813 67.1761 187.847C67.7347 186.965 68.7024 186.456 69.6606 186.017L69.9338 185.893C69.3225 185.05 67.9978 185.759 67.3058 186.537L67.2487 186.6C66.5542 187.362 65.4881 188.196 64.6865 187.577C61.3739 185.018 56.9591 184.196 52.7923 184.598C48.6254 185 44.6499 186.523 40.8433 188.265C39.4481 188.903 38.031 189.599 36.9956 190.732C36.1947 191.607 36.1116 192.773 36.0282 193.945C36.0038 194.288 35.9793 194.632 35.9368 194.969C35.834 195.783 35.3859 195.815 34.9911 195.842C34.7795 195.857 34.5833 195.87 34.4638 196.003C34.4542 196.014 34.4233 196.061 34.3768 196.132C34.1398 196.496 33.4983 197.482 33.2086 197.383C32.7832 197.239 33.0001 196.321 33.0001 196.321C33.0001 196.321 31.7375 196.682 31.6435 196.321C31.3147 195.058 33.2086 192.474 33.2086 192.474C36.3928 187.79 41.1148 183.903 46.3063 181.644C51.5938 179.343 57.7641 178.898 63.1694 180.907C69.2634 183.172 74.089 188.583 75.6447 194.895C76.0325 196.469 77.8631 197.164 79.4627 197.425C79.6132 197.45 79.7655 197.474 79.9188 197.498C81.3951 197.728 82.9648 197.974 83.9057 199.101C84.183 199.433 84.1063 199.925 84.0111 200.347L83.9832 200.469C83.6323 201.974 83.0201 203.659 81.5574 204.116C80.2281 204.531 78.6529 203.459 78.5512 202.07C78.5423 201.948 78.5396 201.818 78.5369 201.687C78.5257 201.148 78.514 200.579 78.0606 200.356L70.3423 217.711ZM57.7709 225.943C57.2738 223.389 55.7629 221.091 53.7805 219.405C53.8579 220.409 54.2827 221.383 54.9658 222.123C51.6065 223.191 48.4386 224.858 45.6561 227.022C44.9113 227.601 43.6461 228.129 43.2099 227.293C41.4938 224.001 38.762 221.249 35.4838 219.508L48.9609 211.763C49.5701 211.413 50.2143 211.053 50.9168 211.046C51.4614 211.041 51.9787 211.249 52.4711 211.492L52.7153 211.616C57.7586 214.213 62.2732 217.832 65.9058 222.19C66.8052 223.269 67.2238 224.65 67.5801 226.017L69.1832 232.28C69.2893 232.694 69.3672 233.208 69.0422 233.487C68.8593 233.644 68.6018 233.671 68.3616 233.689L68.0805 233.711C64.0898 234.018 60.87 234.266 56.872 233.689C56.2754 232.545 56.7262 231.128 57.1917 229.664C57.5906 228.41 58.0003 227.122 57.7709 225.943ZM37.7215 222.092C39.2168 223.409 40.5649 224.893 41.7326 226.508C41.8575 226.68 41.986 226.873 41.9727 227.086C41.9572 227.334 41.7561 227.525 41.5689 227.689L24.1501 242.934C23.4238 243.57 22.2651 243.459 21.4516 242.939C20.7397 242.485 20.2307 241.788 19.7637 241.078L19.5657 240.773C24.1053 238.388 27.0173 234.114 29.9553 229.802C31.7981 227.097 33.6511 224.378 35.9224 222.1C36.1431 221.879 36.3922 221.649 36.7029 221.615C37.0872 221.571 37.4312 221.837 37.7215 222.092ZM88.4474 179.567L88.892 179.704C89.7581 179.972 89.902 181.132 89.7918 182.032C89.3353 185.758 87.0195 189.445 83.4488 190.603L83.3212 190.646C80.9944 191.467 79.3309 193.902 79.4303 196.371C77.8685 196.663 76.194 195.414 76.0298 193.833C75.9971 193.518 76.0904 193.109 76.4035 193.061C77.8225 192.843 79.1276 191.972 79.8736 190.745C80.6196 189.519 80.7926 187.959 80.3335 186.599C80.2398 186.321 80.1205 186.043 80.0012 185.764C79.6618 184.973 79.3212 184.178 79.5596 183.379C80.1035 183.429 80.2066 184.175 80.1492 184.718L80.143 184.784C80.0989 185.319 80.1935 186.006 80.7129 186.078C81.0553 185.292 81.1265 184.411 81.1972 183.538C81.2864 182.435 81.3747 181.343 82.0072 180.464C82.7303 179.459 84.0275 178.997 85.2653 178.983C86.3484 178.97 87.4073 179.252 88.4474 179.567ZM10.1822 242.384L10.2939 242.255C10.9173 242.119 11.5126 242.917 11.2039 243.476C11.0058 243.834 11.6149 244.189 11.9551 243.961C12.2952 243.733 12.3638 243.27 12.4012 242.862C12.7434 242.755 13.0394 243.147 13.104 243.5C13.1211 243.593 13.1317 243.689 13.1423 243.786C13.1718 244.054 13.2013 244.324 13.3708 244.526C13.6013 244.801 14.2117 244.658 14.1116 244.314C13.9622 243.8 14.569 243.381 15.0986 243.305C15.2259 243.287 15.3573 243.276 15.4891 243.266C15.9056 243.232 16.3254 243.197 16.6285 242.927L16.6743 242.89C17.059 242.617 17.5353 243.122 17.8257 243.57L17.9607 243.788C18.5992 244.78 19.6845 245.475 20.8545 245.634C21.0838 245.665 20.9671 246.023 20.7987 246.181L16.8499 249.9C16.6585 250.08 16.3483 249.952 16.1241 249.815C13.7801 248.379 11.6163 246.65 9.69934 244.681C9.09542 244.061 9.60759 243.071 10.1822 242.384ZM44.7148 249.306C44.6009 249.775 44.2772 250.299 43.7959 250.264C42.636 250.178 41.4599 250.318 40.3524 250.673C40.454 250.201 40.2474 249.677 39.8508 249.401C39.5615 249.815 39.6798 250.457 40.0978 250.74L38.9937 251.831L38.4652 250.616C38.2046 250.686 38.197 251.006 38.2149 251.299L38.2278 251.481C38.2807 252.25 37.6285 252.997 36.8596 253.049C36.0906 253.101 35.3439 252.448 35.2931 251.679C35.2377 250.841 35.8793 250.138 36.4758 249.547L40.7115 245.353C40.8016 245.268 40.9047 245.188 41.0263 245.19C41.1607 245.193 41.2696 245.294 41.3642 245.39L43.017 247.058C43.3376 247.381 43.135 247.876 42.9376 248.358C42.7344 248.855 42.5367 249.338 42.9204 249.607C43.294 249.629 43.6051 249.305 43.7488 248.959C43.822 248.783 43.8666 248.597 43.9111 248.411C43.9538 248.232 43.9966 248.053 44.0649 247.883C44.2042 247.536 44.5048 247.205 44.879 247.213C45.2532 247.221 45.5419 247.756 45.2525 247.993C44.944 248.246 44.8559 248.657 44.7703 249.057C44.7523 249.141 44.7345 249.224 44.7148 249.306ZM15.7547 251.16C11.9475 249.124 8.58223 246.266 5.95548 242.839C6.29992 242.513 6.81792 242.86 7.15106 243.23L7.23354 243.327C9.72936 246.415 12.8638 248.985 16.3814 250.827C16.3529 251.105 16.0009 251.292 15.7547 251.16ZM34.0132 250.38C35.6624 248.223 37.4897 246.203 39.4703 244.346C39.7774 244.058 40.4151 243.864 40.4927 244.277C38.1869 246.479 35.9815 248.785 33.8857 251.187C33.6579 250.989 33.8301 250.62 34.0132 250.38ZM21.3476 244.988C20.1968 244.578 19.1709 243.825 18.4358 242.849C18.1593 242.482 17.9848 241.845 18.4039 241.656C18.7351 241.507 19.0533 241.82 19.2843 242.124L19.4575 242.359C20.2019 243.341 21.2636 244.08 22.4445 244.433C22.4466 244.749 22.1858 245.044 21.8729 245.081C21.6947 245.101 21.5167 245.048 21.3476 244.988ZM77.8208 181.161C78.3619 181.174 78.8199 181.738 78.7216 182.27L78.7344 182.278C78.8092 182.663 78.76 183.072 78.5957 183.429C78.004 182.849 77.7078 181.982 77.8208 181.161Z" fill="#00160A"/>
<path fill-rule="evenodd" clip-rule="evenodd" d="M71.0528 98.9239C71.1198 98.4898 71.6982 98.2392 72.1162 98.3882C72.5342 98.5371 72.9074 99.1366 72.6011 99.4757C72.1162 100.012 70.9227 99.7661 71.0528 98.9239Z" fill="#FFB61D"/>
<path fill-rule="evenodd" clip-rule="evenodd" d="M253.01 211.307C252.736 211.537 252.188 211.62 252.137 211.266C253.204 210.181 253.938 208.773 254.216 207.278C254.564 207.185 254.665 207.739 254.578 208.089C254.283 209.267 253.94 210.526 253.01 211.307Z" fill="#00160A"/>
<path d="M17.5684 82.032C17.5576 82.3818 17.027 82.3614 16.7062 82.2217C16.8217 81.9096 17.2899 81.8051 17.5271 82.0386L17.5684 82.032Z" fill="black"/>
<path fill-rule="evenodd" clip-rule="evenodd" d="M168.979 178.126C168.609 178.455 167.987 177.952 168.042 177.461C168.097 176.969 168.533 176.617 168.951 176.352C170.449 175.403 172.184 174.831 173.952 174.703C174 175.378 173.125 175.656 172.462 175.786C171.054 176.06 169.712 176.67 168.58 177.551C168.784 177.677 168.933 177.891 168.979 178.126Z" fill="#00160A"/>
<path fill-rule="evenodd" clip-rule="evenodd" d="M174.002 178.987C173.172 179.387 172.328 179.757 171.471 180.096C171.568 180.458 172.088 180.446 172.44 180.318C172.792 180.191 173.255 180.058 173.484 180.354C172.904 181.239 171.468 181.377 170.731 180.619C170.411 180.289 169.83 180.506 169.417 180.306C168.824 180.02 168.934 179.126 169.283 178.568C170.011 177.403 171.4 176.685 172.771 176.764C173.293 176.794 173.917 177.052 173.952 177.573C172.314 177.471 170.645 178.146 169.539 179.358C170.167 179.844 171.068 179.482 171.776 179.123C172.485 178.764 173.42 178.446 174.002 178.987Z" fill="#00160A"/>
<path fill-rule="evenodd" clip-rule="evenodd" d="M86.8205 183.632C87.2906 184.102 87.4856 184.318 87.4856 185.01C87.4856 185.701 87.1103 186.145 86.4772 186.348C86.1851 186.442 85.781 186.37 85.7052 186.073C87.8153 185.642 87.0398 184.722 86.8205 183.632Z" fill="#00160A"/>
<path fill-rule="evenodd" clip-rule="evenodd" d="M84.005 180.69C84.2302 179.943 85.2094 179.54 85.895 179.911C86.1662 180.058 86.3919 180.325 86.4058 180.633C85.6056 180.652 84.9466 180.135 84.005 180.69Z" fill="#00160A"/>
<path fill-rule="evenodd" clip-rule="evenodd" d="M85.921 187.358C81.457 184.879 84.9518 188.055 85.921 187.358V187.358Z" fill="#00160A"/>
<defs>
<linearGradient id="paint0_linear_533_1135" x1="36.0054" y1="23.6098" x2="288.855" y2="373.342" gradientUnits="userSpaceOnUse">
<stop stop-color="#8C00C7"/>
<stop offset="1" stop-color="#DB00FF"/>
</linearGradient>
<linearGradient id="paint1_linear_533_1135" x1="36.0054" y1="23.6098" x2="288.855" y2="373.342" gradientUnits="userSpaceOnUse">
<stop stop-color="#8C00C7"/>
<stop offset="1" stop-color="#DB00FF"/>
</linearGradient>
<linearGradient id="paint2_linear_533_1135" x1="36.0054" y1="23.6098" x2="288.855" y2="373.342" gradientUnits="userSpaceOnUse">
<stop stop-color="#8C00C7"/>
<stop offset="1" stop-color="#DB00FF"/>
</linearGradient>
<linearGradient id="paint3_linear_533_1135" x1="36.0054" y1="23.6098" x2="288.855" y2="373.342" gradientUnits="userSpaceOnUse">
<stop stop-color="#8C00C7"/>
<stop offset="1" stop-color="#DB00FF"/>
</linearGradient>
</defs>
</svg>
